<svg width="334" height="74" viewBox="0 0 334 74" fill="none" xmlns="http://www.w3.org/2000/svg">
<rect x="0.5" y="0.5" width="333" height="73" rx="3.5" fill="white"/>
<rect x="0.5" y="0.5" width="333" height="73" rx="3.5" stroke="#D0D0D0"/>
<path d="M43.0733 25.9873H20.4265C19.6729 25.9873 19.2022 26.8086 19.5806 27.4639L26.7357 39.6271V47.0283C26.7357 47.5728 27.1726 48.0127 27.714 48.0127H35.7858C36.3273 48.0127 36.7641 47.5728 36.7641 47.0283V39.6271L43.9223 27.4639C44.2976 26.8086 43.827 25.9873 43.0733 25.9873ZM34.5615 45.7979H28.9383V40.999H34.5646V45.7979H34.5615ZM34.8568 38.5196L34.5646 39.0303H28.9352L28.643 38.5196L22.5429 28.2021H40.9569L34.8568 38.5196Z" fill="#BFBFBF"/>
<path d="M89.2757 47H86.5317V27.148H98.5997V29.696H89.2757V36.08H97.7317V38.656H89.2757V47ZM104.141 47H101.537V33.532H104.141V47ZM101.481 29.78C101.126 29.4067 100.949 28.9587 100.949 28.436C100.949 27.9133 101.126 27.4653 101.481 27.092C101.854 26.7187 102.302 26.532 102.825 26.532C103.348 26.532 103.796 26.7187 104.169 27.092C104.542 27.4467 104.729 27.8947 104.729 28.436C104.729 28.9587 104.542 29.4067 104.169 29.78C103.796 30.1347 103.348 30.312 102.825 30.312C102.302 30.312 101.854 30.1347 101.481 29.78ZM111.251 47H108.619V26.728H111.251V47ZM119.256 29.276V33.532H122.168V35.912H119.256V42.912C119.256 43.5467 119.396 44.0133 119.676 44.312C119.975 44.6107 120.46 44.76 121.132 44.76C121.524 44.76 121.87 44.7227 122.168 44.648V46.888C121.72 47.056 121.123 47.14 120.376 47.14C119.219 47.14 118.304 46.804 117.632 46.132C116.96 45.46 116.624 44.5173 116.624 43.304V35.912H114.048V33.532H114.776C115.467 33.532 115.98 33.3453 116.316 32.972C116.671 32.58 116.848 32.076 116.848 31.46V29.276H119.256ZM127.253 38.88H134.617C134.579 37.872 134.243 37.0507 133.609 36.416C132.974 35.7627 132.078 35.436 130.921 35.436C129.875 35.436 129.017 35.7813 128.345 36.472C127.673 37.144 127.309 37.9467 127.253 38.88ZM135.009 42.38L137.277 43.164C136.885 44.4147 136.157 45.4413 135.093 46.244C134.029 47.028 132.741 47.42 131.229 47.42C129.343 47.42 127.738 46.776 126.413 45.488C125.106 44.1813 124.453 42.4267 124.453 40.224C124.453 38.1707 125.087 36.472 126.357 35.128C127.626 33.784 129.138 33.112 130.893 33.112C132.927 33.112 134.514 33.756 135.653 35.044C136.791 36.3133 137.361 38.0213 137.361 40.168C137.361 40.504 137.342 40.784 137.305 41.008H127.169C127.187 42.2027 127.579 43.1827 128.345 43.948C129.129 44.7133 130.09 45.096 131.229 45.096C133.151 45.096 134.411 44.1907 135.009 42.38ZM148.196 33.392V36.192C147.804 36.136 147.422 36.108 147.048 36.108C144.584 36.108 143.352 37.4893 143.352 40.252V47H140.72V33.532H143.296V35.884C144.118 34.1667 145.462 33.308 147.328 33.308C147.627 33.308 147.916 33.336 148.196 33.392ZM160.606 47H158.002V26.728H160.606V35.436C160.96 34.7827 161.52 34.2413 162.286 33.812C163.07 33.364 163.994 33.14 165.058 33.14C167.018 33.14 168.539 33.8027 169.622 35.128C170.704 36.4533 171.246 38.1427 171.246 40.196C171.246 42.268 170.686 43.9853 169.566 45.348C168.446 46.692 166.915 47.364 164.974 47.364C162.958 47.364 161.502 46.5893 160.606 45.04V47ZM167.466 43.696C168.194 42.8187 168.558 41.652 168.558 40.196C168.558 38.74 168.194 37.592 167.466 36.752C166.756 35.8933 165.795 35.464 164.582 35.464C163.406 35.464 162.444 35.8933 161.698 36.752C160.951 37.6107 160.578 38.7587 160.578 40.196C160.578 41.6333 160.951 42.8 161.698 43.696C162.444 44.5733 163.406 45.012 164.582 45.012C165.776 45.012 166.738 44.5733 167.466 43.696ZM177.413 52.628H174.529L177.889 45.516L172.093 33.532H175.117L179.317 42.828L183.349 33.532H186.177L177.413 52.628ZM199.237 29.276V33.532H202.149V35.912H199.237V42.912C199.237 43.5467 199.377 44.0133 199.657 44.312C199.955 44.6107 200.441 44.76 201.113 44.76C201.505 44.76 201.85 44.7227 202.149 44.648V46.888C201.701 47.056 201.103 47.14 200.357 47.14C199.199 47.14 198.285 46.804 197.613 46.132C196.941 45.46 196.605 44.5173 196.605 43.304V35.912H194.029V33.532H194.757C195.447 33.532 195.961 33.3453 196.297 32.972C196.651 32.58 196.829 32.076 196.829 31.46V29.276H199.237ZM209.159 52.628H206.275L209.635 45.516L203.839 33.532H206.863L211.063 42.828L215.095 33.532H217.923L209.159 52.628ZM223.059 52.32H220.455V33.532H223.003V35.632C223.395 34.9227 223.983 34.344 224.767 33.896C225.551 33.448 226.466 33.224 227.511 33.224C229.452 33.224 230.964 33.8867 232.047 35.212C233.148 36.5373 233.699 38.2173 233.699 40.252C233.699 42.3053 233.13 44.004 231.991 45.348C230.871 46.692 229.35 47.364 227.427 47.364C226.438 47.364 225.56 47.1587 224.795 46.748C224.03 46.3373 223.451 45.8147 223.059 45.18V52.32ZM231.011 40.252C231.011 38.8893 230.647 37.7693 229.919 36.892C229.21 35.996 228.248 35.548 227.035 35.548C225.84 35.548 224.87 35.996 224.123 36.892C223.395 37.7693 223.031 38.8893 223.031 40.252C223.031 41.652 223.395 42.8 224.123 43.696C224.87 44.5733 225.84 45.012 227.035 45.012C228.23 45.012 229.191 44.5733 229.919 43.696C230.647 42.8 231.011 41.652 231.011 40.252ZM238.761 38.88H246.125C246.087 37.872 245.751 37.0507 245.117 36.416C244.482 35.7627 243.586 35.436 242.429 35.436C241.383 35.436 240.525 35.7813 239.853 36.472C239.181 37.144 238.817 37.9467 238.761 38.88ZM246.517 42.38L248.785 43.164C248.393 44.4147 247.665 45.4413 246.601 46.244C245.537 47.028 244.249 47.42 242.737 47.42C240.851 47.42 239.246 46.776 237.921 45.488C236.614 44.1813 235.961 42.4267 235.961 40.224C235.961 38.1707 236.595 36.472 237.865 35.128C239.134 33.784 240.646 33.112 242.401 33.112C244.435 33.112 246.022 33.756 247.161 35.044C248.299 36.3133 248.869 38.0213 248.869 40.168C248.869 40.504 248.85 40.784 248.812 41.008H238.677C238.695 42.2027 239.087 43.1827 239.853 43.948C240.637 44.7133 241.598 45.096 242.737 45.096C244.659 45.096 245.919 44.1907 246.517 42.38Z" fill="#B8B8C0"/>
<path d="M313.693 29.125H311.386C311.229 29.125 311.082 29.2019 310.989 29.328L302.25 41.3743L293.511 29.328C293.418 29.2019 293.271 29.125 293.114 29.125H290.807C290.607 29.125 290.49 29.3526 290.607 29.5157L301.453 44.4689C301.847 45.0104 302.653 45.0104 303.044 44.4689L313.89 29.5157C314.01 29.3526 313.893 29.125 313.693 29.125Z" fill="#8C8C8C"/>
</svg>
