<svg width="160" height="32" viewBox="0 0 160 32" fill="none" xmlns="http://www.w3.org/2000/svg">
<path d="M47.2496 25L40.6736 7.816H42.5216L47.1056 19.768C47.4656 20.704 47.8016 21.64 48.1856 22.84C48.5456 21.592 48.9776 20.392 49.2416 19.744L53.8016 7.816H55.5776L49.0496 25H47.2496ZM58.3526 10.192C57.6806 10.192 57.1286 9.64 57.1286 8.968C57.1286 8.296 57.6806 7.72 58.3526 7.72C59.0246 7.72 59.6006 8.296 59.6006 8.968C59.6006 9.64 59.0246 10.192 58.3526 10.192ZM57.5366 25V13.384H59.1926V25H57.5366ZM64.086 25H62.646V7.504H64.302V15.64C65.118 13.936 66.702 13.072 68.67 13.072C72.054 13.072 74.022 15.712 74.022 19.216C74.022 22.696 72.006 25.288 68.622 25.288C66.678 25.288 65.07 24.424 64.254 22.624L64.086 25ZM64.326 19.168C64.326 21.856 65.814 23.776 68.358 23.776C70.878 23.776 72.342 21.856 72.342 19.168C72.342 16.504 70.878 14.56 68.358 14.56C65.814 14.56 64.326 16.504 64.326 19.168ZM81.5336 25.288C78.1256 25.288 75.8456 22.84 75.8456 19.192C75.8456 15.568 78.1016 13.072 81.4136 13.072C84.5576 13.072 86.6936 15.304 86.6936 18.592V19.408H77.4536C77.5736 22.24 79.0616 23.872 81.5576 23.872C83.4536 23.872 84.6776 23.056 85.1096 21.52H86.6936C86.0696 23.968 84.2696 25.288 81.5336 25.288ZM81.4136 14.488C79.2296 14.488 77.7896 15.928 77.5016 18.208H85.0376C85.0376 15.976 83.5976 14.488 81.4136 14.488ZM88.6693 12.28C88.6693 9.4 90.9733 7.504 94.4293 7.504C97.5253 7.504 99.5653 9.232 99.8293 12.112H98.0773C97.8853 10.168 96.5653 9.064 94.4053 9.064C91.9813 9.064 90.3973 10.312 90.3973 12.256C90.3973 13.768 91.2853 14.728 93.0853 15.184L96.0373 15.904C98.7253 16.552 100.117 18.088 100.117 20.416C100.117 23.392 97.8133 25.288 94.2613 25.288C90.9253 25.288 88.6693 23.536 88.4533 20.728H90.2293C90.3253 22.528 91.9093 23.704 94.2613 23.704C96.7813 23.704 98.3893 22.48 98.3893 20.512C98.3893 18.976 97.5253 17.968 95.6773 17.536L92.7733 16.816C90.0853 16.168 88.6693 14.632 88.6693 12.28ZM105.529 25H103.897V14.776H101.569V13.384H103.897V9.712H105.529V13.384H107.857V14.776H105.529V25ZM116.085 13.24V14.728H115.173C113.037 14.728 111.669 16.168 111.669 18.376V25H110.013V13.384H111.573L111.693 15.184C112.149 13.936 113.373 13.12 115.005 13.12C115.365 13.12 115.677 13.144 116.085 13.24ZM119.103 10.192C118.431 10.192 117.879 9.64 117.879 8.968C117.879 8.296 118.431 7.72 119.103 7.72C119.775 7.72 120.351 8.296 120.351 8.968C120.351 9.64 119.775 10.192 119.103 10.192ZM118.287 25V13.384H119.943V25H118.287ZM125.052 25H123.396V13.384H124.836L125.076 15.4C125.844 13.912 127.38 13.072 129.06 13.072C132.252 13.072 133.572 14.968 133.572 17.896V25H131.916V18.256C131.916 15.544 130.692 14.584 128.772 14.584C126.396 14.584 125.052 16.312 125.052 18.928V25ZM136.081 18.856C136.081 15.688 138.121 13.072 141.529 13.072C143.545 13.072 145.081 14.008 145.825 15.712L145.993 13.384H147.433V24.64C147.433 28.096 145.225 30.352 141.817 30.352C138.841 30.352 136.753 28.672 136.297 25.864H137.953C138.313 27.736 139.753 28.84 141.841 28.84C144.217 28.84 145.801 27.232 145.801 24.808V22.048C145.009 23.68 143.401 24.64 141.409 24.64C138.097 24.64 136.081 22.024 136.081 18.856ZM137.737 18.832C137.737 21.208 139.201 23.152 141.649 23.152C144.169 23.152 145.657 21.328 145.657 18.832C145.657 16.36 144.217 14.536 141.673 14.536C139.177 14.536 137.737 16.48 137.737 18.832ZM149.904 21.736H151.488C151.488 23.08 152.496 23.92 154.128 23.92C155.928 23.92 156.984 23.152 156.984 21.904C156.984 20.944 156.504 20.392 155.136 20.056L153.144 19.552C151.128 19.048 150.144 17.992 150.144 16.408C150.144 14.368 151.848 13.072 154.344 13.072C156.792 13.072 158.376 14.416 158.448 16.576H156.84C156.792 15.232 155.856 14.44 154.296 14.44C152.664 14.44 151.752 15.136 151.752 16.384C151.752 17.272 152.376 17.896 153.648 18.208L155.64 18.712C157.656 19.216 158.568 20.152 158.568 21.832C158.568 23.92 156.792 25.288 154.152 25.288C151.536 25.288 149.904 23.896 149.904 21.736Z" fill="#121212"/>
<path fill-rule="evenodd" clip-rule="evenodd" d="M14.1497 15.7262C13.7657 23.0669 7.59189 28.9146 0 29V1C7.59189 1.08547 13.7657 6.9331 14.1497 14.2738C14.5287 7.02987 20.5459 1.2399 28 1.0064V28.9937C20.5459 28.7602 14.5287 22.9702 14.1497 15.7262Z" fill="#FF6428"/>
</svg>
