<svg width="536" height="152" viewBox="0 0 536 152" fill="none" xmlns="http://www.w3.org/2000/svg">
<path d="M68.9078 60H61.4598L76.2438 19.064H83.5798L98.3638 60H90.8038L87.4998 50.536H72.2118L68.9078 60ZM78.9878 31.272L74.3398 44.488H85.4278L80.7238 31.272C80.3878 30.208 79.9958 28.976 79.8838 28.136C79.7158 28.92 79.3798 30.152 78.9878 31.272ZM99.6071 46.112C99.6071 37.544 105.263 31.496 113.439 31.496C120.999 31.496 126.151 35.696 126.879 42.36H120.047C119.263 39.224 116.967 37.6 113.719 37.6C109.351 37.6 106.439 40.904 106.439 46.112C106.439 51.32 109.127 54.568 113.495 54.568C116.911 54.568 119.319 52.888 120.047 49.864H126.935C126.095 56.304 120.719 60.728 113.495 60.728C105.095 60.728 99.6071 54.904 99.6071 46.112ZM141.428 60H134.596V38.048H129.276V32.336H134.596V23.712H141.428V32.336H146.804V38.048H141.428V60ZM154.467 26.792C152.115 26.792 150.267 24.944 150.267 22.648C150.267 20.352 152.115 18.56 154.467 18.56C156.707 18.56 158.555 20.352 158.555 22.648C158.555 24.944 156.707 26.792 154.467 26.792ZM151.051 60V32.336H157.883V60H151.051ZM172.782 60L161.806 32.336H169.086L173.902 45.048C175.078 48.352 176.03 51.208 176.366 52.72C176.758 50.984 177.766 48.072 178.942 45.048L183.982 32.336H191.038L179.502 60H172.782ZM205.974 60.728C197.742 60.728 191.974 54.736 191.974 46.168C191.974 37.488 197.63 31.496 205.75 31.496C214.038 31.496 219.302 37.04 219.302 45.664V47.736L198.47 47.792C198.974 52.664 201.55 55.128 206.086 55.128C209.838 55.128 212.302 53.672 213.086 51.04H219.414C218.238 57.088 213.198 60.728 205.974 60.728ZM205.806 37.096C201.774 37.096 199.31 39.28 198.638 43.424H212.526C212.526 39.616 209.894 37.096 205.806 37.096ZM257.056 45.888H248.04V60H240.872V19.064H257.056C265.288 19.064 270.608 24.44 270.608 32.448C270.608 40.344 265.232 45.888 257.056 45.888ZM255.656 25.448H248.04V39.504H255.544C260.472 39.504 263.104 36.872 263.104 32.392C263.104 27.912 260.416 25.448 255.656 25.448ZM292.99 32.224V38.552H290.47C285.542 38.552 282.462 41.184 282.462 46.56V60H275.63V32.392H282.07L282.462 36.424C283.638 33.68 286.27 31.832 289.966 31.832C290.918 31.832 291.87 31.944 292.99 32.224ZM309.06 60.728C300.828 60.728 295.06 54.736 295.06 46.168C295.06 37.488 300.716 31.496 308.836 31.496C317.124 31.496 322.388 37.04 322.388 45.664V47.736L301.556 47.792C302.06 52.664 304.636 55.128 309.172 55.128C312.924 55.128 315.388 53.672 316.172 51.04H322.5C321.324 57.088 316.284 60.728 309.06 60.728ZM308.892 37.096C304.86 37.096 302.396 39.28 301.724 43.424H315.612C315.612 39.616 312.98 37.096 308.892 37.096ZM326.232 46.112C326.232 37.544 331.888 31.496 340.064 31.496C347.624 31.496 352.776 35.696 353.504 42.36H346.672C345.888 39.224 343.592 37.6 340.344 37.6C335.976 37.6 333.064 40.904 333.064 46.112C333.064 51.32 335.752 54.568 340.12 54.568C343.536 54.568 345.944 52.888 346.672 49.864H353.56C352.72 56.304 347.344 60.728 340.12 60.728C331.72 60.728 326.232 54.904 326.232 46.112ZM362.061 26.792C359.709 26.792 357.861 24.944 357.861 22.648C357.861 20.352 359.709 18.56 362.061 18.56C364.301 18.56 366.149 20.352 366.149 22.648C366.149 24.944 364.301 26.792 362.061 26.792ZM358.645 60V32.336H365.477V60H358.645ZM370.408 51.6H376.904C376.96 54.008 378.752 55.52 381.888 55.52C385.08 55.52 386.816 54.232 386.816 52.216C386.816 50.816 386.088 49.808 383.624 49.248L378.64 48.072C373.656 46.952 371.248 44.6 371.248 40.176C371.248 34.744 375.84 31.496 382.224 31.496C388.44 31.496 392.64 35.08 392.696 40.456H386.2C386.144 38.104 384.576 36.592 381.944 36.592C379.256 36.592 377.688 37.824 377.688 39.896C377.688 41.464 378.92 42.472 381.272 43.032L386.256 44.208C390.904 45.272 393.256 47.4 393.256 51.656C393.256 57.256 388.496 60.728 381.664 60.728C374.776 60.728 370.408 57.032 370.408 51.6ZM401.874 26.792C399.522 26.792 397.674 24.944 397.674 22.648C397.674 20.352 399.522 18.56 401.874 18.56C404.114 18.56 405.962 20.352 405.962 22.648C405.962 24.944 404.114 26.792 401.874 26.792ZM398.458 60V32.336H405.29V60H398.458ZM410.724 46.112C410.724 37.488 416.94 31.552 425.508 31.552C434.076 31.552 440.292 37.488 440.292 46.112C440.292 54.736 434.076 60.672 425.508 60.672C416.94 60.672 410.724 54.736 410.724 46.112ZM417.556 46.112C417.556 51.152 420.804 54.568 425.508 54.568C430.212 54.568 433.46 51.152 433.46 46.112C433.46 41.072 430.212 37.656 425.508 37.656C420.804 37.656 417.556 41.072 417.556 46.112ZM452.54 60H445.708V32.336H452.036L452.596 35.92C454.332 33.12 457.692 31.496 461.444 31.496C468.388 31.496 471.972 35.808 471.972 42.976V60H465.14V44.6C465.14 39.952 462.844 37.712 459.316 37.712C455.116 37.712 452.54 40.624 452.54 45.104V60ZM125.974 136V95.064H142.27C150.334 95.064 155.262 99.264 155.262 106.096C155.262 110.632 153.246 113.88 149.382 115.504C153.694 116.904 155.878 120.152 155.878 124.912C155.878 131.912 151.005 136 142.55 136H125.974ZM141.654 101.392H133.142V112.536H141.822C145.742 112.536 147.926 110.464 147.926 106.824C147.926 103.296 145.686 101.392 141.654 101.392ZM142.27 118.584H133.142V129.672H142.27C146.302 129.672 148.542 127.712 148.542 124.016C148.542 120.544 146.246 118.584 142.27 118.584ZM169.674 136.728C163.794 136.728 160.21 133.312 160.21 128.104C160.21 123.008 163.906 119.816 170.458 119.312L178.746 118.696V118.08C178.746 114.328 176.506 112.816 173.034 112.816C169.002 112.816 166.762 114.496 166.762 117.408H160.938C160.938 111.416 165.866 107.496 173.37 107.496C180.818 107.496 185.41 111.528 185.41 119.2V136H179.418L178.914 131.912C177.738 134.768 173.986 136.728 169.674 136.728ZM171.914 131.576C176.114 131.576 178.802 129.056 178.802 124.8V123.344L173.034 123.792C168.778 124.184 167.154 125.584 167.154 127.824C167.154 130.344 168.834 131.576 171.914 131.576ZM189.994 127.6H196.49C196.546 130.008 198.338 131.52 201.474 131.52C204.666 131.52 206.402 130.232 206.402 128.216C206.402 126.816 205.674 125.808 203.21 125.248L198.226 124.072C193.242 122.952 190.834 120.6 190.834 116.176C190.834 110.744 195.426 107.496 201.81 107.496C208.026 107.496 212.226 111.08 212.282 116.456H205.786C205.73 114.104 204.162 112.592 201.53 112.592C198.842 112.592 197.274 113.824 197.274 115.896C197.274 117.464 198.506 118.472 200.858 119.032L205.842 120.208C210.49 121.272 212.842 123.4 212.842 127.656C212.842 133.256 208.082 136.728 201.25 136.728C194.362 136.728 189.994 133.032 189.994 127.6ZM215.916 127.6H222.412C222.468 130.008 224.26 131.52 227.396 131.52C230.588 131.52 232.324 130.232 232.324 128.216C232.324 126.816 231.596 125.808 229.132 125.248L224.148 124.072C219.164 122.952 216.756 120.6 216.756 116.176C216.756 110.744 221.348 107.496 227.732 107.496C233.948 107.496 238.148 111.08 238.204 116.456H231.708C231.652 114.104 230.084 112.592 227.452 112.592C224.764 112.592 223.196 113.824 223.196 115.896C223.196 117.464 224.428 118.472 226.78 119.032L231.764 120.208C236.412 121.272 238.764 123.4 238.764 127.656C238.764 133.256 234.004 136.728 227.172 136.728C220.284 136.728 215.916 133.032 215.916 127.6ZM253.732 118.08C246.9 118.08 241.748 112.928 241.748 106.208C241.748 99.488 246.956 94.336 253.732 94.336C260.508 94.336 265.604 99.432 265.604 106.208C265.604 112.984 260.508 118.08 253.732 118.08ZM253.732 115.952C259.276 115.952 263.364 111.808 263.364 106.208C263.364 100.608 259.276 96.464 253.732 96.464C248.132 96.464 244.044 100.608 244.044 106.208C244.044 111.808 248.132 115.952 253.732 115.952ZM251.212 112.704H248.916V99.32H254.292C257.26 99.32 259.22 100.832 259.22 103.408C259.22 105.144 258.268 106.656 256.532 107.328L259.444 112.704H256.924L254.404 107.888H251.212V112.704ZM256.812 103.576C256.812 102.176 255.916 101.504 254.236 101.504H251.212V105.816H254.236C255.86 105.816 256.812 104.976 256.812 103.576ZM303.65 121.888H294.634V136H287.466V95.064H303.65C311.882 95.064 317.202 100.44 317.202 108.448C317.202 116.344 311.826 121.888 303.65 121.888ZM302.25 101.448H294.634V115.504H302.138C307.066 115.504 309.698 112.872 309.698 108.392C309.698 103.912 307.01 101.448 302.25 101.448ZM330.399 136H323.231V95.064H330.399V111.976H348.543V95.064H355.711V136H348.543V118.64H330.399V136ZM391.368 136L375.912 95.064H383.528L392.488 118.64C393.384 121.104 394.168 123.512 395.064 126.816C396.072 123.232 396.912 120.712 397.696 118.64L406.544 95.064H413.992L398.76 136H391.368Z" fill="#121212"/>
</svg>
