<svg width="536" height="239" viewBox="0 0 536 239" fill="none" xmlns="http://www.w3.org/2000/svg">
<path d="M21.3909 124L17.9509 112.432H19.5829L21.6949 119.504C21.8549 120.112 22.0149 120.72 22.1749 121.6C22.3669 120.672 22.5429 120.112 22.7189 119.504L24.9109 112.432H26.6069L28.7829 119.504C28.9749 120.128 29.1349 120.736 29.3109 121.6C29.5029 120.624 29.6629 120.032 29.8229 119.52L31.9509 112.432H33.5509L30.0629 124H28.5589L25.7589 114.848L22.9269 124H21.3909ZM35.6131 114.32C35.0691 114.32 34.6211 113.872 34.6211 113.328C34.6211 112.768 35.0691 112.336 35.6131 112.336C36.1571 112.336 36.6051 112.768 36.6051 113.328C36.6051 113.872 36.1571 114.32 35.6131 114.32ZM34.8771 124V116.176H36.3811V124H34.8771ZM40.7726 124H39.2686V117.44H37.7326V116.176H39.2686V113.728H40.7726V116.176H42.3086V117.44H40.7726V124ZM45.1623 123.984H43.6583V112.224H45.1623V117.376C45.6583 116.528 46.6023 115.952 47.8183 115.952C49.8183 115.952 50.7783 117.216 50.7783 119.216V124H49.2743V119.552C49.2743 117.968 48.5223 117.328 47.4023 117.328C45.9463 117.328 45.1623 118.384 45.1623 119.728V123.984ZM59.5244 124.192C57.8444 124.192 56.8524 123.248 56.8524 121.824C56.8524 120.384 57.9244 119.488 59.7644 119.344L62.2284 119.152V118.928C62.2284 117.616 61.4444 117.152 60.3884 117.152C59.1244 117.152 58.4044 117.712 58.4044 118.656H57.0924C57.0924 117.024 58.4364 115.952 60.4524 115.952C62.3884 115.952 63.7004 116.976 63.7004 119.088V124H62.4204L62.2604 122.736C61.8604 123.632 60.7884 124.192 59.5244 124.192ZM59.9564 123.024C61.3804 123.024 62.2444 122.096 62.2444 120.624V120.208L60.2444 120.368C58.9164 120.496 58.3724 121.008 58.3724 121.776C58.3724 122.608 58.9804 123.024 59.9564 123.024ZM71.6943 124H70.1903V112.224H71.6943V124ZM77.2843 124.192C74.9803 124.192 73.3963 122.528 73.3963 120.096C73.3963 117.648 74.9483 115.952 77.2203 115.952C79.4443 115.952 80.9003 117.488 80.9003 119.808V120.368L74.8523 120.384C74.9643 122.032 75.8283 122.944 77.3163 122.944C78.4843 122.944 79.2523 122.464 79.5083 121.568H80.9163C80.5323 123.248 79.2203 124.192 77.2843 124.192ZM77.2203 117.216C75.9083 117.216 75.0763 118 74.8843 119.376H79.3963C79.3963 118.08 78.5483 117.216 77.2203 117.216ZM82.0842 119.888C82.0842 117.68 83.5082 115.952 85.7802 115.952C87.0442 115.952 88.0202 116.528 88.5162 117.504L88.6282 116.176H89.9722V123.68C89.9722 126.144 88.4522 127.712 86.0522 127.712C83.9242 127.712 82.4682 126.512 82.1802 124.528H83.6842C83.8762 125.68 84.7402 126.352 86.0522 126.352C87.5242 126.352 88.4842 125.392 88.4842 123.904V122.336C87.9722 123.248 86.9482 123.792 85.7162 123.792C83.4922 123.792 82.0842 122.08 82.0842 119.888ZM83.5882 119.856C83.5882 121.328 84.5002 122.48 85.9722 122.48C87.4922 122.48 88.4202 121.392 88.4202 119.856C88.4202 118.352 87.5242 117.264 85.9882 117.264C84.4842 117.264 83.5882 118.416 83.5882 119.856ZM94.4307 124.192C92.7507 124.192 91.7587 123.248 91.7587 121.824C91.7587 120.384 92.8307 119.488 94.6707 119.344L97.1347 119.152V118.928C97.1347 117.616 96.3507 117.152 95.2947 117.152C94.0307 117.152 93.3107 117.712 93.3107 118.656H91.9987C91.9987 117.024 93.3427 115.952 95.3587 115.952C97.2947 115.952 98.6067 116.976 98.6067 119.088V124H97.3267L97.1667 122.736C96.7667 123.632 95.6947 124.192 94.4307 124.192ZM94.8627 123.024C96.2867 123.024 97.1507 122.096 97.1507 120.624V120.208L95.1507 120.368C93.8227 120.496 93.2787 121.008 93.2787 121.776C93.2787 122.608 93.8867 123.024 94.8627 123.024ZM100.178 120.096C100.178 117.648 101.73 115.952 104.018 115.952C105.986 115.952 107.362 117.072 107.634 118.816H106.13C105.874 117.824 105.074 117.296 104.066 117.296C102.642 117.296 101.666 118.384 101.666 120.08C101.666 121.76 102.578 122.848 104.002 122.848C105.074 122.848 105.874 122.288 106.146 121.36H107.65C107.346 123.056 105.89 124.192 104.002 124.192C101.698 124.192 100.178 122.56 100.178 120.096ZM108.328 127.504V126.272H109.336C110.056 126.272 110.632 126.16 111 125.168L111.272 124.416L108.12 116.176H109.704L111.976 122.48L114.296 116.176H115.848L112.152 125.76C111.624 127.104 110.84 127.664 109.64 127.664C109.144 127.664 108.728 127.6 108.328 127.504ZM124.56 124.192C122.288 124.192 120.912 122.496 120.912 120.112C120.912 117.712 122.304 115.952 124.624 115.952C125.824 115.952 126.832 116.48 127.36 117.44V112.224H128.848V124H127.504L127.376 122.576C126.864 123.648 125.808 124.192 124.56 124.192ZM124.864 122.832C126.4 122.832 127.344 121.696 127.344 120.064C127.344 118.464 126.4 117.312 124.864 117.312C123.328 117.312 122.432 118.464 122.432 120.064C122.432 121.68 123.328 122.832 124.864 122.832ZM133.306 124.192C131.626 124.192 130.634 123.248 130.634 121.824C130.634 120.384 131.706 119.488 133.546 119.344L136.01 119.152V118.928C136.01 117.616 135.226 117.152 134.17 117.152C132.906 117.152 132.186 117.712 132.186 118.656H130.874C130.874 117.024 132.218 115.952 134.234 115.952C136.17 115.952 137.482 116.976 137.482 119.088V124H136.202L136.042 122.736C135.642 123.632 134.57 124.192 133.306 124.192ZM133.738 123.024C135.162 123.024 136.026 122.096 136.026 120.624V120.208L134.026 120.368C132.698 120.496 132.154 121.008 132.154 121.776C132.154 122.608 132.762 123.024 133.738 123.024ZM141.648 124H140.144V117.44H138.608V116.176H140.144V113.728H141.648V116.176H143.184V117.44H141.648V124ZM145.269 114.32C144.725 114.32 144.277 113.872 144.277 113.328C144.277 112.768 144.725 112.336 145.269 112.336C145.813 112.336 146.261 112.768 146.261 113.328C146.261 113.872 145.813 114.32 145.269 114.32ZM144.533 124V116.176H146.037V124H144.533ZM149.725 124H148.221V116.176H149.581L149.741 117.376C150.237 116.48 151.229 115.952 152.333 115.952C154.397 115.952 155.341 117.216 155.341 119.216V124H153.837V119.552C153.837 117.968 153.101 117.328 151.949 117.328C150.541 117.328 149.725 118.336 149.725 119.856V124ZM156.928 119.888C156.928 117.68 158.352 115.952 160.624 115.952C161.888 115.952 162.864 116.528 163.36 117.504L163.472 116.176H164.816V123.68C164.816 126.144 163.296 127.712 160.896 127.712C158.768 127.712 157.312 126.512 157.024 124.528H158.528C158.72 125.68 159.584 126.352 160.896 126.352C162.368 126.352 163.328 125.392 163.328 123.904V122.336C162.816 123.248 161.792 123.792 160.56 123.792C158.336 123.792 156.928 122.08 156.928 119.888ZM158.432 119.856C158.432 121.328 159.344 122.48 160.816 122.48C162.336 122.48 163.264 121.392 163.264 119.856C163.264 118.352 162.368 117.264 160.832 117.264C159.328 117.264 158.432 118.416 158.432 119.856ZM172.721 124H171.361V112.224H172.865V117.52C173.377 116.496 174.433 115.952 175.713 115.952C177.953 115.952 179.297 117.712 179.297 120.128C179.297 122.496 177.889 124.192 175.617 124.192C174.385 124.192 173.345 123.648 172.833 122.576L172.721 124ZM172.881 120.064C172.881 121.696 173.809 122.832 175.345 122.832C176.881 122.832 177.793 121.68 177.793 120.064C177.793 118.464 176.881 117.312 175.345 117.312C173.809 117.312 172.881 118.464 172.881 120.064ZM183.243 124.192C181.563 124.192 180.571 123.248 180.571 121.824C180.571 120.384 181.643 119.488 183.483 119.344L185.947 119.152V118.928C185.947 117.616 185.163 117.152 184.107 117.152C182.843 117.152 182.123 117.712 182.123 118.656H180.811C180.811 117.024 182.155 115.952 184.171 115.952C186.107 115.952 187.419 116.976 187.419 119.088V124H186.139L185.979 122.736C185.579 123.632 184.507 124.192 183.243 124.192ZM183.675 123.024C185.099 123.024 185.963 122.096 185.963 120.624V120.208L183.963 120.368C182.635 120.496 182.091 121.008 182.091 121.776C182.091 122.608 182.699 123.024 183.675 123.024ZM188.99 120.096C188.99 117.648 190.542 115.952 192.83 115.952C194.798 115.952 196.174 117.072 196.446 118.816H194.942C194.686 117.824 193.886 117.296 192.878 117.296C191.454 117.296 190.478 118.384 190.478 120.08C190.478 121.76 191.39 122.848 192.814 122.848C193.886 122.848 194.686 122.288 194.958 121.36H196.462C196.158 123.056 194.702 124.192 192.814 124.192C190.51 124.192 188.99 122.56 188.99 120.096ZM199.585 124H198.081V112.224H199.585V119.856L203.057 116.176H204.945L201.953 119.296L204.929 124H203.201L200.913 120.384L199.585 121.776V124ZM212.757 124H211.253V117.44H209.717V116.176H211.253V113.728H212.757V116.176H214.293V117.44H212.757V124ZM215.053 120.08C215.053 117.664 216.781 115.968 219.133 115.968C221.469 115.968 223.197 117.664 223.197 120.08C223.197 122.496 221.469 124.192 219.133 124.192C216.781 124.192 215.053 122.496 215.053 120.08ZM216.573 120.08C216.573 121.712 217.613 122.848 219.133 122.848C220.637 122.848 221.693 121.712 221.693 120.08C221.693 118.448 220.637 117.312 219.133 117.312C217.613 117.312 216.573 118.448 216.573 120.08ZM231.444 124H229.94V117.44H228.404V116.176H229.94V113.728H231.444V116.176H232.98V117.44H231.444V124ZM235.834 123.984H234.33V112.224H235.834V117.376C236.33 116.528 237.274 115.952 238.49 115.952C240.49 115.952 241.45 117.216 241.45 119.216V124H239.946V119.552C239.946 117.968 239.194 117.328 238.074 117.328C236.618 117.328 235.834 118.384 235.834 119.728V123.984ZM246.909 124.192C244.605 124.192 243.021 122.528 243.021 120.096C243.021 117.648 244.573 115.952 246.845 115.952C249.069 115.952 250.525 117.488 250.525 119.808V120.368L244.477 120.384C244.589 122.032 245.453 122.944 246.941 122.944C248.109 122.944 248.877 122.464 249.133 121.568H250.541C250.157 123.248 248.845 124.192 246.909 124.192ZM246.845 117.216C245.533 117.216 244.701 118 244.509 119.376H249.021C249.021 118.08 248.173 117.216 246.845 117.216ZM258.484 113.84H256.052V112.432H259.988V124H258.484V113.84ZM268.84 120.336L266.136 124H264.312L267.208 120.16C266.808 120.32 266.392 120.4 265.992 120.4C263.592 120.4 261.976 118.672 261.976 116.368C261.976 113.968 263.8 112.224 266.184 112.224C268.584 112.224 270.44 114.032 270.44 116.384C270.44 117.744 270.024 118.72 268.84 120.336ZM268.84 116.368C268.84 114.784 267.752 113.632 266.184 113.632C264.648 113.632 263.56 114.784 263.56 116.368C263.56 117.952 264.648 119.072 266.184 119.072C267.752 119.072 268.84 117.952 268.84 116.368ZM275.711 124.192C273.343 124.192 271.807 122.688 271.807 120.384H273.359C273.359 121.872 274.271 122.784 275.743 122.784C277.311 122.784 278.319 121.744 278.319 120.176C278.319 118.688 277.375 117.584 275.759 117.584C274.783 117.584 273.887 118.048 273.359 118.704L272.031 118.368L273.439 112.432H279.231V113.872H274.575L273.807 116.944C274.415 116.48 275.183 116.24 276.047 116.24C278.399 116.24 279.919 117.888 279.919 120.112C279.919 122.512 278.207 124.192 275.711 124.192ZM281.276 118.224C281.276 114.64 283.132 112.208 286.044 112.208C288.94 112.208 290.796 114.64 290.796 118.224C290.796 121.824 289.02 124.208 286.044 124.208C283.052 124.208 281.276 121.824 281.276 118.224ZM282.828 118.224C282.828 121.072 284.012 122.8 286.044 122.8C288.076 122.8 289.244 121.072 289.244 118.224C289.244 115.344 288.076 113.616 286.044 113.616C284.012 113.616 282.828 115.344 282.828 118.224ZM292.034 121.728H293.474C293.474 122.528 294.082 123.008 295.074 123.008C296.13 123.008 296.738 122.576 296.738 121.856C296.738 121.328 296.482 121.008 295.666 120.8L294.29 120.48C292.898 120.144 292.242 119.456 292.242 118.304C292.242 116.864 293.458 115.952 295.186 115.952C296.898 115.952 298.018 116.912 298.05 118.4H296.61C296.578 117.616 296.05 117.12 295.138 117.12C294.194 117.12 293.666 117.536 293.666 118.256C293.666 118.784 294.05 119.136 294.818 119.328L296.194 119.664C297.522 119.984 298.178 120.592 298.178 121.76C298.178 123.248 296.898 124.192 295.042 124.192C293.202 124.192 292.034 123.216 292.034 121.728ZM302.008 123.376C302.008 124.528 301.144 125.488 300.008 125.632V124.96C300.664 124.848 301.128 124.416 301.128 123.92C301.016 123.984 300.888 124.016 300.696 124.016C300.168 124.016 299.72 123.632 299.72 123.04C299.72 122.4 300.152 121.936 300.792 121.936C301.464 121.936 302.008 122.496 302.008 123.376ZM310.373 112.432V124H308.805V112.432H310.373ZM314.175 124H312.815V112.224H314.319V117.52C314.831 116.496 315.887 115.952 317.167 115.952C319.407 115.952 320.751 117.712 320.751 120.128C320.751 122.496 319.343 124.192 317.071 124.192C315.839 124.192 314.799 123.648 314.287 122.576L314.175 124ZM314.335 120.064C314.335 121.696 315.263 122.832 316.799 122.832C318.335 122.832 319.247 121.68 319.247 120.064C319.247 118.464 318.335 117.312 316.799 117.312C315.263 117.312 314.335 118.464 314.335 120.064ZM324.696 124.192C323.016 124.192 322.024 123.248 322.024 121.824C322.024 120.384 323.096 119.488 324.936 119.344L327.4 119.152V118.928C327.4 117.616 326.616 117.152 325.56 117.152C324.296 117.152 323.576 117.712 323.576 118.656H322.264C322.264 117.024 323.608 115.952 325.624 115.952C327.56 115.952 328.872 116.976 328.872 119.088V124H327.592L327.432 122.736C327.032 123.632 325.96 124.192 324.696 124.192ZM325.128 123.024C326.552 123.024 327.416 122.096 327.416 120.624V120.208L325.416 120.368C324.088 120.496 323.544 121.008 323.544 121.776C323.544 122.608 324.152 123.024 325.128 123.024ZM332.459 124H330.955V116.176H332.315L332.475 117.376C332.971 116.48 333.963 115.952 335.067 115.952C337.131 115.952 338.075 117.216 338.075 119.216V124H336.571V119.552C336.571 117.968 335.835 117.328 334.683 117.328C333.275 117.328 332.459 118.336 332.459 119.856V124ZM343.534 124.192C341.23 124.192 339.646 122.528 339.646 120.096C339.646 117.648 341.198 115.952 343.47 115.952C345.694 115.952 347.15 117.488 347.15 119.808V120.368L341.102 120.384C341.214 122.032 342.078 122.944 343.566 122.944C344.734 122.944 345.502 122.464 345.758 121.568H347.166C346.782 123.248 345.47 124.192 343.534 124.192ZM343.47 117.216C342.158 117.216 341.326 118 341.134 119.376H345.646C345.646 118.08 344.798 117.216 343.47 117.216ZM354.29 124H348.194V122.784L352.418 117.44H348.194V116.176H354.29V117.408L350.034 122.736H354.29V124ZM361.721 124H360.361V112.224H361.865V117.52C362.377 116.496 363.433 115.952 364.713 115.952C366.953 115.952 368.297 117.712 368.297 120.128C368.297 122.496 366.889 124.192 364.617 124.192C363.385 124.192 362.345 123.648 361.833 122.576L361.721 124ZM361.881 120.064C361.881 121.696 362.809 122.832 364.345 122.832C365.881 122.832 366.793 121.68 366.793 120.064C366.793 118.464 365.881 117.312 364.345 117.312C362.809 117.312 361.881 118.464 361.881 120.064ZM371.491 124H369.987V112.224H371.491V124ZM377.081 124.192C374.777 124.192 373.193 122.528 373.193 120.096C373.193 117.648 374.745 115.952 377.017 115.952C379.241 115.952 380.697 117.488 380.697 119.808V120.368L374.649 120.384C374.761 122.032 375.625 122.944 377.113 122.944C378.281 122.944 379.049 122.464 379.305 121.568H380.713C380.329 123.248 379.017 124.192 377.081 124.192ZM377.017 117.216C375.705 117.216 374.873 118 374.681 119.376H379.193C379.193 118.08 378.345 117.216 377.017 117.216ZM383.881 124H382.377V116.176H383.737L383.897 117.376C384.393 116.48 385.385 115.952 386.489 115.952C388.553 115.952 389.497 117.216 389.497 119.216V124H387.993V119.552C387.993 117.968 387.257 117.328 386.105 117.328C384.697 117.328 383.881 118.336 383.881 119.856V124ZM394.716 124.192C392.444 124.192 391.068 122.496 391.068 120.112C391.068 117.712 392.46 115.952 394.78 115.952C395.98 115.952 396.988 116.48 397.516 117.44V112.224H399.004V124H397.66L397.532 122.576C397.02 123.648 395.964 124.192 394.716 124.192ZM395.02 122.832C396.556 122.832 397.5 121.696 397.5 120.064C397.5 118.464 396.556 117.312 395.02 117.312C393.484 117.312 392.588 118.464 392.588 120.064C392.588 121.68 393.484 122.832 395.02 122.832ZM400.534 121.728H401.974C401.974 122.528 402.582 123.008 403.574 123.008C404.63 123.008 405.238 122.576 405.238 121.856C405.238 121.328 404.982 121.008 404.166 120.8L402.79 120.48C401.398 120.144 400.742 119.456 400.742 118.304C400.742 116.864 401.958 115.952 403.686 115.952C405.398 115.952 406.518 116.912 406.55 118.4H405.11C405.078 117.616 404.55 117.12 403.638 117.12C402.694 117.12 402.166 117.536 402.166 118.256C402.166 118.784 402.55 119.136 403.318 119.328L404.694 119.664C406.022 119.984 406.678 120.592 406.678 121.76C406.678 123.248 405.398 124.192 403.542 124.192C401.702 124.192 400.534 123.216 400.534 121.728ZM416.097 124.192C413.793 124.192 412.209 122.528 412.209 120.096C412.209 117.648 413.761 115.952 416.033 115.952C418.257 115.952 419.713 117.488 419.713 119.808V120.368L413.665 120.384C413.777 122.032 414.641 122.944 416.129 122.944C417.297 122.944 418.065 122.464 418.321 121.568H419.729C419.345 123.248 418.033 124.192 416.097 124.192ZM416.033 117.216C414.721 117.216 413.889 118 413.697 119.376H418.209C418.209 118.08 417.361 117.216 416.033 117.216ZM421.896 124H420.168L422.904 120.128L420.184 116.176H421.928L423.912 119.088L425.848 116.176H427.56L424.84 120.128L427.512 124H425.768L423.816 121.136L421.896 124ZM428.815 127.504V116.176H430.175L430.287 117.584C430.815 116.512 431.871 115.952 433.119 115.952C435.359 115.952 436.751 117.632 436.751 120.032C436.751 122.416 435.439 124.208 433.119 124.208C431.871 124.208 430.831 123.68 430.319 122.72V127.504H428.815ZM430.335 120.096C430.335 121.696 431.263 122.848 432.799 122.848C434.335 122.848 435.247 121.696 435.247 120.096C435.247 118.48 434.335 117.328 432.799 117.328C431.263 117.328 430.335 118.464 430.335 120.096ZM441.784 124.192C439.48 124.192 437.896 122.528 437.896 120.096C437.896 117.648 439.448 115.952 441.72 115.952C443.944 115.952 445.4 117.488 445.4 119.808V120.368L439.352 120.384C439.464 122.032 440.328 122.944 441.816 122.944C442.984 122.944 443.752 122.464 444.008 121.568H445.416C445.032 123.248 443.72 124.192 441.784 124.192ZM441.72 117.216C440.408 117.216 439.576 118 439.384 119.376H443.896C443.896 118.08 443.048 117.216 441.72 117.216ZM451.56 116.112V117.488H450.888C449.464 117.488 448.584 118.352 448.584 119.856V124H447.08V116.192H448.488L448.584 117.376C448.904 116.56 449.688 116.016 450.76 116.016C451.032 116.016 451.256 116.048 451.56 116.112ZM455.491 124H453.987V117.44H452.451V116.176H453.987V113.728H455.491V116.176H457.027V117.44H455.491V124ZM3.52913 142.096C3.52913 139.648 5.08113 137.952 7.36913 137.952C9.33713 137.952 10.7131 139.072 10.9851 140.816H9.48113C9.22513 139.824 8.42513 139.296 7.41713 139.296C5.99313 139.296 5.01713 140.384 5.01713 142.08C5.01713 143.76 5.92913 144.848 7.35313 144.848C8.42513 144.848 9.22513 144.288 9.49713 143.36H11.0011C10.6971 145.056 9.24113 146.192 7.35313 146.192C5.04913 146.192 3.52913 144.56 3.52913 142.096ZM17.068 138.112V139.488H16.396C14.972 139.488 14.092 140.352 14.092 141.856V146H12.588V138.192H13.996L14.092 139.376C14.412 138.56 15.196 138.016 16.268 138.016C16.54 138.016 16.764 138.048 17.068 138.112ZM20.4541 146.192C18.7741 146.192 17.7821 145.248 17.7821 143.824C17.7821 142.384 18.8541 141.488 20.6941 141.344L23.1581 141.152V140.928C23.1581 139.616 22.3741 139.152 21.3181 139.152C20.0541 139.152 19.3341 139.712 19.3341 140.656H18.0221C18.0221 139.024 19.3661 137.952 21.3821 137.952C23.3181 137.952 24.6301 138.976 24.6301 141.088V146H23.3501L23.1901 144.736C22.7901 145.632 21.7181 146.192 20.4541 146.192ZM20.8861 145.024C22.3101 145.024 23.1741 144.096 23.1741 142.624V142.208L21.1741 142.368C19.8461 142.496 19.3021 143.008 19.3021 143.776C19.3021 144.608 19.9101 145.024 20.8861 145.024ZM25.8341 138.176H26.9861V136.928C26.9861 135.008 28.0261 134.224 29.3861 134.224C29.6741 134.224 30.0261 134.24 30.3141 134.288V135.584H29.6421C28.7301 135.584 28.4901 136.08 28.4901 136.928V138.176H32.1541V135.728H33.6581V138.176H35.1941V139.44H33.6581V146H32.1541V139.44H28.4901V146H26.9861V139.44H25.8341V138.176ZM35.9011 143.728H37.3411C37.3411 144.528 37.9491 145.008 38.9411 145.008C39.9971 145.008 40.6051 144.576 40.6051 143.856C40.6051 143.328 40.3491 143.008 39.5331 142.8L38.1571 142.48C36.7651 142.144 36.1091 141.456 36.1091 140.304C36.1091 138.864 37.3251 137.952 39.0531 137.952C40.7651 137.952 41.8851 138.912 41.9171 140.4H40.4771C40.4451 139.616 39.9171 139.12 39.0051 139.12C38.0611 139.12 37.5331 139.536 37.5331 140.256C37.5331 140.784 37.9171 141.136 38.6851 141.328L40.0611 141.664C41.3891 141.984 42.0451 142.592 42.0451 143.76C42.0451 145.248 40.7651 146.192 38.9091 146.192C37.0691 146.192 35.9011 145.216 35.9011 143.728ZM45.217 146H43.713V138.176H45.057L45.201 139.2C45.601 138.464 46.433 137.952 47.537 137.952C48.753 137.952 49.617 138.56 50.017 139.536C50.385 138.56 51.329 137.952 52.545 137.952C54.337 137.952 55.425 139.072 55.425 140.88V146H53.953V141.248C53.953 140.016 53.265 139.312 52.209 139.312C51.073 139.312 50.321 140.112 50.321 141.36V146H48.833V141.232C48.833 140 48.161 139.328 47.105 139.328C45.969 139.328 45.217 140.112 45.217 141.36V146ZM59.7979 146.192C58.1179 146.192 57.1259 145.248 57.1259 143.824C57.1259 142.384 58.1979 141.488 60.0379 141.344L62.5019 141.152V140.928C62.5019 139.616 61.7179 139.152 60.6619 139.152C59.3979 139.152 58.6779 139.712 58.6779 140.656H57.3659C57.3659 139.024 58.7099 137.952 60.7259 137.952C62.6619 137.952 63.9739 138.976 63.9739 141.088V146H62.6939L62.5339 144.736C62.1339 145.632 61.0619 146.192 59.7979 146.192ZM60.2299 145.024C61.6539 145.024 62.5179 144.096 62.5179 142.624V142.208L60.5179 142.368C59.1899 142.496 58.6459 143.008 58.6459 143.776C58.6459 144.608 59.2539 145.024 60.2299 145.024ZM67.5608 146H66.0568V138.176H67.4168L67.5768 139.376C68.0728 138.48 69.0648 137.952 70.1688 137.952C72.2328 137.952 73.1768 139.216 73.1768 141.216V146H71.6728V141.552C71.6728 139.968 70.9368 139.328 69.7848 139.328C68.3768 139.328 67.5608 140.336 67.5608 141.856V146ZM74.5261 143.728H75.9661C75.9661 144.528 76.5741 145.008 77.5661 145.008C78.6221 145.008 79.2301 144.576 79.2301 143.856C79.2301 143.328 78.9741 143.008 78.1581 142.8L76.7821 142.48C75.3901 142.144 74.7341 141.456 74.7341 140.304C74.7341 138.864 75.9501 137.952 77.6781 137.952C79.3901 137.952 80.5101 138.912 80.5421 140.4H79.1021C79.0701 139.616 78.5421 139.12 77.6301 139.12C76.6861 139.12 76.1581 139.536 76.1581 140.256C76.1581 140.784 76.5421 141.136 77.3101 141.328L78.6861 141.664C80.0141 141.984 80.6701 142.592 80.6701 143.76C80.6701 145.248 79.3901 146.192 77.5341 146.192C75.6941 146.192 74.5261 145.216 74.5261 143.728ZM83.842 145.984H82.338V134.224H83.842V139.376C84.338 138.528 85.282 137.952 86.498 137.952C88.498 137.952 89.458 139.216 89.458 141.216V146H87.954V141.552C87.954 139.968 87.202 139.328 86.082 139.328C84.626 139.328 83.842 140.384 83.842 141.728V145.984ZM92.2771 136.32C91.7331 136.32 91.2851 135.872 91.2851 135.328C91.2851 134.768 91.7331 134.336 92.2771 134.336C92.8211 134.336 93.2691 134.768 93.2691 135.328C93.2691 135.872 92.8211 136.32 92.2771 136.32ZM91.5411 146V138.176H93.0451V146H91.5411ZM95.2286 149.504V138.176H96.5886L96.7006 139.584C97.2286 138.512 98.2846 137.952 99.5326 137.952C101.773 137.952 103.165 139.632 103.165 142.032C103.165 144.416 101.853 146.208 99.5326 146.208C98.2846 146.208 97.2446 145.68 96.7326 144.72V149.504H95.2286ZM96.7486 142.096C96.7486 143.696 97.6766 144.848 99.2126 144.848C100.749 144.848 101.661 143.696 101.661 142.096C101.661 140.48 100.749 139.328 99.2126 139.328C97.6766 139.328 96.7486 140.464 96.7486 142.096ZM110.877 146L108.317 138.176H109.869L111.165 142.24C111.341 142.816 111.501 143.408 111.645 144.096C111.773 143.408 111.981 142.752 112.157 142.24L113.469 138.176H115.005L116.301 142.24C116.429 142.624 116.685 143.536 116.813 144.096C116.941 143.472 117.085 142.928 117.309 142.24L118.621 138.176H120.189L117.517 146H116.093L114.733 141.808C114.477 141.024 114.317 140.416 114.237 139.984C114.157 140.368 114.013 140.88 113.725 141.824L112.365 146H110.877ZM122.215 136.32C121.671 136.32 121.223 135.872 121.223 135.328C121.223 134.768 121.671 134.336 122.215 134.336C122.759 134.336 123.207 134.768 123.207 135.328C123.207 135.872 122.759 136.32 122.215 136.32ZM121.479 146V138.176H122.983V146H121.479ZM127.374 146H125.87V139.44H124.334V138.176H125.87V135.728H127.374V138.176H128.91V139.44H127.374V146ZM131.764 145.984H130.26V134.224H131.764V139.376C132.26 138.528 133.204 137.952 134.42 137.952C136.42 137.952 137.38 139.216 137.38 141.216V146H135.876V141.552C135.876 139.968 135.124 139.328 134.004 139.328C132.548 139.328 131.764 140.384 131.764 141.728V145.984ZM143.326 142.096C143.326 139.648 144.878 137.952 147.166 137.952C149.134 137.952 150.51 139.072 150.782 140.816H149.278C149.022 139.824 148.222 139.296 147.214 139.296C145.79 139.296 144.814 140.384 144.814 142.08C144.814 143.76 145.726 144.848 147.15 144.848C148.222 144.848 149.022 144.288 149.294 143.36H150.798C150.494 145.056 149.038 146.192 147.15 146.192C144.846 146.192 143.326 144.56 143.326 142.096ZM157.793 138.176H159.281V146H157.937L157.777 144.816C157.329 145.632 156.289 146.192 155.137 146.192C153.313 146.192 152.289 144.96 152.289 143.04V138.176H153.793V142.544C153.793 144.224 154.513 144.864 155.665 144.864C157.041 144.864 157.793 143.984 157.793 142.304V138.176ZM163.671 146H162.167V139.44H160.631V138.176H162.167V135.728H163.671V138.176H165.207V139.44H163.671V146ZM168.905 146H167.401V139.44H165.865V138.176H167.401V135.728H168.905V138.176H170.441V139.44H168.905V146ZM172.527 136.32C171.983 136.32 171.535 135.872 171.535 135.328C171.535 134.768 171.983 134.336 172.527 134.336C173.071 134.336 173.519 134.768 173.519 135.328C173.519 135.872 173.071 136.32 172.527 136.32ZM171.791 146V138.176H173.295V146H171.791ZM176.983 146H175.479V138.176H176.839L176.999 139.376C177.495 138.48 178.487 137.952 179.591 137.952C181.655 137.952 182.599 139.216 182.599 141.216V146H181.095V141.552C181.095 139.968 180.359 139.328 179.207 139.328C177.799 139.328 176.983 140.336 176.983 141.856V146ZM184.186 141.888C184.186 139.68 185.61 137.952 187.882 137.952C189.146 137.952 190.122 138.528 190.618 139.504L190.73 138.176H192.074V145.68C192.074 148.144 190.554 149.712 188.154 149.712C186.026 149.712 184.57 148.512 184.282 146.528H185.786C185.978 147.68 186.842 148.352 188.154 148.352C189.626 148.352 190.586 147.392 190.586 145.904V144.336C190.074 145.248 189.05 145.792 187.818 145.792C185.594 145.792 184.186 144.08 184.186 141.888ZM185.69 141.856C185.69 143.328 186.602 144.48 188.074 144.48C189.594 144.48 190.522 143.392 190.522 141.856C190.522 140.352 189.626 139.264 188.09 139.264C186.586 139.264 185.69 140.416 185.69 141.856ZM194.164 142.432V141.088H199.044V142.432H194.164ZM204.511 146.192C202.207 146.192 200.623 144.528 200.623 142.096C200.623 139.648 202.175 137.952 204.447 137.952C206.671 137.952 208.127 139.488 208.127 141.808V142.368L202.079 142.384C202.191 144.032 203.055 144.944 204.543 144.944C205.711 144.944 206.479 144.464 206.735 143.568H208.143C207.759 145.248 206.447 146.192 204.511 146.192ZM204.447 139.216C203.135 139.216 202.303 140 202.111 141.376H206.623C206.623 140.08 205.775 139.216 204.447 139.216ZM212.943 146.192C210.671 146.192 209.295 144.496 209.295 142.112C209.295 139.712 210.687 137.952 213.007 137.952C214.207 137.952 215.215 138.48 215.743 139.44V134.224H217.231V146H215.887L215.759 144.576C215.247 145.648 214.191 146.192 212.943 146.192ZM213.247 144.832C214.783 144.832 215.727 143.696 215.727 142.064C215.727 140.464 214.783 139.312 213.247 139.312C211.711 139.312 210.815 140.464 210.815 142.064C210.815 143.68 211.711 144.832 213.247 144.832ZM218.905 141.888C218.905 139.68 220.329 137.952 222.601 137.952C223.865 137.952 224.841 138.528 225.337 139.504L225.449 138.176H226.793V145.68C226.793 148.144 225.273 149.712 222.873 149.712C220.745 149.712 219.289 148.512 219.001 146.528H220.505C220.697 147.68 221.561 148.352 222.873 148.352C224.345 148.352 225.305 147.392 225.305 145.904V144.336C224.793 145.248 223.769 145.792 222.536 145.792C220.312 145.792 218.905 144.08 218.905 141.888ZM220.409 141.856C220.409 143.328 221.321 144.48 222.793 144.48C224.313 144.48 225.241 143.392 225.241 141.856C225.241 140.352 224.345 139.264 222.809 139.264C221.305 139.264 220.409 140.416 220.409 141.856ZM232.339 146.192C230.035 146.192 228.451 144.528 228.451 142.096C228.451 139.648 230.003 137.952 232.275 137.952C234.499 137.952 235.955 139.488 235.955 141.808V142.368L229.907 142.384C230.019 144.032 230.883 144.944 232.371 144.944C233.539 144.944 234.307 144.464 234.563 143.568H235.971C235.587 145.248 234.275 146.192 232.339 146.192ZM232.275 139.216C230.963 139.216 230.131 140 229.939 141.376H234.451C234.451 140.08 233.603 139.216 232.275 139.216ZM242.746 136.32C242.202 136.32 241.754 135.872 241.754 135.328C241.754 134.768 242.202 134.336 242.746 134.336C243.29 134.336 243.738 134.768 243.738 135.328C243.738 135.872 243.29 136.32 242.746 136.32ZM242.01 146V138.176H243.514V146H242.01ZM247.201 146H245.697V138.176H247.057L247.217 139.376C247.713 138.48 248.705 137.952 249.809 137.952C251.873 137.952 252.817 139.216 252.817 141.216V146H251.313V141.552C251.313 139.968 250.577 139.328 249.425 139.328C248.017 139.328 247.201 140.336 247.201 141.856V146ZM256.405 146H254.901V138.176H256.261L256.421 139.376C256.917 138.48 257.909 137.952 259.013 137.952C261.077 137.952 262.021 139.216 262.021 141.216V146H260.517V141.552C260.517 139.968 259.781 139.328 258.629 139.328C257.221 139.328 256.405 140.336 256.405 141.856V146ZM263.592 142.08C263.592 139.664 265.32 137.968 267.672 137.968C270.008 137.968 271.736 139.664 271.736 142.08C271.736 144.496 270.008 146.192 267.672 146.192C265.32 146.192 263.592 144.496 263.592 142.08ZM265.112 142.08C265.112 143.712 266.152 144.848 267.672 144.848C269.176 144.848 270.232 143.712 270.232 142.08C270.232 140.448 269.176 139.312 267.672 139.312C266.152 139.312 265.112 140.448 265.112 142.08ZM275.233 146L272.081 138.176H273.681L275.393 142.544C275.665 143.28 275.889 143.936 276.017 144.416C276.145 143.904 276.401 143.232 276.673 142.544L278.417 138.176H279.985L276.721 146H275.233ZM283.11 146.192C281.43 146.192 280.438 145.248 280.438 143.824C280.438 142.384 281.51 141.488 283.35 141.344L285.814 141.152V140.928C285.814 139.616 285.03 139.152 283.974 139.152C282.71 139.152 281.99 139.712 281.99 140.656H280.678C280.678 139.024 282.022 137.952 284.038 137.952C285.974 137.952 287.286 138.976 287.286 141.088V146H286.006L285.846 144.736C285.446 145.632 284.374 146.192 283.11 146.192ZM283.542 145.024C284.966 145.024 285.83 144.096 285.83 142.624V142.208L283.83 142.368C282.502 142.496 281.958 143.008 281.958 143.776C281.958 144.608 282.566 145.024 283.542 145.024ZM291.452 146H289.948V139.44H288.412V138.176H289.948V135.728H291.452V138.176H292.988V139.44H291.452V146ZM295.074 136.32C294.53 136.32 294.082 135.872 294.082 135.328C294.082 134.768 294.53 134.336 295.074 134.336C295.618 134.336 296.066 134.768 296.066 135.328C296.066 135.872 295.618 136.32 295.074 136.32ZM294.338 146V138.176H295.842V146H294.338ZM297.514 142.08C297.514 139.664 299.242 137.968 301.594 137.968C303.93 137.968 305.658 139.664 305.658 142.08C305.658 144.496 303.93 146.192 301.594 146.192C299.242 146.192 297.514 144.496 297.514 142.08ZM299.034 142.08C299.034 143.712 300.074 144.848 301.594 144.848C303.098 144.848 304.154 143.712 304.154 142.08C304.154 140.448 303.098 139.312 301.594 139.312C300.074 139.312 299.034 140.448 299.034 142.08ZM308.826 146H307.322V138.176H308.682L308.842 139.376C309.338 138.48 310.33 137.952 311.434 137.952C313.498 137.952 314.442 139.216 314.442 141.216V146H312.938V141.552C312.938 139.968 312.202 139.328 311.05 139.328C309.642 139.328 308.826 140.336 308.826 141.856V146ZM323.109 146H321.605V139.44H320.069V138.176H321.605V135.728H323.109V138.176H324.645V139.44H323.109V146ZM325.404 142.08C325.404 139.664 327.132 137.968 329.484 137.968C331.82 137.968 333.548 139.664 333.548 142.08C333.548 144.496 331.82 146.192 329.484 146.192C327.132 146.192 325.404 144.496 325.404 142.08ZM326.924 142.08C326.924 143.712 327.964 144.848 329.484 144.848C330.988 144.848 332.044 143.712 332.044 142.08C332.044 140.448 330.988 139.312 329.484 139.312C327.964 139.312 326.924 140.448 326.924 142.08ZM342.724 146.192C340.452 146.192 339.076 144.496 339.076 142.112C339.076 139.712 340.468 137.952 342.788 137.952C343.988 137.952 344.996 138.48 345.524 139.44V134.224H347.012V146H345.668L345.54 144.576C345.028 145.648 343.972 146.192 342.724 146.192ZM343.028 144.832C344.564 144.832 345.508 143.696 345.508 142.064C345.508 140.464 344.564 139.312 343.028 139.312C341.492 139.312 340.596 140.464 340.596 142.064C340.596 143.68 341.492 144.832 343.028 144.832ZM352.558 146.192C350.254 146.192 348.67 144.528 348.67 142.096C348.67 139.648 350.222 137.952 352.494 137.952C354.718 137.952 356.174 139.488 356.174 141.808V142.368L350.126 142.384C350.238 144.032 351.102 144.944 352.59 144.944C353.758 144.944 354.526 144.464 354.782 143.568H356.19C355.806 145.248 354.494 146.192 352.558 146.192ZM352.494 139.216C351.182 139.216 350.35 140 350.158 141.376H354.67C354.67 140.08 353.822 139.216 352.494 139.216ZM359.39 146H357.886V134.224H359.39V146ZM362.34 136.32C361.796 136.32 361.348 135.872 361.348 135.328C361.348 134.768 361.796 134.336 362.34 134.336C362.884 134.336 363.332 134.768 363.332 135.328C363.332 135.872 362.884 136.32 362.34 136.32ZM361.604 146V138.176H363.108V146H361.604ZM367.483 146L364.331 138.176H365.931L367.643 142.544C367.915 143.28 368.139 143.936 368.267 144.416C368.395 143.904 368.651 143.232 368.923 142.544L370.667 138.176H372.235L368.971 146H367.483ZM376.448 146.192C374.144 146.192 372.56 144.528 372.56 142.096C372.56 139.648 374.112 137.952 376.384 137.952C378.608 137.952 380.064 139.488 380.064 141.808V142.368L374.016 142.384C374.128 144.032 374.992 144.944 376.48 144.944C377.648 144.944 378.416 144.464 378.672 143.568H380.08C379.696 145.248 378.384 146.192 376.448 146.192ZM376.384 139.216C375.072 139.216 374.24 140 374.048 141.376H378.56C378.56 140.08 377.712 139.216 376.384 139.216ZM386.224 138.112V139.488H385.552C384.128 139.488 383.248 140.352 383.248 141.856V146H381.744V138.192H383.152L383.248 139.376C383.568 138.56 384.352 138.016 385.424 138.016C385.696 138.016 385.92 138.048 386.224 138.112ZM391.514 141.888C391.514 139.68 392.938 137.952 395.21 137.952C396.474 137.952 397.45 138.528 397.946 139.504L398.058 138.176H399.402V145.68C399.402 148.144 397.882 149.712 395.482 149.712C393.354 149.712 391.898 148.512 391.61 146.528H393.114C393.306 147.68 394.17 148.352 395.482 148.352C396.954 148.352 397.914 147.392 397.914 145.904V144.336C397.402 145.248 396.378 145.792 395.146 145.792C392.922 145.792 391.514 144.08 391.514 141.888ZM393.018 141.856C393.018 143.328 393.93 144.48 395.402 144.48C396.922 144.48 397.85 143.392 397.85 141.856C397.85 140.352 396.954 139.264 395.418 139.264C393.914 139.264 393.018 140.416 393.018 141.856ZM406.98 138.176H408.468V146H407.124L406.964 144.816C406.516 145.632 405.476 146.192 404.324 146.192C402.5 146.192 401.476 144.96 401.476 143.04V138.176H402.98V142.544C402.98 144.224 403.7 144.864 404.852 144.864C406.228 144.864 406.98 143.984 406.98 142.304V138.176ZM411.387 136.32C410.843 136.32 410.395 135.872 410.395 135.328C410.395 134.768 410.843 134.336 411.387 134.336C411.931 134.336 412.379 134.768 412.379 135.328C412.379 135.872 411.931 136.32 411.387 136.32ZM410.651 146V138.176H412.155V146H410.651ZM416.546 146H415.042V139.44H413.506V138.176H415.042V135.728H416.546V138.176H418.082V139.44H416.546V146ZM421.626 146.192C419.946 146.192 418.954 145.248 418.954 143.824C418.954 142.384 420.026 141.488 421.866 141.344L424.33 141.152V140.928C424.33 139.616 423.546 139.152 422.49 139.152C421.226 139.152 420.506 139.712 420.506 140.656H419.194C419.194 139.024 420.538 137.952 422.554 137.952C424.49 137.952 425.802 138.976 425.802 141.088V146H424.522L424.362 144.736C423.962 145.632 422.89 146.192 421.626 146.192ZM422.058 145.024C423.482 145.024 424.346 144.096 424.346 142.624V142.208L422.346 142.368C421.018 142.496 420.474 143.008 420.474 143.776C420.474 144.608 421.082 145.024 422.058 145.024ZM432.365 138.112V139.488H431.693C430.269 139.488 429.389 140.352 429.389 141.856V146H427.885V138.192H429.293L429.389 139.376C429.709 138.56 430.493 138.016 431.565 138.016C431.837 138.016 432.061 138.048 432.365 138.112ZM433.136 143.728H434.576C434.576 144.528 435.184 145.008 436.176 145.008C437.232 145.008 437.84 144.576 437.84 143.856C437.84 143.328 437.584 143.008 436.768 142.8L435.392 142.48C434 142.144 433.344 141.456 433.344 140.304C433.344 138.864 434.56 137.952 436.288 137.952C438 137.952 439.12 138.912 439.152 140.4H437.712C437.68 139.616 437.152 139.12 436.24 139.12C435.296 139.12 434.768 139.536 434.768 140.256C434.768 140.784 435.152 141.136 435.92 141.328L437.296 141.664C438.624 141.984 439.28 142.592 439.28 143.76C439.28 145.248 438 146.192 436.144 146.192C434.304 146.192 433.136 145.216 433.136 143.728ZM447.53 146H446.026V139.44H444.49V138.176H446.026V135.728H447.53V138.176H449.066V139.44H447.53V146ZM451.92 145.984H450.416V134.224H451.92V139.376C452.416 138.528 453.36 137.952 454.576 137.952C456.576 137.952 457.536 139.216 457.536 141.216V146H456.032V141.552C456.032 139.968 455.28 139.328 454.16 139.328C452.704 139.328 451.92 140.384 451.92 141.728V145.984ZM461.907 146.192C460.227 146.192 459.235 145.248 459.235 143.824C459.235 142.384 460.307 141.488 462.147 141.344L464.611 141.152V140.928C464.611 139.616 463.827 139.152 462.771 139.152C461.507 139.152 460.787 139.712 460.787 140.656H459.475C459.475 139.024 460.819 137.952 462.835 137.952C464.771 137.952 466.083 138.976 466.083 141.088V146H464.803L464.643 144.736C464.243 145.632 463.171 146.192 461.907 146.192ZM462.339 145.024C463.763 145.024 464.627 144.096 464.627 142.624V142.208L462.627 142.368C461.299 142.496 460.755 143.008 460.755 143.776C460.755 144.608 461.363 145.024 462.339 145.024ZM470.249 146H468.745V139.44H467.209V138.176H468.745V135.728H470.249V138.176H471.785V139.44H470.249V146ZM14.8787 158.32C14.3347 158.32 13.8867 157.872 13.8867 157.328C13.8867 156.768 14.3347 156.336 14.8787 156.336C15.4227 156.336 15.8707 156.768 15.8707 157.328C15.8707 157.872 15.4227 158.32 14.8787 158.32ZM14.1427 168V160.176H15.6467V168H14.1427ZM19.3342 168H17.8302V160.176H19.1902L19.3502 161.376C19.8462 160.48 20.8382 159.952 21.9422 159.952C24.0062 159.952 24.9502 161.216 24.9502 163.216V168H23.4462V163.552C23.4462 161.968 22.7102 161.328 21.5582 161.328C20.1502 161.328 19.3342 162.336 19.3342 163.856V168ZM26.2996 165.728H27.7396C27.7396 166.528 28.3476 167.008 29.3396 167.008C30.3956 167.008 31.0036 166.576 31.0036 165.856C31.0036 165.328 30.7476 165.008 29.9316 164.8L28.5556 164.48C27.1636 164.144 26.5076 163.456 26.5076 162.304C26.5076 160.864 27.7236 159.952 29.4516 159.952C31.1636 159.952 32.2836 160.912 32.3156 162.4H30.8756C30.8436 161.616 30.3156 161.12 29.4036 161.12C28.4596 161.12 27.9316 161.536 27.9316 162.256C27.9316 162.784 28.3156 163.136 29.0836 163.328L30.4596 163.664C31.7876 163.984 32.4436 164.592 32.4436 165.76C32.4436 167.248 31.1636 168.192 29.3076 168.192C27.4676 168.192 26.2996 167.216 26.2996 165.728ZM34.1114 171.504V160.176H35.4714L35.5834 161.584C36.1114 160.512 37.1674 159.952 38.4154 159.952C40.6554 159.952 42.0474 161.632 42.0474 164.032C42.0474 166.416 40.7354 168.208 38.4154 168.208C37.1674 168.208 36.1274 167.68 35.6154 166.72V171.504H34.1114ZM35.6314 164.096C35.6314 165.696 36.5594 166.848 38.0954 166.848C39.6314 166.848 40.5434 165.696 40.5434 164.096C40.5434 162.48 39.6314 161.328 38.0954 161.328C36.5594 161.328 35.6314 162.464 35.6314 164.096ZM44.4412 158.32C43.8972 158.32 43.4492 157.872 43.4492 157.328C43.4492 156.768 43.8972 156.336 44.4412 156.336C44.9852 156.336 45.4332 156.768 45.4332 157.328C45.4332 157.872 44.9852 158.32 44.4412 158.32ZM43.7052 168V160.176H45.2092V168H43.7052ZM51.8727 160.112V161.488H51.2007C49.7767 161.488 48.8967 162.352 48.8967 163.856V168H47.3927V160.192H48.8007L48.8967 161.376C49.2167 160.56 50.0007 160.016 51.0727 160.016C51.3447 160.016 51.5687 160.048 51.8727 160.112ZM56.3781 168.192C54.0741 168.192 52.4901 166.528 52.4901 164.096C52.4901 161.648 54.0421 159.952 56.3141 159.952C58.5381 159.952 59.9941 161.488 59.9941 163.808V164.368L53.9461 164.384C54.0581 166.032 54.9221 166.944 56.4101 166.944C57.5781 166.944 58.3461 166.464 58.6021 165.568H60.0101C59.6261 167.248 58.3141 168.192 56.3781 168.192ZM56.3141 161.216C55.0021 161.216 54.1701 162 53.9781 163.376H58.4901C58.4901 162.08 57.6421 161.216 56.3141 161.216ZM65.5369 164.096C65.5369 161.648 67.0889 159.952 69.3769 159.952C71.3449 159.952 72.7209 161.072 72.9929 162.816H71.4889C71.2329 161.824 70.4329 161.296 69.4249 161.296C68.0009 161.296 67.0249 162.384 67.0249 164.08C67.0249 165.76 67.9369 166.848 69.3609 166.848C70.4329 166.848 71.2329 166.288 71.5049 165.36H73.0089C72.7049 167.056 71.2489 168.192 69.3609 168.192C67.0569 168.192 65.5369 166.56 65.5369 164.096ZM79.0758 160.112V161.488H78.4038C76.9798 161.488 76.0998 162.352 76.0998 163.856V168H74.5958V160.192H76.0038L76.0998 161.376C76.4198 160.56 77.2038 160.016 78.2758 160.016C78.5478 160.016 78.7718 160.048 79.0758 160.112ZM83.5812 168.192C81.2772 168.192 79.6932 166.528 79.6932 164.096C79.6932 161.648 81.2452 159.952 83.5172 159.952C85.7412 159.952 87.1972 161.488 87.1972 163.808V164.368L81.1492 164.384C81.2612 166.032 82.1252 166.944 83.6132 166.944C84.7812 166.944 85.5492 166.464 85.8052 165.568H87.2132C86.8292 167.248 85.5172 168.192 83.5812 168.192ZM83.5172 161.216C82.2052 161.216 81.3732 162 81.1812 163.376H85.6932C85.6932 162.08 84.8452 161.216 83.5172 161.216ZM91.0869 168.192C89.4069 168.192 88.4149 167.248 88.4149 165.824C88.4149 164.384 89.4869 163.488 91.3269 163.344L93.7909 163.152V162.928C93.7909 161.616 93.0069 161.152 91.9509 161.152C90.6869 161.152 89.9669 161.712 89.9669 162.656H88.6549C88.6549 161.024 89.9989 159.952 92.0149 159.952C93.9509 159.952 95.2629 160.976 95.2629 163.088V168H93.9829L93.8229 166.736C93.4229 167.632 92.3509 168.192 91.0869 168.192ZM91.5189 167.024C92.9429 167.024 93.8069 166.096 93.8069 164.624V164.208L91.8069 164.368C90.4789 164.496 89.9349 165.008 89.9349 165.776C89.9349 166.608 90.5429 167.024 91.5189 167.024ZM99.4288 168H97.9248V161.44H96.3888V160.176H97.9248V157.728H99.4288V160.176H100.965V161.44H99.4288V168ZM103.051 158.32C102.507 158.32 102.059 157.872 102.059 157.328C102.059 156.768 102.507 156.336 103.051 156.336C103.595 156.336 104.043 156.768 104.043 157.328C104.043 157.872 103.595 158.32 103.051 158.32ZM102.315 168V160.176H103.819V168H102.315ZM108.194 168L105.042 160.176H106.642L108.354 164.544C108.626 165.28 108.85 165.936 108.978 166.416C109.106 165.904 109.362 165.232 109.634 164.544L111.378 160.176H112.946L109.682 168H108.194ZM114.879 158.32C114.335 158.32 113.887 157.872 113.887 157.328C113.887 156.768 114.335 156.336 114.879 156.336C115.423 156.336 115.871 156.768 115.871 157.328C115.871 157.872 115.423 158.32 114.879 158.32ZM114.143 168V160.176H115.647V168H114.143ZM120.038 168H118.534V161.44H116.998V160.176H118.534V157.728H120.038V160.176H121.574V161.44H120.038V168ZM122.172 171.504V170.272H123.18C123.9 170.272 124.476 170.16 124.844 169.168L125.116 168.416L121.964 160.176H123.548L125.82 166.48L128.14 160.176H129.692L125.996 169.76C125.468 171.104 124.684 171.664 123.484 171.664C122.988 171.664 122.572 171.6 122.172 171.504ZM137.556 168.192C135.876 168.192 134.884 167.248 134.884 165.824C134.884 164.384 135.956 163.488 137.796 163.344L140.26 163.152V162.928C140.26 161.616 139.476 161.152 138.42 161.152C137.156 161.152 136.436 161.712 136.436 162.656H135.124C135.124 161.024 136.468 159.952 138.484 159.952C140.42 159.952 141.732 160.976 141.732 163.088V168H140.452L140.292 166.736C139.892 167.632 138.82 168.192 137.556 168.192ZM137.988 167.024C139.412 167.024 140.276 166.096 140.276 164.624V164.208L138.276 164.368C136.948 164.496 136.404 165.008 136.404 165.776C136.404 166.608 137.012 167.024 137.988 167.024ZM145.319 168H143.815V160.176H145.175L145.335 161.376C145.831 160.48 146.823 159.952 147.927 159.952C149.991 159.952 150.935 161.216 150.935 163.216V168H149.431V163.552C149.431 161.968 148.695 161.328 147.543 161.328C146.135 161.328 145.319 162.336 145.319 163.856V168ZM156.154 168.192C153.882 168.192 152.506 166.496 152.506 164.112C152.506 161.712 153.898 159.952 156.218 159.952C157.418 159.952 158.426 160.48 158.954 161.44V156.224H160.442V168H159.098L158.97 166.576C158.458 167.648 157.402 168.192 156.154 168.192ZM156.458 166.832C157.994 166.832 158.938 165.696 158.938 164.064C158.938 162.464 157.994 161.312 156.458 161.312C154.922 161.312 154.026 162.464 154.026 164.064C154.026 165.68 154.922 166.832 156.458 166.832ZM170.362 168.192C168.058 168.192 166.474 166.528 166.474 164.096C166.474 161.648 168.026 159.952 170.298 159.952C172.522 159.952 173.978 161.488 173.978 163.808V164.368L167.93 164.384C168.042 166.032 168.906 166.944 170.394 166.944C171.562 166.944 172.33 166.464 172.586 165.568H173.994C173.61 167.248 172.298 168.192 170.362 168.192ZM170.298 161.216C168.986 161.216 168.154 162 167.962 163.376H172.474C172.474 162.08 171.626 161.216 170.298 161.216ZM177.194 168H175.69V156.224H177.194V168ZM182.784 168.192C180.48 168.192 178.896 166.528 178.896 164.096C178.896 161.648 180.448 159.952 182.72 159.952C184.944 159.952 186.4 161.488 186.4 163.808V164.368L180.352 164.384C180.464 166.032 181.328 166.944 182.816 166.944C183.984 166.944 184.752 166.464 185.008 165.568H186.416C186.032 167.248 184.72 168.192 182.784 168.192ZM182.72 161.216C181.408 161.216 180.576 162 180.384 163.376H184.896C184.896 162.08 184.048 161.216 182.72 161.216ZM190.007 168L186.855 160.176H188.455L190.167 164.544C190.439 165.28 190.663 165.936 190.791 166.416C190.919 165.904 191.175 165.232 191.447 164.544L193.191 160.176H194.759L191.495 168H190.007ZM197.884 168.192C196.204 168.192 195.212 167.248 195.212 165.824C195.212 164.384 196.284 163.488 198.124 163.344L200.588 163.152V162.928C200.588 161.616 199.804 161.152 198.748 161.152C197.484 161.152 196.764 161.712 196.764 162.656H195.452C195.452 161.024 196.796 159.952 198.812 159.952C200.748 159.952 202.06 160.976 202.06 163.088V168H200.78L200.62 166.736C200.22 167.632 199.148 168.192 197.884 168.192ZM198.316 167.024C199.74 167.024 200.604 166.096 200.604 164.624V164.208L198.604 164.368C197.276 164.496 196.732 165.008 196.732 165.776C196.732 166.608 197.34 167.024 198.316 167.024ZM206.226 168H204.722V161.44H203.186V160.176H204.722V157.728H206.226V160.176H207.762V161.44H206.226V168ZM212.409 168.192C210.105 168.192 208.521 166.528 208.521 164.096C208.521 161.648 210.073 159.952 212.345 159.952C214.569 159.952 216.025 161.488 216.025 163.808V164.368L209.977 164.384C210.089 166.032 210.953 166.944 212.441 166.944C213.609 166.944 214.377 166.464 214.633 165.568H216.041C215.657 167.248 214.345 168.192 212.409 168.192ZM212.345 161.216C211.033 161.216 210.201 162 210.009 163.376H214.521C214.521 162.08 213.673 161.216 212.345 161.216ZM221.328 171.504V170.272H222.336C223.056 170.272 223.632 170.16 224 169.168L224.272 168.416L221.12 160.176H222.704L224.976 166.48L227.296 160.176H228.848L225.152 169.76C224.624 171.104 223.84 171.664 222.64 171.664C222.144 171.664 221.728 171.6 221.328 171.504ZM229.24 164.08C229.24 161.664 230.968 159.968 233.32 159.968C235.656 159.968 237.384 161.664 237.384 164.08C237.384 166.496 235.656 168.192 233.32 168.192C230.968 168.192 229.24 166.496 229.24 164.08ZM230.76 164.08C230.76 165.712 231.8 166.848 233.32 166.848C234.824 166.848 235.88 165.712 235.88 164.08C235.88 162.448 234.824 161.312 233.32 161.312C231.8 161.312 230.76 162.448 230.76 164.08ZM244.269 160.176H245.757V168H244.413L244.253 166.816C243.805 167.632 242.765 168.192 241.613 168.192C239.789 168.192 238.765 166.96 238.765 165.04V160.176H240.269V164.544C240.269 166.224 240.989 166.864 242.141 166.864C243.517 166.864 244.269 165.984 244.269 164.304V160.176ZM252.42 160.112V161.488H251.748C250.324 161.488 249.444 162.352 249.444 163.856V168H247.94V160.192H249.348L249.444 161.376C249.764 160.56 250.548 160.016 251.62 160.016C251.892 160.016 252.116 160.048 252.42 160.112ZM258.205 171.504V160.176H259.565L259.677 161.584C260.205 160.512 261.261 159.952 262.509 159.952C264.749 159.952 266.141 161.632 266.141 164.032C266.141 166.416 264.829 168.208 262.509 168.208C261.261 168.208 260.221 167.68 259.709 166.72V171.504H258.205ZM259.725 164.096C259.725 165.696 260.653 166.848 262.189 166.848C263.725 166.848 264.637 165.696 264.637 164.096C264.637 162.48 263.725 161.328 262.189 161.328C260.653 161.328 259.725 162.464 259.725 164.096ZM271.175 168.192C268.871 168.192 267.287 166.528 267.287 164.096C267.287 161.648 268.839 159.952 271.111 159.952C273.335 159.952 274.791 161.488 274.791 163.808V164.368L268.743 164.384C268.855 166.032 269.719 166.944 271.207 166.944C272.375 166.944 273.143 166.464 273.399 165.568H274.807C274.423 167.248 273.111 168.192 271.175 168.192ZM271.111 161.216C269.799 161.216 268.967 162 268.775 163.376H273.287C273.287 162.08 272.439 161.216 271.111 161.216ZM280.951 160.112V161.488H280.279C278.855 161.488 277.975 162.352 277.975 163.856V168H276.471V160.192H277.879L277.975 161.376C278.295 160.56 279.079 160.016 280.151 160.016C280.423 160.016 280.647 160.048 280.951 160.112ZM281.842 160.176H282.994V158.928C282.994 157.008 284.05 156.224 285.474 156.224C285.762 156.224 286.098 156.24 286.402 156.288V157.584H285.73C284.754 157.584 284.498 158.08 284.498 158.928V160.176H286.354V161.44H284.498V168H282.994V161.44H281.842V160.176ZM287.006 164.08C287.006 161.664 288.734 159.968 291.086 159.968C293.422 159.968 295.15 161.664 295.15 164.08C295.15 166.496 293.422 168.192 291.086 168.192C288.734 168.192 287.006 166.496 287.006 164.08ZM288.526 164.08C288.526 165.712 289.566 166.848 291.086 166.848C292.59 166.848 293.646 165.712 293.646 164.08C293.646 162.448 292.59 161.312 291.086 161.312C289.566 161.312 288.526 162.448 288.526 164.08ZM301.295 160.112V161.488H300.623C299.199 161.488 298.319 162.352 298.319 163.856V168H296.815V160.192H298.223L298.319 161.376C298.639 160.56 299.423 160.016 300.495 160.016C300.767 160.016 300.991 160.048 301.295 160.112ZM304.209 168H302.705V160.176H304.049L304.193 161.2C304.593 160.464 305.425 159.952 306.529 159.952C307.745 159.952 308.609 160.56 309.009 161.536C309.377 160.56 310.321 159.952 311.537 159.952C313.329 159.952 314.417 161.072 314.417 162.88V168H312.945V163.248C312.945 162.016 312.257 161.312 311.201 161.312C310.065 161.312 309.313 162.112 309.313 163.36V168H307.825V163.232C307.825 162 307.153 161.328 306.097 161.328C304.961 161.328 304.209 162.112 304.209 163.36V168ZM318.79 168.192C317.11 168.192 316.118 167.248 316.118 165.824C316.118 164.384 317.19 163.488 319.03 163.344L321.494 163.152V162.928C321.494 161.616 320.71 161.152 319.654 161.152C318.39 161.152 317.67 161.712 317.67 162.656H316.358C316.358 161.024 317.702 159.952 319.718 159.952C321.654 159.952 322.966 160.976 322.966 163.088V168H321.686L321.526 166.736C321.126 167.632 320.054 168.192 318.79 168.192ZM319.222 167.024C320.646 167.024 321.51 166.096 321.51 164.624V164.208L319.51 164.368C318.182 164.496 317.638 165.008 317.638 165.776C317.638 166.608 318.246 167.024 319.222 167.024ZM326.553 168H325.049V160.176H326.409L326.569 161.376C327.065 160.48 328.057 159.952 329.161 159.952C331.225 159.952 332.169 161.216 332.169 163.216V168H330.665V163.552C330.665 161.968 329.929 161.328 328.777 161.328C327.369 161.328 326.553 162.336 326.553 163.856V168ZM333.74 164.096C333.74 161.648 335.292 159.952 337.58 159.952C339.548 159.952 340.924 161.072 341.196 162.816H339.692C339.436 161.824 338.636 161.296 337.628 161.296C336.204 161.296 335.228 162.384 335.228 164.08C335.228 165.76 336.14 166.848 337.564 166.848C338.636 166.848 339.436 166.288 339.708 165.36H341.212C340.908 167.056 339.452 168.192 337.564 168.192C335.26 168.192 333.74 166.56 333.74 164.096ZM346.175 168.192C343.871 168.192 342.287 166.528 342.287 164.096C342.287 161.648 343.839 159.952 346.111 159.952C348.335 159.952 349.791 161.488 349.791 163.808V164.368L343.743 164.384C343.855 166.032 344.719 166.944 346.207 166.944C347.375 166.944 348.143 166.464 348.399 165.568H349.807C349.423 167.248 348.111 168.192 346.175 168.192ZM346.111 161.216C344.799 161.216 343.967 162 343.775 163.376H348.287C348.287 162.08 347.439 161.216 346.111 161.216ZM352.106 168.192C351.482 168.192 350.954 167.68 350.954 167.072C350.954 166.448 351.482 165.936 352.106 165.936C352.714 165.936 353.242 166.448 353.242 167.072C353.242 167.68 352.714 168.192 352.106 168.192ZM358.919 157.872V156.432H367.447V157.872H363.975V168H362.407V157.872H358.919ZM372.295 160.112V161.488H371.623C370.199 161.488 369.319 162.352 369.319 163.856V168H367.815V160.192H369.223L369.319 161.376C369.639 160.56 370.423 160.016 371.495 160.016C371.767 160.016 371.991 160.048 372.295 160.112ZM379.113 160.176H380.601V168H379.257L379.097 166.816C378.649 167.632 377.609 168.192 376.457 168.192C374.633 168.192 373.609 166.96 373.609 165.04V160.176H375.113V164.544C375.113 166.224 375.833 166.864 376.985 166.864C378.361 166.864 379.113 165.984 379.113 164.304V160.176ZM381.987 165.728H383.427C383.427 166.528 384.035 167.008 385.027 167.008C386.083 167.008 386.691 166.576 386.691 165.856C386.691 165.328 386.435 165.008 385.619 164.8L384.243 164.48C382.851 164.144 382.195 163.456 382.195 162.304C382.195 160.864 383.411 159.952 385.139 159.952C386.851 159.952 387.971 160.912 388.003 162.4H386.563C386.531 161.616 386.003 161.12 385.091 161.12C384.147 161.12 383.619 161.536 383.619 162.256C383.619 162.784 384.003 163.136 384.771 163.328L386.147 163.664C387.475 163.984 388.131 164.592 388.131 165.76C388.131 167.248 386.851 168.192 384.995 168.192C383.155 168.192 381.987 167.216 381.987 165.728ZM392.007 168H390.503V161.44H388.967V160.176H390.503V157.728H392.007V160.176H393.543V161.44H392.007V168ZM398.191 168.192C395.887 168.192 394.303 166.528 394.303 164.096C394.303 161.648 395.855 159.952 398.127 159.952C400.351 159.952 401.807 161.488 401.807 163.808V164.368L395.759 164.384C395.871 166.032 396.735 166.944 398.223 166.944C399.391 166.944 400.159 166.464 400.415 165.568H401.823C401.439 167.248 400.127 168.192 398.191 168.192ZM398.127 161.216C396.815 161.216 395.983 162 395.791 163.376H400.303C400.303 162.08 399.455 161.216 398.127 161.216ZM406.622 168.192C404.35 168.192 402.974 166.496 402.974 164.112C402.974 161.712 404.366 159.952 406.686 159.952C407.886 159.952 408.894 160.48 409.422 161.44V156.224H410.91V168H409.566L409.438 166.576C408.926 167.648 407.87 168.192 406.622 168.192ZM406.926 166.832C408.462 166.832 409.406 165.696 409.406 164.064C409.406 162.464 408.462 161.312 406.926 161.312C405.39 161.312 404.494 162.464 404.494 164.064C404.494 165.68 405.39 166.832 406.926 166.832ZM418.815 168H417.455V156.224H418.959V161.52C419.471 160.496 420.527 159.952 421.807 159.952C424.047 159.952 425.391 161.712 425.391 164.128C425.391 166.496 423.983 168.192 421.711 168.192C420.479 168.192 419.439 167.648 418.927 166.576L418.815 168ZM418.975 164.064C418.975 165.696 419.903 166.832 421.439 166.832C422.975 166.832 423.887 165.68 423.887 164.064C423.887 162.464 422.975 161.312 421.439 161.312C419.903 161.312 418.975 162.464 418.975 164.064ZM426.031 171.504V170.272H427.039C427.759 170.272 428.335 170.16 428.703 169.168L428.975 168.416L425.823 160.176H427.407L429.679 166.48L431.999 160.176H433.551L429.855 169.76C429.327 171.104 428.543 171.664 427.343 171.664C426.847 171.664 426.431 171.6 426.031 171.504ZM441.335 168H439.831V161.44H438.295V160.176H439.831V157.728H441.335V160.176H442.871V161.44H441.335V168ZM443.631 164.08C443.631 161.664 445.359 159.968 447.711 159.968C450.047 159.968 451.775 161.664 451.775 164.08C451.775 166.496 450.047 168.192 447.711 168.192C445.359 168.192 443.631 166.496 443.631 164.08ZM445.151 164.08C445.151 165.712 446.191 166.848 447.711 166.848C449.215 166.848 450.271 165.712 450.271 164.08C450.271 162.448 449.215 161.312 447.711 161.312C446.191 161.312 445.151 162.448 445.151 164.08ZM453.44 171.504V160.176H454.8L454.912 161.584C455.44 160.512 456.496 159.952 457.744 159.952C459.984 159.952 461.376 161.632 461.376 164.032C461.376 166.416 460.064 168.208 457.744 168.208C456.496 168.208 455.456 167.68 454.944 166.72V171.504H453.44ZM454.96 164.096C454.96 165.696 455.888 166.848 457.424 166.848C458.96 166.848 459.872 165.696 459.872 164.096C459.872 162.48 458.96 161.328 457.424 161.328C455.888 161.328 454.96 162.464 454.96 164.096ZM5.90725 190.192C4.22725 190.192 3.23525 189.248 3.23525 187.824C3.23525 186.384 4.30725 185.488 6.14725 185.344L8.61125 185.152V184.928C8.61125 183.616 7.82725 183.152 6.77125 183.152C5.50725 183.152 4.78725 183.712 4.78725 184.656H3.47525C3.47525 183.024 4.81925 181.952 6.83525 181.952C8.77125 181.952 10.0833 182.976 10.0833 185.088V190H8.80325L8.64325 188.736C8.24325 189.632 7.17125 190.192 5.90725 190.192ZM6.33925 189.024C7.76325 189.024 8.62725 188.096 8.62725 186.624V186.208L6.62725 186.368C5.29925 186.496 4.75525 187.008 4.75525 187.776C4.75525 188.608 5.36325 189.024 6.33925 189.024ZM16.6461 182.112V183.488H15.9741C14.5501 183.488 13.6701 184.352 13.6701 185.856V190H12.1661V182.192H13.5741L13.6701 183.376C13.9901 182.56 14.7741 182.016 15.8461 182.016C16.1181 182.016 16.3421 182.048 16.6461 182.112ZM20.5773 190H19.0733V183.44H17.5373V182.176H19.0733V179.728H20.5773V182.176H22.1133V183.44H20.5773V190ZM24.199 180.32C23.655 180.32 23.207 179.872 23.207 179.328C23.207 178.768 23.655 178.336 24.199 178.336C24.743 178.336 25.191 178.768 25.191 179.328C25.191 179.872 24.743 180.32 24.199 180.32ZM23.463 190V182.176H24.967V190H23.463ZM26.5105 187.728H27.9505C27.9505 188.528 28.5585 189.008 29.5505 189.008C30.6065 189.008 31.2145 188.576 31.2145 187.856C31.2145 187.328 30.9585 187.008 30.1425 186.8L28.7665 186.48C27.3745 186.144 26.7185 185.456 26.7185 184.304C26.7185 182.864 27.9345 181.952 29.6625 181.952C31.3745 181.952 32.4945 182.912 32.5265 184.4H31.0865C31.0545 183.616 30.5265 183.12 29.6145 183.12C28.6705 183.12 28.1425 183.536 28.1425 184.256C28.1425 184.784 28.5265 185.136 29.2945 185.328L30.6705 185.664C31.9985 185.984 32.6545 186.592 32.6545 187.76C32.6545 189.248 31.3745 190.192 29.5185 190.192C27.6785 190.192 26.5105 189.216 26.5105 187.728ZM36.5304 190H35.0264V183.44H33.4904V182.176H35.0264V179.728H36.5304V182.176H38.0664V183.44H36.5304V190ZM38.7761 187.728H40.2161C40.2161 188.528 40.8241 189.008 41.8161 189.008C42.8721 189.008 43.4801 188.576 43.4801 187.856C43.4801 187.328 43.2241 187.008 42.4081 186.8L41.0321 186.48C39.6401 186.144 38.9841 185.456 38.9841 184.304C38.9841 182.864 40.2001 181.952 41.9281 181.952C43.6401 181.952 44.7601 182.912 44.7921 184.4H43.3521C43.3201 183.616 42.7921 183.12 41.8801 183.12C40.9361 183.12 40.4081 183.536 40.4081 184.256C40.4081 184.784 40.7921 185.136 41.5601 185.328L42.9361 185.664C44.2641 185.984 44.9201 186.592 44.9201 187.76C44.9201 189.248 43.6401 190.192 41.7841 190.192C39.9441 190.192 38.7761 189.216 38.7761 187.728ZM52.643 190L50.083 182.176H51.635L52.931 186.24C53.107 186.816 53.267 187.408 53.411 188.096C53.539 187.408 53.747 186.752 53.923 186.24L55.235 182.176H56.771L58.067 186.24C58.195 186.624 58.451 187.536 58.579 188.096C58.707 187.472 58.851 186.928 59.075 186.24L60.387 182.176H61.955L59.283 190H57.859L56.499 185.808C56.243 185.024 56.083 184.416 56.003 183.984C55.923 184.368 55.779 184.88 55.491 185.824L54.131 190H52.643ZM62.3729 186.08C62.3729 183.664 64.1009 181.968 66.4529 181.968C68.7889 181.968 70.5169 183.664 70.5169 186.08C70.5169 188.496 68.7889 190.192 66.4529 190.192C64.1009 190.192 62.3729 188.496 62.3729 186.08ZM63.8929 186.08C63.8929 187.712 64.9329 188.848 66.4529 188.848C67.9569 188.848 69.0129 187.712 69.0129 186.08C69.0129 184.448 67.9569 183.312 66.4529 183.312C64.9329 183.312 63.8929 184.448 63.8929 186.08ZM76.6618 182.112V183.488H75.9898C74.5658 183.488 73.6858 184.352 73.6858 185.856V190H72.1818V182.192H73.5898L73.6858 183.376C74.0058 182.56 74.7898 182.016 75.8618 182.016C76.1338 182.016 76.3578 182.048 76.6618 182.112ZM79.6084 190H78.1044V178.224H79.6084V190ZM84.9584 190.192C82.6864 190.192 81.3104 188.496 81.3104 186.112C81.3104 183.712 82.7024 181.952 85.0224 181.952C86.2224 181.952 87.2304 182.48 87.7584 183.44V178.224H89.2464V190H87.9024L87.7744 188.576C87.2624 189.648 86.2064 190.192 84.9584 190.192ZM85.2624 188.832C86.7984 188.832 87.7424 187.696 87.7424 186.064C87.7424 184.464 86.7984 183.312 85.2624 183.312C83.7264 183.312 82.8304 184.464 82.8304 186.064C82.8304 187.68 83.7264 188.832 85.2624 188.832ZM93.0961 190L90.5361 182.176H92.0881L93.3841 186.24C93.5601 186.816 93.7201 187.408 93.8641 188.096C93.9921 187.408 94.2001 186.752 94.3761 186.24L95.6881 182.176H97.2241L98.5201 186.24C98.6481 186.624 98.9041 187.536 99.0321 188.096C99.1601 187.472 99.3041 186.928 99.5281 186.24L100.84 182.176H102.408L99.7361 190H98.3121L96.9521 185.808C96.6961 185.024 96.5361 184.416 96.4561 183.984C96.3761 184.368 96.2321 184.88 95.9441 185.824L94.5841 190H93.0961ZM104.433 180.32C103.889 180.32 103.441 179.872 103.441 179.328C103.441 178.768 103.889 178.336 104.433 178.336C104.977 178.336 105.425 178.768 105.425 179.328C105.425 179.872 104.977 180.32 104.433 180.32ZM103.697 190V182.176H105.201V190H103.697ZM110.521 190.192C108.249 190.192 106.873 188.496 106.873 186.112C106.873 183.712 108.265 181.952 110.585 181.952C111.785 181.952 112.793 182.48 113.321 183.44V178.224H114.809V190H113.465L113.337 188.576C112.825 189.648 111.769 190.192 110.521 190.192ZM110.825 188.832C112.361 188.832 113.305 187.696 113.305 186.064C113.305 184.464 112.361 183.312 110.825 183.312C109.289 183.312 108.393 184.464 108.393 186.064C108.393 187.68 109.289 188.832 110.825 188.832ZM120.355 190.192C118.051 190.192 116.467 188.528 116.467 186.096C116.467 183.648 118.019 181.952 120.291 181.952C122.515 181.952 123.971 183.488 123.971 185.808V186.368L117.923 186.384C118.035 188.032 118.899 188.944 120.387 188.944C121.555 188.944 122.323 188.464 122.579 187.568H123.987C123.603 189.248 122.291 190.192 120.355 190.192ZM120.291 183.216C118.979 183.216 118.147 184 117.955 185.376H122.467C122.467 184.08 121.619 183.216 120.291 183.216ZM127.422 189.376C127.422 190.528 126.558 191.488 125.422 191.632V190.96C126.078 190.848 126.542 190.416 126.542 189.92C126.43 189.984 126.302 190.016 126.11 190.016C125.582 190.016 125.134 189.632 125.134 189.04C125.134 188.4 125.566 187.936 126.206 187.936C126.878 187.936 127.422 188.496 127.422 189.376ZM135.787 178.432V190H134.219V178.432H135.787ZM139.589 190H138.229V178.224H139.733V183.52C140.245 182.496 141.301 181.952 142.581 181.952C144.821 181.952 146.165 183.712 146.165 186.128C146.165 188.496 144.757 190.192 142.485 190.192C141.253 190.192 140.213 189.648 139.701 188.576L139.589 190ZM139.749 186.064C139.749 187.696 140.677 188.832 142.213 188.832C143.749 188.832 144.661 187.68 144.661 186.064C144.661 184.464 143.749 183.312 142.213 183.312C140.677 183.312 139.749 184.464 139.749 186.064ZM150.11 190.192C148.43 190.192 147.438 189.248 147.438 187.824C147.438 186.384 148.51 185.488 150.35 185.344L152.814 185.152V184.928C152.814 183.616 152.03 183.152 150.974 183.152C149.71 183.152 148.99 183.712 148.99 184.656H147.678C147.678 183.024 149.022 181.952 151.038 181.952C152.974 181.952 154.286 182.976 154.286 185.088V190H153.006L152.846 188.736C152.446 189.632 151.374 190.192 150.11 190.192ZM150.542 189.024C151.966 189.024 152.83 188.096 152.83 186.624V186.208L150.83 186.368C149.502 186.496 148.958 187.008 148.958 187.776C148.958 188.608 149.566 189.024 150.542 189.024ZM157.873 190H156.369V182.176H157.729L157.889 183.376C158.385 182.48 159.377 181.952 160.481 181.952C162.545 181.952 163.489 183.216 163.489 185.216V190H161.985V185.552C161.985 183.968 161.249 183.328 160.097 183.328C158.689 183.328 157.873 184.336 157.873 185.856V190ZM168.948 190.192C166.644 190.192 165.06 188.528 165.06 186.096C165.06 183.648 166.612 181.952 168.884 181.952C171.108 181.952 172.564 183.488 172.564 185.808V186.368L166.516 186.384C166.628 188.032 167.492 188.944 168.98 188.944C170.148 188.944 170.916 188.464 171.172 187.568H172.58C172.196 189.248 170.884 190.192 168.948 190.192ZM168.884 183.216C167.572 183.216 166.74 184 166.548 185.376H171.06C171.06 184.08 170.212 183.216 168.884 183.216ZM179.704 190H173.608V188.784L177.832 183.44H173.608V182.176H179.704V183.408L175.448 188.736H179.704V190ZM185.28 185.888C185.28 183.68 186.704 181.952 188.976 181.952C190.24 181.952 191.216 182.528 191.712 183.504L191.824 182.176H193.168V189.68C193.168 192.144 191.648 193.712 189.248 193.712C187.12 193.712 185.664 192.512 185.376 190.528H186.88C187.072 191.68 187.936 192.352 189.248 192.352C190.72 192.352 191.68 191.392 191.68 189.904V188.336C191.168 189.248 190.144 189.792 188.911 189.792C186.688 189.792 185.28 188.08 185.28 185.888ZM186.784 185.856C186.784 187.328 187.696 188.48 189.168 188.48C190.688 188.48 191.616 187.392 191.616 185.856C191.616 184.352 190.72 183.264 189.184 183.264C187.68 183.264 186.784 184.416 186.784 185.856ZM200.746 182.176H202.234V190H200.89L200.73 188.816C200.282 189.632 199.242 190.192 198.09 190.192C196.266 190.192 195.242 188.96 195.242 187.04V182.176H196.746V186.544C196.746 188.224 197.466 188.864 198.618 188.864C199.994 188.864 200.746 187.984 200.746 186.304V182.176ZM205.152 180.32C204.608 180.32 204.16 179.872 204.16 179.328C204.16 178.768 204.608 178.336 205.152 178.336C205.696 178.336 206.144 178.768 206.144 179.328C206.144 179.872 205.696 180.32 205.152 180.32ZM204.416 190V182.176H205.92V190H204.416ZM210.312 190H208.808V183.44H207.272V182.176H208.808V179.728H210.312V182.176H211.848V183.44H210.312V190ZM215.392 190.192C213.712 190.192 212.72 189.248 212.72 187.824C212.72 186.384 213.792 185.488 215.632 185.344L218.096 185.152V184.928C218.096 183.616 217.312 183.152 216.256 183.152C214.992 183.152 214.272 183.712 214.272 184.656H212.96C212.96 183.024 214.304 181.952 216.32 181.952C218.256 181.952 219.568 182.976 219.568 185.088V190H218.288L218.128 188.736C217.728 189.632 216.656 190.192 215.392 190.192ZM215.824 189.024C217.248 189.024 218.112 188.096 218.112 186.624V186.208L216.112 186.368C214.784 186.496 214.24 187.008 214.24 187.776C214.24 188.608 214.848 189.024 215.824 189.024ZM226.131 182.112V183.488H225.459C224.035 183.488 223.155 184.352 223.155 185.856V190H221.651V182.192H223.059L223.155 183.376C223.475 182.56 224.259 182.016 225.331 182.016C225.603 182.016 225.827 182.048 226.131 182.112ZM226.901 187.728H228.341C228.341 188.528 228.949 189.008 229.941 189.008C230.997 189.008 231.605 188.576 231.605 187.856C231.605 187.328 231.349 187.008 230.533 186.8L229.157 186.48C227.765 186.144 227.109 185.456 227.109 184.304C227.109 182.864 228.325 181.952 230.053 181.952C231.765 181.952 232.885 182.912 232.917 184.4H231.477C231.445 183.616 230.917 183.12 230.005 183.12C229.061 183.12 228.533 183.536 228.533 184.256C228.533 184.784 228.917 185.136 229.685 185.328L231.061 185.664C232.389 185.984 233.045 186.592 233.045 187.76C233.045 189.248 231.765 190.192 229.909 190.192C228.069 190.192 226.901 189.216 226.901 187.728ZM241.376 190.192C239.696 190.192 238.704 189.248 238.704 187.824C238.704 186.384 239.776 185.488 241.616 185.344L244.08 185.152V184.928C244.08 183.616 243.296 183.152 242.24 183.152C240.976 183.152 240.256 183.712 240.256 184.656H238.944C238.944 183.024 240.288 181.952 242.304 181.952C244.24 181.952 245.552 182.976 245.552 185.088V190H244.272L244.112 188.736C243.712 189.632 242.64 190.192 241.376 190.192ZM241.808 189.024C243.232 189.024 244.096 188.096 244.096 186.624V186.208L242.096 186.368C240.768 186.496 240.224 187.008 240.224 187.776C240.224 188.608 240.832 189.024 241.808 189.024ZM252.115 182.112V183.488H251.443C250.019 183.488 249.139 184.352 249.139 185.856V190H247.635V182.192H249.043L249.139 183.376C249.459 182.56 250.243 182.016 251.315 182.016C251.587 182.016 251.811 182.048 252.115 182.112ZM256.62 190.192C254.316 190.192 252.732 188.528 252.732 186.096C252.732 183.648 254.284 181.952 256.556 181.952C258.78 181.952 260.236 183.488 260.236 185.808V186.368L254.188 186.384C254.3 188.032 255.164 188.944 256.652 188.944C257.82 188.944 258.588 188.464 258.844 187.568H260.252C259.868 189.248 258.556 190.192 256.62 190.192ZM256.556 183.216C255.244 183.216 254.412 184 254.22 185.376H258.732C258.732 184.08 257.884 183.216 256.556 183.216ZM267.651 190H266.291V178.224H267.795V183.52C268.307 182.496 269.363 181.952 270.643 181.952C272.883 181.952 274.227 183.712 274.227 186.128C274.227 188.496 272.819 190.192 270.547 190.192C269.315 190.192 268.275 189.648 267.763 188.576L267.651 190ZM267.811 186.064C267.811 187.696 268.739 188.832 270.275 188.832C271.811 188.832 272.723 187.68 272.723 186.064C272.723 184.464 271.811 183.312 270.275 183.312C268.739 183.312 267.811 184.464 267.811 186.064ZM281.105 182.176H282.593V190H281.249L281.089 188.816C280.641 189.632 279.601 190.192 278.449 190.192C276.625 190.192 275.601 188.96 275.601 187.04V182.176H277.105V186.544C277.105 188.224 277.825 188.864 278.977 188.864C280.353 188.864 281.105 187.984 281.105 186.304V182.176ZM285.512 180.32C284.968 180.32 284.52 179.872 284.52 179.328C284.52 178.768 284.968 178.336 285.512 178.336C286.056 178.336 286.504 178.768 286.504 179.328C286.504 179.872 286.056 180.32 285.512 180.32ZM284.776 190V182.176H286.28V190H284.776ZM289.999 190H288.495V178.224H289.999V190ZM294.421 190H292.917V183.44H291.381V182.176H292.917V179.728H294.421V182.176H295.957V183.44H294.421V190ZM303.89 190H302.386V183.44H300.85V182.176H302.386V179.728H303.89V182.176H305.426V183.44H303.89V190ZM306.185 186.08C306.185 183.664 307.913 181.968 310.265 181.968C312.601 181.968 314.329 183.664 314.329 186.08C314.329 188.496 312.601 190.192 310.265 190.192C307.913 190.192 306.185 188.496 306.185 186.08ZM307.705 186.08C307.705 187.712 308.745 188.848 310.265 188.848C311.769 188.848 312.825 187.712 312.825 186.08C312.825 184.448 311.769 183.312 310.265 183.312C308.745 183.312 307.705 184.448 307.705 186.08ZM320.369 193.504V182.176H321.729L321.841 183.584C322.369 182.512 323.425 181.952 324.673 181.952C326.913 181.952 328.305 183.632 328.305 186.032C328.305 188.416 326.993 190.208 324.673 190.208C323.425 190.208 322.385 189.68 321.873 188.72V193.504H320.369ZM321.889 186.096C321.889 187.696 322.817 188.848 324.353 188.848C325.889 188.848 326.801 187.696 326.801 186.096C326.801 184.48 325.889 183.328 324.353 183.328C322.817 183.328 321.889 184.464 321.889 186.096ZM331.499 190H329.995V178.224H331.499V190ZM336.001 190.192C334.321 190.192 333.329 189.248 333.329 187.824C333.329 186.384 334.401 185.488 336.241 185.344L338.705 185.152V184.928C338.705 183.616 337.921 183.152 336.865 183.152C335.601 183.152 334.881 183.712 334.881 184.656H333.569C333.569 183.024 334.913 181.952 336.929 181.952C338.865 181.952 340.177 182.976 340.177 185.088V190H338.897L338.737 188.736C338.337 189.632 337.265 190.192 336.001 190.192ZM336.433 189.024C337.857 189.024 338.721 188.096 338.721 186.624V186.208L336.721 186.368C335.393 186.496 334.849 187.008 334.849 187.776C334.849 188.608 335.457 189.024 336.433 189.024ZM341.32 193.504V192.272H342.328C343.048 192.272 343.624 192.16 343.992 191.168L344.264 190.416L341.112 182.176H342.696L344.968 188.48L347.288 182.176H348.84L345.144 191.76C344.616 193.104 343.832 193.664 342.632 193.664C342.136 193.664 341.72 193.6 341.32 193.504ZM353.584 182.176H354.736V180.928C354.736 179.008 355.792 178.224 357.216 178.224C357.504 178.224 357.84 178.24 358.144 178.288V179.584H357.472C356.496 179.584 356.24 180.08 356.24 180.928V182.176H358.096V183.44H356.24V190H354.736V183.44H353.584V182.176ZM361.532 190.192C359.852 190.192 358.86 189.248 358.86 187.824C358.86 186.384 359.932 185.488 361.772 185.344L364.236 185.152V184.928C364.236 183.616 363.452 183.152 362.396 183.152C361.132 183.152 360.412 183.712 360.412 184.656H359.1C359.1 183.024 360.444 181.952 362.46 181.952C364.396 181.952 365.708 182.976 365.708 185.088V190H364.428L364.268 188.736C363.868 189.632 362.796 190.192 361.532 190.192ZM361.964 189.024C363.388 189.024 364.252 188.096 364.252 186.624V186.208L362.252 186.368C360.924 186.496 360.38 187.008 360.38 187.776C360.38 188.608 360.988 189.024 361.964 189.024ZM367.151 187.728H368.591C368.591 188.528 369.199 189.008 370.191 189.008C371.247 189.008 371.855 188.576 371.855 187.856C371.855 187.328 371.599 187.008 370.783 186.8L369.407 186.48C368.015 186.144 367.359 185.456 367.359 184.304C367.359 182.864 368.575 181.952 370.303 181.952C372.015 181.952 373.135 182.912 373.167 184.4H371.727C371.695 183.616 371.167 183.12 370.255 183.12C369.311 183.12 368.783 183.536 368.783 184.256C368.783 184.784 369.167 185.136 369.935 185.328L371.311 185.664C372.639 185.984 373.295 186.592 373.295 187.76C373.295 189.248 372.015 190.192 370.159 190.192C368.319 190.192 367.151 189.216 367.151 187.728ZM377.171 190H375.667V183.44H374.131V182.176H375.667V179.728H377.171V182.176H378.707V183.44H377.171V190ZM381.828 189.376C381.828 190.528 380.964 191.488 379.828 191.632V190.96C380.484 190.848 380.948 190.416 380.948 189.92C380.836 189.984 380.708 190.016 380.516 190.016C379.988 190.016 379.54 189.632 379.54 189.04C379.54 188.4 379.972 187.936 380.612 187.936C381.284 187.936 381.828 188.496 381.828 189.376ZM387.729 187.728H389.169C389.169 188.528 389.777 189.008 390.769 189.008C391.825 189.008 392.433 188.576 392.433 187.856C392.433 187.328 392.177 187.008 391.361 186.8L389.985 186.48C388.593 186.144 387.937 185.456 387.937 184.304C387.937 182.864 389.153 181.952 390.881 181.952C392.593 181.952 393.713 182.912 393.745 184.4H392.305C392.273 183.616 391.745 183.12 390.833 183.12C389.889 183.12 389.361 183.536 389.361 184.256C389.361 184.784 389.745 185.136 390.513 185.328L391.889 185.664C393.217 185.984 393.873 186.592 393.873 187.76C393.873 189.248 392.593 190.192 390.737 190.192C388.897 190.192 387.729 189.216 387.729 187.728ZM395.029 186.08C395.029 183.664 396.757 181.968 399.109 181.968C401.445 181.968 403.173 183.664 403.173 186.08C403.173 188.496 401.445 190.192 399.109 190.192C396.757 190.192 395.029 188.496 395.029 186.08ZM396.549 186.08C396.549 187.712 397.589 188.848 399.109 188.848C400.613 188.848 401.669 187.712 401.669 186.08C401.669 184.448 400.613 183.312 399.109 183.312C397.589 183.312 396.549 184.448 396.549 186.08ZM410.059 182.176H411.547V190H410.203L410.043 188.816C409.595 189.632 408.555 190.192 407.403 190.192C405.579 190.192 404.555 188.96 404.555 187.04V182.176H406.059V186.544C406.059 188.224 406.779 188.864 407.931 188.864C409.307 188.864 410.059 187.984 410.059 186.304V182.176ZM415.233 190H413.729V182.176H415.089L415.249 183.376C415.745 182.48 416.737 181.952 417.841 181.952C419.905 181.952 420.849 183.216 420.849 185.216V190H419.345V185.552C419.345 183.968 418.609 183.328 417.457 183.328C416.049 183.328 415.233 184.336 415.233 185.856V190ZM426.068 190.192C423.796 190.192 422.42 188.496 422.42 186.112C422.42 183.712 423.812 181.952 426.132 181.952C427.332 181.952 428.34 182.48 428.868 183.44V178.224H430.356V190H429.012L428.884 188.576C428.372 189.648 427.316 190.192 426.068 190.192ZM426.372 188.832C427.908 188.832 428.852 187.696 428.852 186.064C428.852 184.464 427.908 183.312 426.372 183.312C424.836 183.312 423.94 184.464 423.94 186.064C423.94 187.68 424.836 188.832 426.372 188.832ZM438.261 190H436.901V178.224H438.405V183.52C438.917 182.496 439.973 181.952 441.253 181.952C443.493 181.952 444.837 183.712 444.837 186.128C444.837 188.496 443.429 190.192 441.157 190.192C439.924 190.192 438.885 189.648 438.373 188.576L438.261 190ZM438.421 186.064C438.421 187.696 439.349 188.832 440.885 188.832C442.421 188.832 443.333 187.68 443.333 186.064C443.333 184.464 442.421 183.312 440.885 183.312C439.349 183.312 438.421 184.464 438.421 186.064ZM445.982 186.08C445.982 183.664 447.71 181.968 450.062 181.968C452.398 181.968 454.126 183.664 454.126 186.08C454.126 188.496 452.398 190.192 450.062 190.192C447.71 190.192 445.982 188.496 445.982 186.08ZM447.502 186.08C447.502 187.712 448.542 188.848 450.062 188.848C451.566 188.848 452.622 187.712 452.622 186.08C452.622 184.448 451.566 183.312 450.062 183.312C448.542 183.312 447.502 184.448 447.502 186.08ZM457.327 190H455.823V178.224H457.327V190ZM462.677 190.192C460.405 190.192 459.029 188.496 459.029 186.112C459.029 183.712 460.421 181.952 462.741 181.952C463.941 181.952 464.949 182.48 465.477 183.44V178.224H466.965V190H465.621L465.493 188.576C464.981 189.648 463.925 190.192 462.677 190.192ZM462.981 188.832C464.517 188.832 465.461 187.696 465.461 186.064C465.461 184.464 464.517 183.312 462.981 183.312C461.445 183.312 460.549 184.464 460.549 186.064C460.549 187.68 461.445 188.832 462.981 188.832ZM471.391 189.376C471.391 190.528 470.527 191.488 469.391 191.632V190.96C470.047 190.848 470.511 190.416 470.511 189.92C470.399 189.984 470.271 190.016 470.079 190.016C469.551 190.016 469.103 189.632 469.103 189.04C469.103 188.4 469.535 187.936 470.175 187.936C470.847 187.936 471.391 188.496 471.391 189.376ZM141.392 212.192C139.712 212.192 138.72 211.248 138.72 209.824C138.72 208.384 139.792 207.488 141.632 207.344L144.096 207.152V206.928C144.096 205.616 143.312 205.152 142.256 205.152C140.992 205.152 140.272 205.712 140.272 206.656H138.96C138.96 205.024 140.304 203.952 142.32 203.952C144.256 203.952 145.568 204.976 145.568 207.088V212H144.288L144.128 210.736C143.728 211.632 142.656 212.192 141.392 212.192ZM141.824 211.024C143.248 211.024 144.112 210.096 144.112 208.624V208.208L142.112 208.368C140.784 208.496 140.24 209.008 140.24 209.776C140.24 210.608 140.848 211.024 141.824 211.024ZM149.155 212H147.651V204.176H149.011L149.171 205.376C149.667 204.48 150.659 203.952 151.763 203.952C153.827 203.952 154.771 205.216 154.771 207.216V212H153.267V207.552C153.267 205.968 152.531 205.328 151.379 205.328C149.971 205.328 149.155 206.336 149.155 207.856V212ZM159.99 212.192C157.718 212.192 156.342 210.496 156.342 208.112C156.342 205.712 157.734 203.952 160.054 203.952C161.254 203.952 162.262 204.48 162.79 205.44V200.224H164.278V212H162.934L162.806 210.576C162.294 211.648 161.238 212.192 159.99 212.192ZM160.294 210.832C161.83 210.832 162.774 209.696 162.774 208.064C162.774 206.464 161.83 205.312 160.294 205.312C158.758 205.312 157.862 206.464 157.862 208.064C157.862 209.68 158.758 210.832 160.294 210.832ZM170.182 209.728H171.622C171.622 210.528 172.23 211.008 173.222 211.008C174.278 211.008 174.886 210.576 174.886 209.856C174.886 209.328 174.63 209.008 173.814 208.8L172.438 208.48C171.046 208.144 170.39 207.456 170.39 206.304C170.39 204.864 171.606 203.952 173.334 203.952C175.046 203.952 176.166 204.912 176.198 206.4H174.758C174.726 205.616 174.198 205.12 173.286 205.12C172.342 205.12 171.814 205.536 171.814 206.256C171.814 206.784 172.198 207.136 172.966 207.328L174.342 207.664C175.67 207.984 176.326 208.592 176.326 209.76C176.326 211.248 175.046 212.192 173.19 212.192C171.35 212.192 170.182 211.216 170.182 209.728ZM180.202 212H178.698V205.44H177.162V204.176H178.698V201.728H180.202V204.176H181.738V205.44H180.202V212ZM185.282 212.192C183.602 212.192 182.61 211.248 182.61 209.824C182.61 208.384 183.682 207.488 185.522 207.344L187.986 207.152V206.928C187.986 205.616 187.202 205.152 186.146 205.152C184.882 205.152 184.162 205.712 184.162 206.656H182.85C182.85 205.024 184.194 203.952 186.21 203.952C188.146 203.952 189.458 204.976 189.458 207.088V212H188.178L188.018 210.736C187.618 211.632 186.546 212.192 185.282 212.192ZM185.714 211.024C187.138 211.024 188.002 210.096 188.002 208.624V208.208L186.002 208.368C184.674 208.496 184.13 209.008 184.13 209.776C184.13 210.608 184.738 211.024 185.714 211.024ZM193.045 212H191.541V204.176H192.901L193.061 205.376C193.557 204.48 194.549 203.952 195.653 203.952C197.717 203.952 198.661 205.216 198.661 207.216V212H197.157V207.552C197.157 205.968 196.421 205.328 195.269 205.328C193.861 205.328 193.045 206.336 193.045 207.856V212ZM203.88 212.192C201.608 212.192 200.232 210.496 200.232 208.112C200.232 205.712 201.624 203.952 203.944 203.952C205.144 203.952 206.152 204.48 206.68 205.44V200.224H208.168V212H206.824L206.696 210.576C206.184 211.648 205.128 212.192 203.88 212.192ZM204.184 210.832C205.72 210.832 206.664 209.696 206.664 208.064C206.664 206.464 205.72 205.312 204.184 205.312C202.648 205.312 201.752 206.464 201.752 208.064C201.752 209.68 202.648 210.832 204.184 210.832ZM214.201 208.08C214.201 205.664 215.929 203.968 218.281 203.968C220.617 203.968 222.345 205.664 222.345 208.08C222.345 210.496 220.617 212.192 218.281 212.192C215.929 212.192 214.201 210.496 214.201 208.08ZM215.721 208.08C215.721 209.712 216.761 210.848 218.281 210.848C219.785 210.848 220.841 209.712 220.841 208.08C220.841 206.448 219.785 205.312 218.281 205.312C216.761 205.312 215.721 206.448 215.721 208.08ZM229.23 204.176H230.718V212H229.374L229.214 210.816C228.766 211.632 227.726 212.192 226.574 212.192C224.75 212.192 223.726 210.96 223.726 209.04V204.176H225.23V208.544C225.23 210.224 225.95 210.864 227.102 210.864C228.478 210.864 229.23 209.984 229.23 208.304V204.176ZM235.109 212H233.605V205.44H232.069V204.176H233.605V201.728H235.109V204.176H236.645V205.44H235.109V212ZM241.857 208.08C241.857 205.664 243.585 203.968 245.937 203.968C248.273 203.968 250.001 205.664 250.001 208.08C250.001 210.496 248.273 212.192 245.937 212.192C243.585 212.192 241.857 210.496 241.857 208.08ZM243.377 208.08C243.377 209.712 244.417 210.848 245.937 210.848C247.441 210.848 248.497 209.712 248.497 208.08C248.497 206.448 247.441 205.312 245.937 205.312C244.417 205.312 243.377 206.448 243.377 208.08ZM253.17 212H251.666V204.176H253.026L253.186 205.376C253.682 204.48 254.674 203.952 255.778 203.952C257.842 203.952 258.786 205.216 258.786 207.216V212H257.282V207.552C257.282 205.968 256.546 205.328 255.394 205.328C253.986 205.328 253.17 206.336 253.17 207.856V212ZM267.532 212.192C265.852 212.192 264.86 211.248 264.86 209.824C264.86 208.384 265.932 207.488 267.772 207.344L270.236 207.152V206.928C270.236 205.616 269.452 205.152 268.396 205.152C267.132 205.152 266.412 205.712 266.412 206.656H265.1C265.1 205.024 266.444 203.952 268.46 203.952C270.396 203.952 271.708 204.976 271.708 207.088V212H270.428L270.268 210.736C269.868 211.632 268.796 212.192 267.532 212.192ZM267.964 211.024C269.388 211.024 270.252 210.096 270.252 208.624V208.208L268.252 208.368C266.924 208.496 266.38 209.008 266.38 209.776C266.38 210.608 266.988 211.024 267.964 211.024ZM275.295 212H273.791V204.176H275.151L275.311 205.376C275.807 204.48 276.799 203.952 277.903 203.952C279.967 203.952 280.911 205.216 280.911 207.216V212H279.407V207.552C279.407 205.968 278.671 205.328 277.519 205.328C276.111 205.328 275.295 206.336 275.295 207.856V212ZM282.086 215.504V214.272H283.094C283.814 214.272 284.39 214.16 284.758 213.168L285.03 212.416L281.878 204.176H283.462L285.734 210.48L288.054 204.176H289.606L285.91 213.76C285.382 215.104 284.598 215.664 283.398 215.664C282.902 215.664 282.486 215.6 282.086 215.504ZM294.542 209.728H295.982C295.982 210.528 296.59 211.008 297.582 211.008C298.638 211.008 299.246 210.576 299.246 209.856C299.246 209.328 298.99 209.008 298.174 208.8L296.798 208.48C295.406 208.144 294.75 207.456 294.75 206.304C294.75 204.864 295.966 203.952 297.694 203.952C299.406 203.952 300.526 204.912 300.558 206.4H299.118C299.086 205.616 298.558 205.12 297.646 205.12C296.702 205.12 296.174 205.536 296.174 206.256C296.174 206.784 296.558 207.136 297.326 207.328L298.702 207.664C300.03 207.984 300.686 208.592 300.686 209.76C300.686 211.248 299.406 212.192 297.55 212.192C295.71 212.192 294.542 211.216 294.542 209.728ZM304.562 212H303.058V205.44H301.522V204.176H303.058V201.728H304.562V204.176H306.098V205.44H304.562V212ZM309.642 212.192C307.962 212.192 306.97 211.248 306.97 209.824C306.97 208.384 308.042 207.488 309.882 207.344L312.346 207.152V206.928C312.346 205.616 311.562 205.152 310.506 205.152C309.242 205.152 308.522 205.712 308.522 206.656H307.21C307.21 205.024 308.554 203.952 310.57 203.952C312.506 203.952 313.818 204.976 313.818 207.088V212H312.538L312.378 210.736C311.978 211.632 310.906 212.192 309.642 212.192ZM310.074 211.024C311.498 211.024 312.362 210.096 312.362 208.624V208.208L310.362 208.368C309.034 208.496 308.49 209.008 308.49 209.776C308.49 210.608 309.098 211.024 310.074 211.024ZM315.405 207.888C315.405 205.68 316.829 203.952 319.101 203.952C320.365 203.952 321.341 204.528 321.837 205.504L321.949 204.176H323.293V211.68C323.293 214.144 321.773 215.712 319.373 215.712C317.245 215.712 315.789 214.512 315.501 212.528H317.005C317.197 213.68 318.061 214.352 319.373 214.352C320.845 214.352 321.805 213.392 321.805 211.904V210.336C321.293 211.248 320.269 211.792 319.036 211.792C316.812 211.792 315.405 210.08 315.405 207.888ZM316.909 207.856C316.909 209.328 317.821 210.48 319.293 210.48C320.813 210.48 321.741 209.392 321.741 207.856C321.741 206.352 320.845 205.264 319.309 205.264C317.805 205.264 316.909 206.416 316.909 207.856ZM328.839 212.192C326.535 212.192 324.951 210.528 324.951 208.096C324.951 205.648 326.503 203.952 328.775 203.952C330.999 203.952 332.455 205.488 332.455 207.808V208.368L326.407 208.384C326.519 210.032 327.383 210.944 328.871 210.944C330.039 210.944 330.807 210.464 331.063 209.568H332.471C332.087 211.248 330.775 212.192 328.839 212.192ZM328.775 205.216C327.463 205.216 326.631 206 326.439 207.376H330.951C330.951 206.08 330.103 205.216 328.775 205.216ZM334.771 212.192C334.147 212.192 333.618 211.68 333.618 211.072C333.618 210.448 334.147 209.936 334.771 209.936C335.379 209.936 335.907 210.448 335.907 211.072C335.907 211.68 335.379 212.192 334.771 212.192ZM191.316 234H189.684L193.908 222.432H195.652L199.892 234H198.244L197.204 231.12H192.34L191.316 234ZM194.58 224.928L192.82 229.76H196.74L194.964 224.928C194.884 224.704 194.804 224.432 194.772 224.256C194.74 224.416 194.66 224.688 194.58 224.928ZM200.534 231.728H201.974C201.974 232.528 202.582 233.008 203.574 233.008C204.63 233.008 205.238 232.576 205.238 231.856C205.238 231.328 204.982 231.008 204.166 230.8L202.79 230.48C201.398 230.144 200.742 229.456 200.742 228.304C200.742 226.864 201.958 225.952 203.686 225.952C205.398 225.952 206.518 226.912 206.55 228.4H205.11C205.078 227.616 204.55 227.12 203.638 227.12C202.694 227.12 202.166 227.536 202.166 228.256C202.166 228.784 202.55 229.136 203.318 229.328L204.694 229.664C206.022 229.984 206.678 230.592 206.678 231.76C206.678 233.248 205.398 234.192 203.542 234.192C201.702 234.192 200.534 233.216 200.534 231.728ZM209.882 234H208.378V222.224H209.882V229.856L213.354 226.176H215.242L212.25 229.296L215.226 234H213.498L211.21 230.384L209.882 231.776V234ZM225.902 234.176C222.606 234.176 220.414 231.808 220.414 228.224C220.414 224.656 222.67 222.24 225.982 222.24C228.59 222.24 230.59 223.792 231.022 226.16H229.342C228.91 224.656 227.614 223.744 225.934 223.744C223.598 223.744 222.062 225.504 222.062 228.208C222.062 230.912 223.598 232.672 225.934 232.672C227.63 232.672 228.974 231.76 229.406 230.336H231.07C230.574 232.64 228.51 234.176 225.902 234.176ZM234.162 233.984H232.658V222.224H234.162V227.376C234.658 226.528 235.602 225.952 236.818 225.952C238.818 225.952 239.778 227.216 239.778 229.216V234H238.274V229.552C238.274 227.968 237.522 227.328 236.402 227.328C234.946 227.328 234.162 228.384 234.162 229.728V233.984ZM244.149 234.192C242.469 234.192 241.477 233.248 241.477 231.824C241.477 230.384 242.549 229.488 244.389 229.344L246.853 229.152V228.928C246.853 227.616 246.069 227.152 245.013 227.152C243.749 227.152 243.029 227.712 243.029 228.656H241.717C241.717 227.024 243.061 225.952 245.077 225.952C247.013 225.952 248.325 226.976 248.325 229.088V234H247.045L246.885 232.736C246.485 233.632 245.413 234.192 244.149 234.192ZM244.581 233.024C246.005 233.024 246.869 232.096 246.869 230.624V230.208L244.869 230.368C243.541 230.496 242.997 231.008 242.997 231.776C242.997 232.608 243.605 233.024 244.581 233.024ZM252.491 234H250.987V227.44H249.451V226.176H250.987V223.728H252.491V226.176H254.027V227.44H252.491V234ZM260.593 223.712C258.097 223.712 256.593 225.552 256.593 228.288C256.593 231.088 258.225 232.704 260.609 232.704C262.577 232.704 264.161 231.696 264.161 229.36V229.024H260.289V227.632H265.633V234.016H264.321L264.209 232.448C263.585 233.456 262.177 234.192 260.481 234.192C257.201 234.192 254.945 231.824 254.945 228.256C254.945 224.736 257.217 222.24 260.625 222.24C263.153 222.24 265.121 223.696 265.505 225.92H263.841C263.409 224.448 262.129 223.712 260.593 223.712ZM272.363 229.872H269.435V234H267.867V222.432H272.363C274.635 222.432 276.091 223.92 276.091 226.144C276.091 228.304 274.619 229.872 272.363 229.872ZM272.091 223.84H269.435V228.464H272.027C273.579 228.464 274.443 227.552 274.443 226.128C274.443 224.672 273.563 223.84 272.091 223.84ZM276.747 223.872V222.432H285.275V223.872H281.803V234H280.235V223.872H276.747Z" fill="#666666"/>
<path d="M30.8684 45.888H21.8524V60H14.6844V19.064H30.8684C39.1004 19.064 44.4204 24.44 44.4204 32.448C44.4204 40.344 39.0444 45.888 30.8684 45.888ZM29.4684 25.448H21.8524V39.504H29.3564C34.2844 39.504 36.9164 36.872 36.9164 32.392C36.9164 27.912 34.2284 25.448 29.4684 25.448ZM56.3301 60H49.5541V18.336H56.3301V60ZM71.7288 60.728C65.8488 60.728 62.2648 57.312 62.2648 52.104C62.2648 47.008 65.9608 43.816 72.5128 43.312L80.8008 42.696V42.08C80.8008 38.328 78.5608 36.816 75.0888 36.816C71.0568 36.816 68.8168 38.496 68.8168 41.408H62.9928C62.9928 35.416 67.9208 31.496 75.4248 31.496C82.8728 31.496 87.4648 35.528 87.4648 43.2V60H81.4728L80.9688 55.912C79.7928 58.768 76.0408 60.728 71.7288 60.728ZM73.9688 55.576C78.1688 55.576 80.8568 53.056 80.8568 48.8V47.344L75.0888 47.792C70.8328 48.184 69.2088 49.584 69.2088 51.824C69.2088 54.344 70.8888 55.576 73.9688 55.576ZM91.0028 72.824V67.112H95.0908C97.7788 67.112 99.4588 66.496 100.635 63.248L101.419 61.176L90.2748 32.336H97.4988L104.611 52.496L112.115 32.336H119.171L105.619 66.16C103.547 71.312 100.635 73.44 96.0988 73.44C94.1948 73.44 92.5148 73.216 91.0028 72.824ZM145.033 60H138.257V18.336H145.033V60ZM155.616 26.792C153.264 26.792 151.416 24.944 151.416 22.648C151.416 20.352 153.264 18.56 155.616 18.56C157.856 18.56 159.704 20.352 159.704 22.648C159.704 24.944 157.856 26.792 155.616 26.792ZM152.2 60V32.336H159.032V60H152.2ZM172.979 60H166.203V18.336H172.979V43.928L183.731 32.336H192.299L181.771 43.312L192.075 60H184.235L177.011 48.352L172.979 52.552V60ZM207.342 60.728C199.11 60.728 193.342 54.736 193.342 46.168C193.342 37.488 198.998 31.496 207.118 31.496C215.406 31.496 220.67 37.04 220.67 45.664V47.736L199.838 47.792C200.342 52.664 202.918 55.128 207.454 55.128C211.206 55.128 213.67 53.672 214.454 51.04H220.782C219.606 57.088 214.566 60.728 207.342 60.728ZM207.174 37.096C203.142 37.096 200.678 39.28 200.006 43.424H213.894C213.894 39.616 211.262 37.096 207.174 37.096ZM249.463 60.728C243.583 60.728 239.999 57.312 239.999 52.104C239.999 47.008 243.695 43.816 250.247 43.312L258.535 42.696V42.08C258.535 38.328 256.295 36.816 252.823 36.816C248.791 36.816 246.551 38.496 246.551 41.408H240.727C240.727 35.416 245.655 31.496 253.159 31.496C260.607 31.496 265.199 35.528 265.199 43.2V60H259.207L258.703 55.912C257.527 58.768 253.775 60.728 249.463 60.728ZM251.703 55.576C255.903 55.576 258.591 53.056 258.591 48.8V47.344L252.823 47.792C248.567 48.184 246.943 49.584 246.943 51.824C246.943 54.344 248.623 55.576 251.703 55.576Z" fill="#121212"/>
<path d="M295.181 60H288.013V19.064H303.637C312.933 19.064 318.365 23.768 318.365 31.832C318.365 37.32 315.789 41.24 310.973 43.2L318.757 60H310.917L303.973 44.712H295.181V60ZM295.181 25.448V38.384H303.637C308.173 38.384 310.861 35.976 310.861 31.832C310.861 27.744 308.173 25.448 303.637 25.448H295.181ZM320.927 46.112C320.927 37.488 327.143 31.552 335.711 31.552C344.279 31.552 350.495 37.488 350.495 46.112C350.495 54.736 344.279 60.672 335.711 60.672C327.143 60.672 320.927 54.736 320.927 46.112ZM327.759 46.112C327.759 51.152 331.007 54.568 335.711 54.568C340.415 54.568 343.663 51.152 343.663 46.112C343.663 41.072 340.415 37.656 335.711 37.656C331.007 37.656 327.759 41.072 327.759 46.112ZM354.287 46.112C354.287 37.544 359.943 31.496 368.119 31.496C375.679 31.496 380.831 35.696 381.559 42.36H374.727C373.943 39.224 371.647 37.6 368.399 37.6C364.031 37.6 361.119 40.904 361.119 46.112C361.119 51.32 363.807 54.568 368.175 54.568C371.591 54.568 373.999 52.888 374.727 49.864H381.615C380.775 56.304 375.399 60.728 368.175 60.728C359.775 60.728 354.287 54.904 354.287 46.112ZM393.588 60H386.812V18.336H393.588V43.928L404.34 32.336H412.908L402.38 43.312L412.684 60H404.844L397.62 48.352L393.588 52.552V60ZM429.798 51.6H436.294C436.35 54.008 438.142 55.52 441.278 55.52C444.47 55.52 446.206 54.232 446.206 52.216C446.206 50.816 445.478 49.808 443.014 49.248L438.03 48.072C433.046 46.952 430.638 44.6 430.638 40.176C430.638 34.744 435.23 31.496 441.614 31.496C447.83 31.496 452.03 35.08 452.086 40.456H445.59C445.534 38.104 443.966 36.592 441.334 36.592C438.646 36.592 437.078 37.824 437.078 39.896C437.078 41.464 438.31 42.472 440.662 43.032L445.646 44.208C450.294 45.272 452.646 47.4 452.646 51.656C452.646 57.256 447.886 60.728 441.054 60.728C434.166 60.728 429.798 57.032 429.798 51.6ZM467.256 60H460.424V38.048H455.104V32.336H460.424V23.712H467.256V32.336H472.632V38.048H467.256V60ZM484.948 60.728C479.068 60.728 475.484 57.312 475.484 52.104C475.484 47.008 479.18 43.816 485.732 43.312L494.02 42.696V42.08C494.02 38.328 491.78 36.816 488.308 36.816C484.276 36.816 482.036 38.496 482.036 41.408H476.212C476.212 35.416 481.14 31.496 488.644 31.496C496.092 31.496 500.684 35.528 500.684 43.2V60H494.692L494.188 55.912C493.012 58.768 489.26 60.728 484.948 60.728ZM487.188 55.576C491.388 55.576 494.076 53.056 494.076 48.8V47.344L488.308 47.792C484.052 48.184 482.428 49.584 482.428 51.824C482.428 54.344 484.108 55.576 487.188 55.576ZM524.755 32.224V38.552H522.235C517.307 38.552 514.227 41.184 514.227 46.56V60H507.395V32.392H513.835L514.227 36.424C515.403 33.68 518.035 31.832 521.731 31.832C522.683 31.832 523.635 31.944 524.755 32.224Z" fill="#FF6428"/>
</svg>
