<svg width="1440" height="508" viewBox="0 0 1440 508" fill="none" xmlns="http://www.w3.org/2000/svg">
<rect width="1440" height="508" fill="#121212"/>
<path d="M562.466 139L553.094 107.496H556.394L562.774 129.144C563.214 130.684 563.61 132.268 564.006 134.336C564.534 132.048 564.974 130.684 565.458 129.144L572.322 107.496H575.622L582.486 129.144C582.97 130.728 583.41 132.312 583.894 134.336C584.378 131.916 584.774 130.376 585.126 129.188L591.638 107.496H594.85L585.39 139H582.398L573.95 112.248L565.502 139H562.466ZM601.692 138.956H598.656V106.924H601.692V121.4C603.056 118.848 605.652 117.132 609.216 117.132C614.804 117.132 617.312 120.608 617.312 125.976V139H614.276V126.636C614.276 121.664 611.944 119.904 608.644 119.904C604.068 119.904 601.692 123.292 601.692 127.384V138.956ZM620.778 148.284V145.776H623.11C624.958 145.776 626.806 145.644 627.862 142.784L628.786 140.276L620.162 117.704H623.374L630.238 136.272L636.97 117.704H640.094L630.326 143.884C629.094 147.228 627.026 148.592 623.99 148.592C622.714 148.592 621.746 148.504 620.778 148.284ZM660.732 139H657.74V120.256H653.472V117.704H657.74V110.972H660.732V117.704H665V120.256H660.732V139ZM680.085 117.44V120.168H678.413C674.497 120.168 671.989 122.808 671.989 126.856V139H668.953V117.704H671.813L672.033 121.004C672.869 118.716 675.113 117.22 678.105 117.22C678.765 117.22 679.337 117.264 680.085 117.44ZM682.61 148.284V145.776H684.942C686.79 145.776 688.638 145.644 689.694 142.784L690.618 140.276L681.994 117.704H685.206L692.07 136.272L698.802 117.704H701.926L692.158 143.884C690.926 147.228 688.858 148.592 685.822 148.592C684.546 148.592 683.578 148.504 682.61 148.284Z" fill="white"/>
<path d="M727.008 139L714.952 107.496H718.34L726.744 129.408C727.404 131.124 728.02 132.84 728.724 135.04C729.384 132.752 730.176 130.552 730.66 129.364L739.02 107.496H742.276L730.308 139H727.008ZM747.363 111.852C746.131 111.852 745.119 110.84 745.119 109.608C745.119 108.376 746.131 107.32 747.363 107.32C748.595 107.32 749.651 108.376 749.651 109.608C749.651 110.84 748.595 111.852 747.363 111.852ZM745.867 139V117.704H748.903V139H745.867ZM757.874 139H755.234V106.924H758.27V121.84C759.766 118.716 762.67 117.132 766.278 117.132C772.482 117.132 776.09 121.972 776.09 128.396C776.09 134.776 772.394 139.528 766.19 139.528C762.626 139.528 759.678 137.944 758.182 134.644L757.874 139ZM758.314 128.308C758.314 133.236 761.042 136.756 765.706 136.756C770.326 136.756 773.01 133.236 773.01 128.308C773.01 123.424 770.326 119.86 765.706 119.86C761.042 119.86 758.314 123.424 758.314 128.308ZM789.862 139.528C783.614 139.528 779.434 135.04 779.434 128.352C779.434 121.708 783.57 117.132 789.642 117.132C795.406 117.132 799.322 121.224 799.322 127.252V128.748H782.382C782.602 133.94 785.33 136.932 789.906 136.932C793.382 136.932 795.626 135.436 796.418 132.62H799.322C798.178 137.108 794.878 139.528 789.862 139.528ZM789.642 119.728C785.638 119.728 782.998 122.368 782.47 126.548H796.286C796.286 122.456 793.646 119.728 789.642 119.728ZM802.944 115.68C802.944 110.4 807.168 106.924 813.504 106.924C819.18 106.924 822.92 110.092 823.404 115.372H820.192C819.84 111.808 817.42 109.784 813.46 109.784C809.016 109.784 806.112 112.072 806.112 115.636C806.112 118.408 807.74 120.168 811.04 121.004L816.452 122.324C821.38 123.512 823.932 126.328 823.932 130.596C823.932 136.052 819.708 139.528 813.196 139.528C807.08 139.528 802.944 136.316 802.548 131.168H805.804C805.98 134.468 808.884 136.624 813.196 136.624C817.816 136.624 820.764 134.38 820.764 130.772C820.764 127.956 819.18 126.108 815.792 125.316L810.468 123.996C805.54 122.808 802.944 119.992 802.944 115.68ZM833.853 139H830.861V120.256H826.593V117.704H830.861V110.972H833.853V117.704H838.121V120.256H833.853V139ZM853.206 117.44V120.168H851.534C847.618 120.168 845.11 122.808 845.11 126.856V139H842.074V117.704H844.934L845.154 121.004C845.99 118.716 848.234 117.22 851.226 117.22C851.886 117.22 852.458 117.264 853.206 117.44ZM858.738 111.852C857.506 111.852 856.494 110.84 856.494 109.608C856.494 108.376 857.506 107.32 858.738 107.32C859.97 107.32 861.026 108.376 861.026 109.608C861.026 110.84 859.97 111.852 858.738 111.852ZM857.242 139V117.704H860.278V139H857.242ZM869.645 139H866.609V117.704H869.249L869.689 121.4C871.097 118.672 873.913 117.132 876.993 117.132C882.845 117.132 885.265 120.608 885.265 125.976V139H882.229V126.636C882.229 121.664 879.985 119.904 876.465 119.904C872.109 119.904 869.645 123.072 869.645 127.868V139ZM889.864 127.736C889.864 121.928 893.604 117.132 899.852 117.132C903.548 117.132 906.364 118.848 907.728 121.972L908.036 117.704H910.676V138.34C910.676 144.676 906.628 148.812 900.38 148.812C894.924 148.812 891.096 145.732 890.26 140.584H893.296C893.956 144.016 896.596 146.04 900.424 146.04C904.78 146.04 907.684 143.092 907.684 138.648V133.588C906.232 136.58 903.284 138.34 899.632 138.34C893.56 138.34 889.864 133.544 889.864 127.736ZM892.9 127.692C892.9 132.048 895.584 135.612 900.072 135.612C904.692 135.612 907.42 132.268 907.42 127.692C907.42 123.16 904.78 119.816 900.116 119.816C895.54 119.816 892.9 123.38 892.9 127.692ZM915.208 133.016H918.112C918.112 135.48 919.96 137.02 922.952 137.02C926.252 137.02 928.188 135.612 928.188 133.324C928.188 131.564 927.308 130.552 924.8 129.936L921.148 129.012C917.452 128.088 915.648 126.152 915.648 123.248C915.648 119.508 918.772 117.132 923.348 117.132C927.836 117.132 930.74 119.596 930.872 123.556H927.924C927.836 121.092 926.12 119.64 923.26 119.64C920.268 119.64 918.596 120.916 918.596 123.204C918.596 124.832 919.74 125.976 922.072 126.548L925.724 127.472C929.42 128.396 931.092 130.112 931.092 133.192C931.092 137.02 927.836 139.528 922.996 139.528C918.2 139.528 915.208 136.976 915.208 133.016ZM944.582 131.784H941.722V130.64C941.722 127.032 944.054 125.096 946.518 123.248C948.806 121.488 950.962 119.684 950.962 116.472C950.962 112.732 948.366 109.828 944.318 109.828C940.49 109.828 937.498 112.864 937.498 116.692H934.418C934.418 111.192 938.774 106.924 944.318 106.924C950.346 106.924 954.086 111.016 954.086 116.384C954.086 120.916 951.182 123.16 948.586 125.096C946.122 126.856 944.582 128.308 944.582 130.64V131.784ZM943.35 139.616C941.81 139.616 940.578 138.34 940.578 136.844C940.578 135.348 941.81 134.116 943.35 134.116C944.846 134.116 946.078 135.348 946.078 136.844C946.078 138.34 944.846 139.616 943.35 139.616Z" fill="#FF6428"/>
<path d="M655.735 352H647.563V338.842H655.735V340.966H649.867V344.35H655.123V346.384H649.867V349.876H655.735V352ZM660.807 352H658.413L663.165 338.842H665.523L670.275 352H667.845L666.783 348.958H661.869L660.807 352ZM664.047 342.766L662.553 347.014H666.117L664.605 342.766C664.497 342.424 664.371 342.028 664.335 341.758C664.281 342.01 664.173 342.406 664.047 342.766ZM672.609 342.514C672.609 340.21 674.517 338.608 677.289 338.608C679.953 338.608 681.645 340.084 681.717 342.46H679.413C679.359 341.326 678.549 340.66 677.253 340.66C675.831 340.66 674.913 341.344 674.913 342.442C674.913 343.378 675.417 343.9 676.515 344.152L678.585 344.602C680.835 345.088 681.933 346.24 681.933 348.202C681.933 350.65 680.025 352.234 677.127 352.234C674.319 352.234 672.483 350.74 672.429 348.382H674.733C674.751 349.498 675.651 350.164 677.127 350.164C678.657 350.164 679.629 349.498 679.629 348.4C679.629 347.518 679.179 346.996 678.099 346.762L676.011 346.294C673.779 345.808 672.609 344.53 672.609 342.514ZM688.273 346.816L683.827 338.842H686.401L688.993 343.63C689.191 343.99 689.317 344.278 689.461 344.602C689.623 344.278 689.695 344.062 689.929 343.63L692.503 338.842H695.005L690.577 346.816V352H688.273V346.816ZM709.102 352H704.368V338.842H708.976C712.864 338.842 715.546 341.524 715.546 345.448C715.546 349.318 712.918 352 709.102 352ZM708.76 340.966H706.672V349.876H708.886C711.514 349.876 713.116 348.184 713.116 345.448C713.116 342.658 711.478 340.966 708.76 340.966ZM727.305 352H719.133V338.842H727.305V340.966H721.437V344.35H726.693V346.384H721.437V349.876H727.305V352ZM733.546 338.842V349.876H739.054V352H731.242V338.842H733.546ZM744.672 338.842V352H742.368V338.842H744.672ZM752.719 352L747.751 338.842H750.199L753.079 346.42C753.367 347.212 753.619 347.986 753.907 349.048C754.231 347.896 754.501 347.086 754.753 346.42L757.597 338.842H759.991L755.095 352H752.719ZM771.244 352H763.072V338.842H771.244V340.966H765.376V344.35H770.632V346.384H765.376V349.876H771.244V352ZM777.486 352H775.182V338.842H780.204C783.192 338.842 784.938 340.354 784.938 342.946C784.938 344.71 784.11 345.97 782.562 346.6L785.064 352H782.544L780.312 347.086H777.486V352ZM777.486 340.894V345.052H780.204C781.662 345.052 782.526 344.278 782.526 342.946C782.526 341.632 781.662 340.894 780.204 340.894H777.486ZM791.55 346.816L787.104 338.842H789.678L792.27 343.63C792.468 343.99 792.594 344.278 792.738 344.602C792.9 344.278 792.972 344.062 793.206 343.63L795.78 338.842H798.282L793.854 346.816V352H791.55V346.816Z" fill="white"/>
<path d="M167.751 342.514C167.751 340.21 169.659 338.608 172.431 338.608C175.095 338.608 176.787 340.084 176.859 342.46H174.555C174.501 341.326 173.691 340.66 172.395 340.66C170.973 340.66 170.055 341.344 170.055 342.442C170.055 343.378 170.559 343.9 171.657 344.152L173.727 344.602C175.977 345.088 177.075 346.24 177.075 348.202C177.075 350.65 175.167 352.234 172.269 352.234C169.461 352.234 167.625 350.74 167.571 348.382H169.875C169.893 349.498 170.793 350.164 172.269 350.164C173.799 350.164 174.771 349.498 174.771 348.4C174.771 347.518 174.321 346.996 173.241 346.762L171.153 346.294C168.921 345.808 167.751 344.53 167.751 342.514ZM182.831 352H180.599V338.842H182.831L187.079 349.318L191.327 338.842H193.595V352H191.363V347.95C191.363 345.304 191.363 344.53 191.489 343.594L188.141 352H186.017L182.687 343.612C182.813 344.404 182.831 345.646 182.831 347.284V352ZM209.953 345.412C209.953 349.408 207.325 352.216 203.545 352.216C199.783 352.216 197.191 349.426 197.191 345.412C197.191 341.416 199.801 338.608 203.563 338.608C207.325 338.608 209.953 341.398 209.953 345.412ZM207.523 345.412C207.523 342.604 205.975 340.822 203.563 340.822C201.151 340.822 199.603 342.604 199.603 345.412C199.603 348.22 201.151 350.002 203.563 350.002C205.975 350.002 207.523 348.184 207.523 345.412ZM225.544 345.412C225.544 349.408 222.916 352.216 219.136 352.216C215.374 352.216 212.782 349.426 212.782 345.412C212.782 341.416 215.392 338.608 219.154 338.608C222.916 338.608 225.544 341.398 225.544 345.412ZM223.114 345.412C223.114 342.604 221.566 340.822 219.154 340.822C216.742 340.822 215.194 342.604 215.194 345.412C215.194 348.22 216.742 350.002 219.154 350.002C221.566 350.002 223.114 348.184 223.114 345.412ZM227.519 340.966V338.842H237.527V340.966H233.675V352H231.371V340.966H227.519ZM243.032 352H240.728V338.842H243.032V344.278H248.864V338.842H251.168V352H248.864V346.42H243.032V352ZM261.819 352V338.842H267.057C269.649 338.842 271.233 340.192 271.233 342.388C271.233 343.846 270.585 344.89 269.343 345.412C270.729 345.862 271.431 346.906 271.431 348.436C271.431 350.686 269.865 352 267.147 352H261.819ZM266.859 340.876H264.123V344.458H266.913C268.173 344.458 268.875 343.792 268.875 342.622C268.875 341.488 268.155 340.876 266.859 340.876ZM267.057 346.402H264.123V349.966H267.057C268.353 349.966 269.073 349.336 269.073 348.148C269.073 347.032 268.335 346.402 267.057 346.402ZM277.288 352H274.984V338.842H280.006C282.994 338.842 284.74 340.354 284.74 342.946C284.74 344.71 283.912 345.97 282.364 346.6L284.866 352H282.346L280.114 347.086H277.288V352ZM277.288 340.894V345.052H280.006C281.464 345.052 282.328 344.278 282.328 342.946C282.328 341.632 281.464 340.894 280.006 340.894H277.288ZM300.453 345.412C300.453 349.408 297.825 352.216 294.045 352.216C290.283 352.216 287.691 349.426 287.691 345.412C287.691 341.416 290.301 338.608 294.063 338.608C297.825 338.608 300.453 341.398 300.453 345.412ZM298.023 345.412C298.023 342.604 296.475 340.822 294.063 340.822C291.651 340.822 290.103 342.604 290.103 345.412C290.103 348.22 291.651 350.002 294.063 350.002C296.475 350.002 298.023 348.184 298.023 345.412ZM306.282 352L302.358 338.842H304.752L306.84 345.79C307.038 346.51 307.236 347.248 307.434 348.4C307.65 347.23 307.848 346.546 308.082 345.79L310.152 338.842H312.69L314.724 345.79C314.94 346.528 315.138 347.284 315.354 348.4C315.606 347.176 315.786 346.474 315.984 345.808L318.108 338.842H320.448L316.452 352H314.22L311.412 342.424L308.55 352H306.282ZM322.739 342.514C322.739 340.21 324.647 338.608 327.419 338.608C330.083 338.608 331.775 340.084 331.847 342.46H329.543C329.489 341.326 328.679 340.66 327.383 340.66C325.961 340.66 325.043 341.344 325.043 342.442C325.043 343.378 325.547 343.9 326.645 344.152L328.715 344.602C330.965 345.088 332.063 346.24 332.063 348.202C332.063 350.65 330.155 352.234 327.257 352.234C324.449 352.234 322.613 350.74 322.559 348.382H324.863C324.881 349.498 325.781 350.164 327.257 350.164C328.787 350.164 329.759 349.498 329.759 348.4C329.759 347.518 329.309 346.996 328.229 346.762L326.141 346.294C323.909 345.808 322.739 344.53 322.739 342.514ZM337.892 338.842V352H335.588V338.842H337.892ZM344.516 352H342.248V338.842H344.534L350.708 348.166V338.842H352.976V352H350.708L344.516 342.676V352ZM363.089 340.786C360.479 340.786 358.985 342.676 358.985 345.52C358.985 348.454 360.677 350.056 363.107 350.056C365.393 350.056 366.779 348.796 366.779 346.69V346.636H362.801V344.602H368.921V352H366.977L366.833 350.488C366.113 351.496 364.619 352.198 362.837 352.198C359.147 352.198 356.573 349.516 356.573 345.466C356.573 341.47 359.183 338.626 363.143 338.626C366.149 338.626 368.471 340.372 368.849 343.054H366.419C366.005 341.506 364.673 340.786 363.089 340.786Z" fill="white"/>
<path d="M1085.99 342.514C1085.99 340.21 1087.9 338.608 1090.67 338.608C1093.33 338.608 1095.03 340.084 1095.1 342.46H1092.79C1092.74 341.326 1091.93 340.66 1090.63 340.66C1089.21 340.66 1088.29 341.344 1088.29 342.442C1088.29 343.378 1088.8 343.9 1089.9 344.152L1091.97 344.602C1094.22 345.088 1095.31 346.24 1095.31 348.202C1095.31 350.65 1093.41 352.234 1090.51 352.234C1087.7 352.234 1085.86 350.74 1085.81 348.382H1088.11C1088.13 349.498 1089.03 350.164 1090.51 350.164C1092.04 350.164 1093.01 349.498 1093.01 348.4C1093.01 347.518 1092.56 346.996 1091.48 346.762L1089.39 346.294C1087.16 345.808 1085.99 344.53 1085.99 342.514ZM1101.4 352L1097.47 338.842H1099.87L1101.96 345.79C1102.15 346.51 1102.35 347.248 1102.55 348.4C1102.77 347.23 1102.96 346.546 1103.2 345.79L1105.27 338.842H1107.81L1109.84 345.79C1110.06 346.528 1110.25 347.284 1110.47 348.4C1110.72 347.176 1110.9 346.474 1111.1 345.808L1113.22 338.842H1115.56L1111.57 352H1109.34L1106.53 342.424L1103.67 352H1101.4ZM1121.04 338.842V352H1118.73V338.842H1121.04ZM1132.6 346.618H1127.7V352H1125.4V338.842H1133.53V340.966H1127.7V344.548H1132.6V346.618ZM1135.9 340.966V338.842H1145.9V340.966H1142.05V352H1139.75V340.966H1135.9ZM1160.6 347.464H1157.7V352H1155.4V338.842H1160.6C1163.25 338.842 1164.96 340.57 1164.96 343.144C1164.96 345.682 1163.23 347.464 1160.6 347.464ZM1160.15 340.894H1157.7V345.412H1160.11C1161.7 345.412 1162.54 344.566 1162.54 343.126C1162.54 341.686 1161.68 340.894 1160.15 340.894ZM1168.76 352H1166.37L1171.12 338.842H1173.48L1178.23 352H1175.8L1174.74 348.958H1169.83L1168.76 352ZM1172 342.766L1170.51 347.014H1174.07L1172.56 342.766C1172.45 342.424 1172.33 342.028 1172.29 341.758C1172.24 342.01 1172.13 342.406 1172 342.766ZM1183.12 346.816L1178.67 338.842H1181.25L1183.84 343.63C1184.04 343.99 1184.16 344.278 1184.31 344.602C1184.47 344.278 1184.54 344.062 1184.78 343.63L1187.35 338.842H1189.85L1185.42 346.816V352H1183.12V346.816ZM1195.15 352H1192.92V338.842H1195.15L1199.4 349.318L1203.65 338.842H1205.92V352H1203.69V347.95C1203.69 345.304 1203.69 344.53 1203.81 343.594L1200.46 352H1198.34L1195.01 343.612C1195.14 344.404 1195.15 345.646 1195.15 347.284V352ZM1218.44 352H1210.27V338.842H1218.44V340.966H1212.57V344.35H1217.83V346.384H1212.57V349.876H1218.44V352ZM1224.65 352H1222.38V338.842H1224.67L1230.84 348.166V338.842H1233.11V352H1230.84L1224.65 342.676V352ZM1236.31 340.966V338.842H1246.32V340.966H1242.47V352H1240.16V340.966H1236.31ZM1248.76 342.514C1248.76 340.21 1250.67 338.608 1253.44 338.608C1256.11 338.608 1257.8 340.084 1257.87 342.46H1255.57C1255.51 341.326 1254.7 340.66 1253.41 340.66C1251.98 340.66 1251.07 341.344 1251.07 342.442C1251.07 343.378 1251.57 343.9 1252.67 344.152L1254.74 344.602C1256.99 345.088 1258.09 346.24 1258.09 348.202C1258.09 350.65 1256.18 352.234 1253.28 352.234C1250.47 352.234 1248.64 350.74 1248.58 348.382H1250.89C1250.9 349.498 1251.8 350.164 1253.28 350.164C1254.81 350.164 1255.78 349.498 1255.78 348.4C1255.78 347.518 1255.33 346.996 1254.25 346.762L1252.16 346.294C1249.93 345.808 1248.76 344.53 1248.76 342.514Z" fill="white"/>
<rect x="232" y="221" width="72" height="72" rx="20" fill="#262626"/>
<rect x="684" y="221" width="72" height="72" rx="20" fill="#262626"/>
<rect x="1136" y="221" width="72" height="72" rx="20" fill="#262626"/>
<path d="M184.371 376.976V386.076H188.977V387H183.363V376.976H184.371ZM189.663 383.612C189.663 381.54 191.119 380.042 193.107 380.042C195.095 380.042 196.551 381.54 196.551 383.612C196.551 385.67 195.095 387.168 193.107 387.168C191.119 387.168 189.663 385.67 189.663 383.612ZM190.643 383.598C190.643 385.194 191.651 386.3 193.107 386.3C194.549 386.3 195.571 385.194 195.571 383.598C195.571 382.03 194.549 380.91 193.107 380.91C191.651 380.91 190.643 382.03 190.643 383.598ZM201.638 380.14V381.008H201.106C199.86 381.008 199.062 381.848 199.062 383.136V387H198.096V380.224H199.006L199.076 381.274C199.342 380.546 200.056 380.07 201.008 380.07C201.218 380.07 201.4 380.084 201.638 380.14ZM205.504 387.168C203.516 387.168 202.186 385.74 202.186 383.612C202.186 381.498 203.502 380.042 205.434 380.042C207.268 380.042 208.514 381.344 208.514 383.262V383.738H203.124C203.194 385.39 204.062 386.342 205.518 386.342C206.624 386.342 207.338 385.866 207.59 384.97H208.514C208.15 386.398 207.1 387.168 205.504 387.168ZM205.434 380.868C204.16 380.868 203.32 381.708 203.152 383.038H207.548C207.548 381.736 206.708 380.868 205.434 380.868ZM211.025 387H210.059V380.224H210.899L211.011 381.19C211.347 380.476 212.103 380.042 213.055 380.042C214.119 380.042 214.917 380.602 215.239 381.484C215.547 380.602 216.373 380.042 217.465 380.042C218.935 380.042 219.901 380.994 219.901 382.562V387H218.963V382.758C218.963 381.596 218.319 380.91 217.283 380.91C216.149 380.91 215.477 381.764 215.477 382.814V387H214.525V382.744C214.525 381.596 213.867 380.924 212.845 380.924C211.711 380.924 211.025 381.764 211.025 382.8V387ZM226.945 376.976V387H225.937V376.976H226.945ZM229.172 389.954V380.224H230.012L230.11 381.596C230.586 380.546 231.538 380.042 232.672 380.042C234.632 380.042 235.808 381.54 235.808 383.584C235.808 385.628 234.674 387.168 232.672 387.168C231.524 387.168 230.614 386.678 230.138 385.698V389.954H229.172ZM230.152 383.612C230.152 385.166 231.02 386.3 232.504 386.3C233.974 386.3 234.828 385.166 234.828 383.612C234.828 382.044 233.974 380.924 232.504 380.924C231.02 380.924 230.152 382.044 230.152 383.612ZM236.774 385.096H237.698C237.698 385.88 238.286 386.37 239.238 386.37C240.288 386.37 240.904 385.922 240.904 385.194C240.904 384.634 240.624 384.312 239.826 384.116L238.664 383.822C237.488 383.528 236.914 382.912 236.914 381.988C236.914 380.798 237.908 380.042 239.364 380.042C240.792 380.042 241.716 380.826 241.758 382.086H240.82C240.792 381.302 240.246 380.84 239.336 380.84C238.384 380.84 237.852 381.246 237.852 381.974C237.852 382.492 238.216 382.856 238.958 383.038L240.12 383.332C241.296 383.626 241.828 384.172 241.828 385.152C241.828 386.37 240.792 387.168 239.252 387.168C237.726 387.168 236.774 386.356 236.774 385.096ZM248.178 380.224H249.144V387H248.304L248.178 385.852C247.8 386.636 246.862 387.168 245.798 387.168C244.202 387.168 243.334 386.076 243.334 384.424V380.21H244.314V384.116C244.314 385.726 245.028 386.3 246.106 386.3C247.408 386.3 248.178 385.432 248.178 383.822V380.224ZM252.122 387H251.156V380.224H251.996L252.108 381.19C252.444 380.476 253.2 380.042 254.152 380.042C255.216 380.042 256.014 380.602 256.336 381.484C256.644 380.602 257.47 380.042 258.562 380.042C260.032 380.042 260.998 380.994 260.998 382.562V387H260.06V382.758C260.06 381.596 259.416 380.91 258.38 380.91C257.246 380.91 256.574 381.764 256.574 382.814V387H255.622V382.744C255.622 381.596 254.964 380.924 253.942 380.924C252.808 380.924 252.122 381.764 252.122 382.8V387ZM270.086 387H267.034V376.976H270.058C273.082 376.976 275.098 378.992 275.098 381.988C275.098 384.984 273.096 387 270.086 387ZM270.016 377.9H268.042V386.076H270.044C272.494 386.076 274.062 384.48 274.062 381.988C274.062 379.482 272.494 377.9 270.016 377.9ZM276.233 383.612C276.233 381.54 277.689 380.042 279.677 380.042C281.665 380.042 283.121 381.54 283.121 383.612C283.121 385.67 281.665 387.168 279.677 387.168C277.689 387.168 276.233 385.67 276.233 383.612ZM277.213 383.598C277.213 385.194 278.221 386.3 279.677 386.3C281.119 386.3 282.141 385.194 282.141 383.598C282.141 382.03 281.119 380.91 279.677 380.91C278.221 380.91 277.213 382.03 277.213 383.598ZM285.674 387H284.708V376.794H285.674V387ZM287.253 383.612C287.253 381.54 288.709 380.042 290.697 380.042C292.685 380.042 294.141 381.54 294.141 383.612C294.141 385.67 292.685 387.168 290.697 387.168C288.709 387.168 287.253 385.67 287.253 383.612ZM288.233 383.598C288.233 385.194 289.241 386.3 290.697 386.3C292.139 386.3 293.161 385.194 293.161 383.598C293.161 382.03 292.139 380.91 290.697 380.91C289.241 380.91 288.233 382.03 288.233 383.598ZM299.228 380.14V381.008H298.696C297.45 381.008 296.652 381.848 296.652 383.136V387H295.686V380.224H296.596L296.666 381.274C296.932 380.546 297.646 380.07 298.598 380.07C298.808 380.07 298.99 380.084 299.228 380.14ZM304.003 379.58C304.003 377.9 305.347 376.794 307.363 376.794C309.169 376.794 310.359 377.802 310.513 379.482H309.491C309.379 378.348 308.609 377.704 307.349 377.704C305.935 377.704 305.011 378.432 305.011 379.566C305.011 380.448 305.529 381.008 306.579 381.274L308.301 381.694C309.869 382.072 310.681 382.968 310.681 384.326C310.681 386.062 309.337 387.168 307.265 387.168C305.319 387.168 304.003 386.146 303.877 384.508H304.913C304.969 385.558 305.893 386.244 307.265 386.244C308.735 386.244 309.673 385.53 309.673 384.382C309.673 383.486 309.169 382.898 308.091 382.646L306.397 382.226C304.829 381.848 304.003 380.952 304.003 379.58ZM312.759 378.362C312.367 378.362 312.045 378.04 312.045 377.648C312.045 377.256 312.367 376.92 312.759 376.92C313.151 376.92 313.487 377.256 313.487 377.648C313.487 378.04 313.151 378.362 312.759 378.362ZM312.283 387V380.224H313.249V387H312.283ZM316.818 387H315.866V381.036H314.508V380.224H315.866V378.082H316.818V380.224H318.176V381.036H316.818V387ZM323.527 387H322.505L326.187 376.976H327.433L331.157 387H330.107L329.127 384.34H324.507L323.527 387ZM326.677 378.39L324.815 383.458H328.805L326.929 378.39C326.887 378.25 326.817 378.082 326.803 377.984C326.789 378.068 326.733 378.25 326.677 378.39ZM333.306 387H332.34V380.224H333.18L333.292 381.19C333.628 380.476 334.384 380.042 335.336 380.042C336.4 380.042 337.198 380.602 337.52 381.484C337.828 380.602 338.654 380.042 339.746 380.042C341.216 380.042 342.182 380.994 342.182 382.562V387H341.244V382.758C341.244 381.596 340.6 380.91 339.564 380.91C338.43 380.91 337.758 381.764 337.758 382.814V387H336.806V382.744C336.806 381.596 336.148 380.924 335.126 380.924C333.992 380.924 333.306 381.764 333.306 382.8V387ZM346.967 387.168C344.979 387.168 343.649 385.74 343.649 383.612C343.649 381.498 344.965 380.042 346.897 380.042C348.731 380.042 349.977 381.344 349.977 383.262V383.738H344.587C344.657 385.39 345.525 386.342 346.981 386.342C348.087 386.342 348.801 385.866 349.053 384.97H349.977C349.613 386.398 348.563 387.168 346.967 387.168ZM346.897 380.868C345.623 380.868 344.783 381.708 344.615 383.038H349.011C349.011 381.736 348.171 380.868 346.897 380.868ZM353.007 387H352.055V381.036H350.697V380.224H352.055V378.082H353.007V380.224H354.365V381.036H353.007V387ZM356.907 386.524C356.907 387.392 356.235 388.148 355.367 388.274V387.756C355.871 387.672 356.235 387.308 356.235 386.916C356.151 386.972 356.039 387.014 355.871 387.014C355.479 387.014 355.143 386.734 355.143 386.258C355.143 385.768 355.479 385.418 355.969 385.418C356.473 385.418 356.907 385.824 356.907 386.524ZM191.518 406.154C188.718 406.154 186.814 404.068 186.814 400.988C186.814 397.908 188.746 395.808 191.574 395.808C193.73 395.808 195.424 397.11 195.83 399.098H194.752C194.332 397.656 193.1 396.774 191.532 396.774C189.334 396.774 187.864 398.454 187.864 400.988C187.864 403.508 189.334 405.188 191.532 405.188C193.114 405.188 194.374 404.334 194.808 402.99H195.886C195.424 404.88 193.674 406.154 191.518 406.154ZM196.943 402.612C196.943 400.54 198.399 399.042 200.387 399.042C202.375 399.042 203.831 400.54 203.831 402.612C203.831 404.67 202.375 406.168 200.387 406.168C198.399 406.168 196.943 404.67 196.943 402.612ZM197.923 402.598C197.923 404.194 198.931 405.3 200.387 405.3C201.829 405.3 202.851 404.194 202.851 402.598C202.851 401.03 201.829 399.91 200.387 399.91C198.931 399.91 197.923 401.03 197.923 402.598ZM206.342 406H205.376V399.224H206.216L206.356 400.4C206.804 399.532 207.7 399.042 208.68 399.042C210.542 399.042 211.312 400.148 211.312 401.856V406H210.346V402.066C210.346 400.484 209.632 399.924 208.512 399.924C207.126 399.924 206.342 400.932 206.342 402.458V406ZM212.581 404.096H213.505C213.505 404.88 214.093 405.37 215.045 405.37C216.095 405.37 216.711 404.922 216.711 404.194C216.711 403.634 216.431 403.312 215.633 403.116L214.471 402.822C213.295 402.528 212.721 401.912 212.721 400.988C212.721 399.798 213.715 399.042 215.171 399.042C216.599 399.042 217.523 399.826 217.565 401.086H216.627C216.599 400.302 216.053 399.84 215.143 399.84C214.191 399.84 213.659 400.246 213.659 400.974C213.659 401.492 214.023 401.856 214.765 402.038L215.927 402.332C217.103 402.626 217.635 403.172 217.635 404.152C217.635 405.37 216.599 406.168 215.059 406.168C213.533 406.168 212.581 405.356 212.581 404.096ZM222.068 406.168C220.08 406.168 218.75 404.74 218.75 402.612C218.75 400.498 220.066 399.042 221.998 399.042C223.832 399.042 225.078 400.344 225.078 402.262V402.738H219.688C219.758 404.39 220.626 405.342 222.082 405.342C223.188 405.342 223.902 404.866 224.154 403.97H225.078C224.714 405.398 223.664 406.168 222.068 406.168ZM221.998 399.868C220.724 399.868 219.884 400.708 219.716 402.038H224.112C224.112 400.736 223.272 399.868 221.998 399.868ZM226.146 402.626C226.146 400.498 227.448 399.042 229.422 399.042C230.99 399.042 232.138 399.952 232.404 401.352H231.438C231.186 400.414 230.374 399.896 229.436 399.896C228.064 399.896 227.098 400.946 227.098 402.612C227.098 404.222 227.994 405.3 229.366 405.3C230.374 405.3 231.186 404.74 231.452 403.872H232.432C232.11 405.258 230.906 406.168 229.366 406.168C227.448 406.168 226.146 404.754 226.146 402.626ZM235.45 406H234.498V400.036H233.14V399.224H234.498V397.082H235.45V399.224H236.808V400.036H235.45V406ZM240.839 406.168C238.851 406.168 237.521 404.74 237.521 402.612C237.521 400.498 238.837 399.042 240.769 399.042C242.603 399.042 243.849 400.344 243.849 402.262V402.738H238.459C238.529 404.39 239.397 405.342 240.853 405.342C241.959 405.342 242.673 404.866 242.925 403.97H243.849C243.485 405.398 242.435 406.168 240.839 406.168ZM240.769 399.868C239.495 399.868 238.655 400.708 238.487 402.038H242.883C242.883 400.736 242.043 399.868 240.769 399.868ZM246.879 406H245.927V400.036H244.569V399.224H245.927V397.082H246.879V399.224H248.237V400.036H246.879V406ZM254.255 399.224H255.221V406H254.381L254.255 404.852C253.877 405.636 252.939 406.168 251.875 406.168C250.279 406.168 249.411 405.076 249.411 403.424V399.21H250.391V403.116C250.391 404.726 251.105 405.3 252.183 405.3C253.485 405.3 254.255 404.432 254.255 402.822V399.224ZM260.776 399.14V400.008H260.244C258.998 400.008 258.2 400.848 258.2 402.136V406H257.234V399.224H258.144L258.214 400.274C258.48 399.546 259.194 399.07 260.146 399.07C260.356 399.07 260.538 399.084 260.776 399.14ZM266.153 406H265.131L268.813 395.976H270.059L273.783 406H272.733L271.753 403.34H267.133L266.153 406ZM269.303 397.39L267.441 402.458H271.431L269.555 397.39C269.513 397.25 269.443 397.082 269.429 396.984C269.415 397.068 269.359 397.25 269.303 397.39ZM277.394 406.168C275.42 406.168 274.258 404.656 274.258 402.626C274.258 400.582 275.42 399.042 277.436 399.042C278.556 399.042 279.452 399.532 279.928 400.512V395.794H280.894V406H280.054L279.956 404.614C279.48 405.664 278.528 406.168 277.394 406.168ZM277.562 405.286C279.046 405.286 279.914 404.166 279.914 402.598C279.914 401.044 279.046 399.91 277.562 399.91C276.092 399.91 275.238 401.044 275.238 402.598C275.238 404.166 276.092 405.286 277.562 405.286ZM283.385 397.362C282.993 397.362 282.671 397.04 282.671 396.648C282.671 396.256 282.993 395.92 283.385 395.92C283.777 395.92 284.113 396.256 284.113 396.648C284.113 397.04 283.777 397.362 283.385 397.362ZM282.909 406V399.224H283.875V406H282.909ZM285.89 408.954V399.224H286.73L286.828 400.596C287.304 399.546 288.256 399.042 289.39 399.042C291.35 399.042 292.526 400.54 292.526 402.584C292.526 404.628 291.392 406.168 289.39 406.168C288.242 406.168 287.332 405.678 286.856 404.698V408.954H285.89ZM286.87 402.612C286.87 404.166 287.738 405.3 289.222 405.3C290.692 405.3 291.546 404.166 291.546 402.612C291.546 401.044 290.692 399.924 289.222 399.924C287.738 399.924 286.87 401.044 286.87 402.612ZM294.542 397.362C294.15 397.362 293.828 397.04 293.828 396.648C293.828 396.256 294.15 395.92 294.542 395.92C294.934 395.92 295.27 396.256 295.27 396.648C295.27 397.04 294.934 397.362 294.542 397.362ZM294.066 406V399.224H295.032V406H294.066ZM296.472 404.096H297.396C297.396 404.88 297.984 405.37 298.936 405.37C299.986 405.37 300.602 404.922 300.602 404.194C300.602 403.634 300.322 403.312 299.524 403.116L298.362 402.822C297.186 402.528 296.612 401.912 296.612 400.988C296.612 399.798 297.606 399.042 299.062 399.042C300.49 399.042 301.414 399.826 301.456 401.086H300.518C300.49 400.302 299.944 399.84 299.034 399.84C298.082 399.84 297.55 400.246 297.55 400.974C297.55 401.492 297.914 401.856 298.656 402.038L299.818 402.332C300.994 402.626 301.526 403.172 301.526 404.152C301.526 405.37 300.49 406.168 298.95 406.168C297.424 406.168 296.472 405.356 296.472 404.096ZM302.64 402.626C302.64 400.498 303.942 399.042 305.916 399.042C307.484 399.042 308.632 399.952 308.898 401.352H307.932C307.68 400.414 306.868 399.896 305.93 399.896C304.558 399.896 303.592 400.946 303.592 402.612C303.592 404.222 304.488 405.3 305.86 405.3C306.868 405.3 307.68 404.74 307.946 403.872H308.926C308.604 405.258 307.4 406.168 305.86 406.168C303.942 406.168 302.64 404.754 302.64 402.626ZM310.866 397.362C310.474 397.362 310.152 397.04 310.152 396.648C310.152 396.256 310.474 395.92 310.866 395.92C311.258 395.92 311.594 396.256 311.594 396.648C311.594 397.04 311.258 397.362 310.866 397.362ZM310.39 406V399.224H311.356V406H310.39ZM314.336 406H313.37V399.224H314.21L314.35 400.4C314.798 399.532 315.694 399.042 316.674 399.042C318.536 399.042 319.306 400.148 319.306 401.856V406H318.34V402.066C318.34 400.484 317.626 399.924 316.506 399.924C315.12 399.924 314.336 400.932 314.336 402.458V406ZM320.77 402.416C320.77 400.568 321.96 399.042 323.948 399.042C325.124 399.042 326.02 399.588 326.454 400.582L326.552 399.224H327.392V405.79C327.392 407.806 326.104 409.122 324.116 409.122C322.38 409.122 321.162 408.142 320.896 406.504H321.862C322.072 407.596 322.912 408.24 324.13 408.24C325.516 408.24 326.44 407.302 326.44 405.888V404.278C325.978 405.23 325.04 405.79 323.878 405.79C321.946 405.79 320.77 404.264 320.77 402.416ZM321.736 402.402C321.736 403.788 322.59 404.922 324.018 404.922C325.488 404.922 326.356 403.858 326.356 402.402C326.356 400.96 325.516 399.896 324.032 399.896C322.576 399.896 321.736 401.03 321.736 402.402ZM339.506 406H333.5V395.976H339.492V396.9H334.508V400.512H339.03V401.422H334.508V405.076H339.506V406ZM342.351 406H341.385V395.794H342.351V406ZM344.881 397.362C344.489 397.362 344.167 397.04 344.167 396.648C344.167 396.256 344.489 395.92 344.881 395.92C345.273 395.92 345.609 396.256 345.609 396.648C345.609 397.04 345.273 397.362 344.881 397.362ZM344.405 406V399.224H345.371V406H344.405ZM348.94 406H347.988V400.036H346.63V399.224H347.988V397.082H348.94V399.224H350.298V400.036H348.94V406ZM351.958 406.154C351.482 406.154 351.076 405.762 351.076 405.3C351.076 404.824 351.482 404.418 351.958 404.418C352.434 404.418 352.84 404.824 352.84 405.3C352.84 405.762 352.434 406.154 351.958 406.154Z" fill="#666666"/>
<path d="M634.371 376.976V386.076H638.977V387H633.363V376.976H634.371ZM639.663 383.612C639.663 381.54 641.119 380.042 643.107 380.042C645.095 380.042 646.551 381.54 646.551 383.612C646.551 385.67 645.095 387.168 643.107 387.168C641.119 387.168 639.663 385.67 639.663 383.612ZM640.643 383.598C640.643 385.194 641.651 386.3 643.107 386.3C644.549 386.3 645.571 385.194 645.571 383.598C645.571 382.03 644.549 380.91 643.107 380.91C641.651 380.91 640.643 382.03 640.643 383.598ZM651.638 380.14V381.008H651.106C649.86 381.008 649.062 381.848 649.062 383.136V387H648.096V380.224H649.006L649.076 381.274C649.342 380.546 650.056 380.07 651.008 380.07C651.218 380.07 651.4 380.084 651.638 380.14ZM655.504 387.168C653.516 387.168 652.186 385.74 652.186 383.612C652.186 381.498 653.502 380.042 655.434 380.042C657.268 380.042 658.514 381.344 658.514 383.262V383.738H653.124C653.194 385.39 654.062 386.342 655.518 386.342C656.624 386.342 657.338 385.866 657.59 384.97H658.514C658.15 386.398 657.1 387.168 655.504 387.168ZM655.434 380.868C654.16 380.868 653.32 381.708 653.152 383.038H657.548C657.548 381.736 656.708 380.868 655.434 380.868ZM661.025 387H660.059V380.224H660.899L661.011 381.19C661.347 380.476 662.103 380.042 663.055 380.042C664.119 380.042 664.917 380.602 665.239 381.484C665.547 380.602 666.373 380.042 667.465 380.042C668.935 380.042 669.901 380.994 669.901 382.562V387H668.963V382.758C668.963 381.596 668.319 380.91 667.283 380.91C666.149 380.91 665.477 381.764 665.477 382.814V387H664.525V382.744C664.525 381.596 663.867 380.924 662.845 380.924C661.711 380.924 661.025 381.764 661.025 382.8V387ZM676.945 376.976V387H675.937V376.976H676.945ZM679.172 389.954V380.224H680.012L680.11 381.596C680.586 380.546 681.538 380.042 682.672 380.042C684.632 380.042 685.808 381.54 685.808 383.584C685.808 385.628 684.674 387.168 682.672 387.168C681.524 387.168 680.614 386.678 680.138 385.698V389.954H679.172ZM680.152 383.612C680.152 385.166 681.02 386.3 682.504 386.3C683.974 386.3 684.828 385.166 684.828 383.612C684.828 382.044 683.974 380.924 682.504 380.924C681.02 380.924 680.152 382.044 680.152 383.612ZM686.774 385.096H687.698C687.698 385.88 688.286 386.37 689.238 386.37C690.288 386.37 690.904 385.922 690.904 385.194C690.904 384.634 690.624 384.312 689.826 384.116L688.664 383.822C687.488 383.528 686.914 382.912 686.914 381.988C686.914 380.798 687.908 380.042 689.364 380.042C690.792 380.042 691.716 380.826 691.758 382.086H690.82C690.792 381.302 690.246 380.84 689.336 380.84C688.384 380.84 687.852 381.246 687.852 381.974C687.852 382.492 688.216 382.856 688.958 383.038L690.12 383.332C691.296 383.626 691.828 384.172 691.828 385.152C691.828 386.37 690.792 387.168 689.252 387.168C687.726 387.168 686.774 386.356 686.774 385.096ZM698.178 380.224H699.144V387H698.304L698.178 385.852C697.8 386.636 696.862 387.168 695.798 387.168C694.202 387.168 693.334 386.076 693.334 384.424V380.21H694.314V384.116C694.314 385.726 695.028 386.3 696.106 386.3C697.408 386.3 698.178 385.432 698.178 383.822V380.224ZM702.122 387H701.156V380.224H701.996L702.108 381.19C702.444 380.476 703.2 380.042 704.152 380.042C705.216 380.042 706.014 380.602 706.336 381.484C706.644 380.602 707.47 380.042 708.562 380.042C710.032 380.042 710.998 380.994 710.998 382.562V387H710.06V382.758C710.06 381.596 709.416 380.91 708.38 380.91C707.246 380.91 706.574 381.764 706.574 382.814V387H705.622V382.744C705.622 381.596 704.964 380.924 703.942 380.924C702.808 380.924 702.122 381.764 702.122 382.8V387ZM720.086 387H717.034V376.976H720.058C723.082 376.976 725.098 378.992 725.098 381.988C725.098 384.984 723.096 387 720.086 387ZM720.016 377.9H718.042V386.076H720.044C722.494 386.076 724.062 384.48 724.062 381.988C724.062 379.482 722.494 377.9 720.016 377.9ZM726.233 383.612C726.233 381.54 727.689 380.042 729.677 380.042C731.665 380.042 733.121 381.54 733.121 383.612C733.121 385.67 731.665 387.168 729.677 387.168C727.689 387.168 726.233 385.67 726.233 383.612ZM727.213 383.598C727.213 385.194 728.221 386.3 729.677 386.3C731.119 386.3 732.141 385.194 732.141 383.598C732.141 382.03 731.119 380.91 729.677 380.91C728.221 380.91 727.213 382.03 727.213 383.598ZM735.674 387H734.708V376.794H735.674V387ZM737.253 383.612C737.253 381.54 738.709 380.042 740.697 380.042C742.685 380.042 744.141 381.54 744.141 383.612C744.141 385.67 742.685 387.168 740.697 387.168C738.709 387.168 737.253 385.67 737.253 383.612ZM738.233 383.598C738.233 385.194 739.241 386.3 740.697 386.3C742.139 386.3 743.161 385.194 743.161 383.598C743.161 382.03 742.139 380.91 740.697 380.91C739.241 380.91 738.233 382.03 738.233 383.598ZM749.228 380.14V381.008H748.696C747.45 381.008 746.652 381.848 746.652 383.136V387H745.686V380.224H746.596L746.666 381.274C746.932 380.546 747.646 380.07 748.598 380.07C748.808 380.07 748.99 380.084 749.228 380.14ZM754.003 379.58C754.003 377.9 755.347 376.794 757.363 376.794C759.169 376.794 760.359 377.802 760.513 379.482H759.491C759.379 378.348 758.609 377.704 757.349 377.704C755.935 377.704 755.011 378.432 755.011 379.566C755.011 380.448 755.529 381.008 756.579 381.274L758.301 381.694C759.869 382.072 760.681 382.968 760.681 384.326C760.681 386.062 759.337 387.168 757.265 387.168C755.319 387.168 754.003 386.146 753.877 384.508H754.913C754.969 385.558 755.893 386.244 757.265 386.244C758.735 386.244 759.673 385.53 759.673 384.382C759.673 383.486 759.169 382.898 758.091 382.646L756.397 382.226C754.829 381.848 754.003 380.952 754.003 379.58ZM762.759 378.362C762.367 378.362 762.045 378.04 762.045 377.648C762.045 377.256 762.367 376.92 762.759 376.92C763.151 376.92 763.487 377.256 763.487 377.648C763.487 378.04 763.151 378.362 762.759 378.362ZM762.283 387V380.224H763.249V387H762.283ZM766.818 387H765.866V381.036H764.508V380.224H765.866V378.082H766.818V380.224H768.176V381.036H766.818V387ZM773.527 387H772.505L776.187 376.976H777.433L781.157 387H780.107L779.127 384.34H774.507L773.527 387ZM776.677 378.39L774.815 383.458H778.805L776.929 378.39C776.887 378.25 776.817 378.082 776.803 377.984C776.789 378.068 776.733 378.25 776.677 378.39ZM783.306 387H782.34V380.224H783.18L783.292 381.19C783.628 380.476 784.384 380.042 785.336 380.042C786.4 380.042 787.198 380.602 787.52 381.484C787.828 380.602 788.654 380.042 789.746 380.042C791.216 380.042 792.182 380.994 792.182 382.562V387H791.244V382.758C791.244 381.596 790.6 380.91 789.564 380.91C788.43 380.91 787.758 381.764 787.758 382.814V387H786.806V382.744C786.806 381.596 786.148 380.924 785.126 380.924C783.992 380.924 783.306 381.764 783.306 382.8V387ZM796.967 387.168C794.979 387.168 793.649 385.74 793.649 383.612C793.649 381.498 794.965 380.042 796.897 380.042C798.731 380.042 799.977 381.344 799.977 383.262V383.738H794.587C794.657 385.39 795.525 386.342 796.981 386.342C798.087 386.342 798.801 385.866 799.053 384.97H799.977C799.613 386.398 798.563 387.168 796.967 387.168ZM796.897 380.868C795.623 380.868 794.783 381.708 794.615 383.038H799.011C799.011 381.736 798.171 380.868 796.897 380.868ZM803.007 387H802.055V381.036H800.697V380.224H802.055V378.082H803.007V380.224H804.365V381.036H803.007V387ZM806.907 386.524C806.907 387.392 806.235 388.148 805.367 388.274V387.756C805.871 387.672 806.235 387.308 806.235 386.916C806.151 386.972 806.039 387.014 805.871 387.014C805.479 387.014 805.143 386.734 805.143 386.258C805.143 385.768 805.479 385.418 805.969 385.418C806.473 385.418 806.907 385.824 806.907 386.524ZM641.518 406.154C638.718 406.154 636.814 404.068 636.814 400.988C636.814 397.908 638.746 395.808 641.574 395.808C643.73 395.808 645.424 397.11 645.83 399.098H644.752C644.332 397.656 643.1 396.774 641.532 396.774C639.334 396.774 637.864 398.454 637.864 400.988C637.864 403.508 639.334 405.188 641.532 405.188C643.114 405.188 644.374 404.334 644.808 402.99H645.886C645.424 404.88 643.674 406.154 641.518 406.154ZM646.943 402.612C646.943 400.54 648.399 399.042 650.387 399.042C652.375 399.042 653.831 400.54 653.831 402.612C653.831 404.67 652.375 406.168 650.387 406.168C648.399 406.168 646.943 404.67 646.943 402.612ZM647.923 402.598C647.923 404.194 648.931 405.3 650.387 405.3C651.829 405.3 652.851 404.194 652.851 402.598C652.851 401.03 651.829 399.91 650.387 399.91C648.931 399.91 647.923 401.03 647.923 402.598ZM656.342 406H655.376V399.224H656.216L656.356 400.4C656.804 399.532 657.7 399.042 658.68 399.042C660.542 399.042 661.312 400.148 661.312 401.856V406H660.346V402.066C660.346 400.484 659.632 399.924 658.512 399.924C657.126 399.924 656.342 400.932 656.342 402.458V406ZM662.581 404.096H663.505C663.505 404.88 664.093 405.37 665.045 405.37C666.095 405.37 666.711 404.922 666.711 404.194C666.711 403.634 666.431 403.312 665.633 403.116L664.471 402.822C663.295 402.528 662.721 401.912 662.721 400.988C662.721 399.798 663.715 399.042 665.171 399.042C666.599 399.042 667.523 399.826 667.565 401.086H666.627C666.599 400.302 666.053 399.84 665.143 399.84C664.191 399.84 663.659 400.246 663.659 400.974C663.659 401.492 664.023 401.856 664.765 402.038L665.927 402.332C667.103 402.626 667.635 403.172 667.635 404.152C667.635 405.37 666.599 406.168 665.059 406.168C663.533 406.168 662.581 405.356 662.581 404.096ZM672.068 406.168C670.08 406.168 668.75 404.74 668.75 402.612C668.75 400.498 670.066 399.042 671.998 399.042C673.832 399.042 675.078 400.344 675.078 402.262V402.738H669.688C669.758 404.39 670.626 405.342 672.082 405.342C673.188 405.342 673.902 404.866 674.154 403.97H675.078C674.714 405.398 673.664 406.168 672.068 406.168ZM671.998 399.868C670.724 399.868 669.884 400.708 669.716 402.038H674.112C674.112 400.736 673.272 399.868 671.998 399.868ZM676.146 402.626C676.146 400.498 677.448 399.042 679.422 399.042C680.99 399.042 682.138 399.952 682.404 401.352H681.438C681.186 400.414 680.374 399.896 679.436 399.896C678.064 399.896 677.098 400.946 677.098 402.612C677.098 404.222 677.994 405.3 679.366 405.3C680.374 405.3 681.186 404.74 681.452 403.872H682.432C682.11 405.258 680.906 406.168 679.366 406.168C677.448 406.168 676.146 404.754 676.146 402.626ZM685.45 406H684.498V400.036H683.14V399.224H684.498V397.082H685.45V399.224H686.808V400.036H685.45V406ZM690.839 406.168C688.851 406.168 687.521 404.74 687.521 402.612C687.521 400.498 688.837 399.042 690.769 399.042C692.603 399.042 693.849 400.344 693.849 402.262V402.738H688.459C688.529 404.39 689.397 405.342 690.853 405.342C691.959 405.342 692.673 404.866 692.925 403.97H693.849C693.485 405.398 692.435 406.168 690.839 406.168ZM690.769 399.868C689.495 399.868 688.655 400.708 688.487 402.038H692.883C692.883 400.736 692.043 399.868 690.769 399.868ZM696.879 406H695.927V400.036H694.569V399.224H695.927V397.082H696.879V399.224H698.237V400.036H696.879V406ZM704.255 399.224H705.221V406H704.381L704.255 404.852C703.877 405.636 702.939 406.168 701.875 406.168C700.279 406.168 699.411 405.076 699.411 403.424V399.21H700.391V403.116C700.391 404.726 701.105 405.3 702.183 405.3C703.485 405.3 704.255 404.432 704.255 402.822V399.224ZM710.776 399.14V400.008H710.244C708.998 400.008 708.2 400.848 708.2 402.136V406H707.234V399.224H708.144L708.214 400.274C708.48 399.546 709.194 399.07 710.146 399.07C710.356 399.07 710.538 399.084 710.776 399.14ZM716.153 406H715.131L718.813 395.976H720.059L723.783 406H722.733L721.753 403.34H717.133L716.153 406ZM719.303 397.39L717.441 402.458H721.431L719.555 397.39C719.513 397.25 719.443 397.082 719.429 396.984C719.415 397.068 719.359 397.25 719.303 397.39ZM727.394 406.168C725.42 406.168 724.258 404.656 724.258 402.626C724.258 400.582 725.42 399.042 727.436 399.042C728.556 399.042 729.452 399.532 729.928 400.512V395.794H730.894V406H730.054L729.956 404.614C729.48 405.664 728.528 406.168 727.394 406.168ZM727.562 405.286C729.046 405.286 729.914 404.166 729.914 402.598C729.914 401.044 729.046 399.91 727.562 399.91C726.092 399.91 725.238 401.044 725.238 402.598C725.238 404.166 726.092 405.286 727.562 405.286ZM733.385 397.362C732.993 397.362 732.671 397.04 732.671 396.648C732.671 396.256 732.993 395.92 733.385 395.92C733.777 395.92 734.113 396.256 734.113 396.648C734.113 397.04 733.777 397.362 733.385 397.362ZM732.909 406V399.224H733.875V406H732.909ZM735.89 408.954V399.224H736.73L736.828 400.596C737.304 399.546 738.256 399.042 739.39 399.042C741.35 399.042 742.526 400.54 742.526 402.584C742.526 404.628 741.392 406.168 739.39 406.168C738.242 406.168 737.332 405.678 736.856 404.698V408.954H735.89ZM736.87 402.612C736.87 404.166 737.738 405.3 739.222 405.3C740.692 405.3 741.546 404.166 741.546 402.612C741.546 401.044 740.692 399.924 739.222 399.924C737.738 399.924 736.87 401.044 736.87 402.612ZM744.542 397.362C744.15 397.362 743.828 397.04 743.828 396.648C743.828 396.256 744.15 395.92 744.542 395.92C744.934 395.92 745.27 396.256 745.27 396.648C745.27 397.04 744.934 397.362 744.542 397.362ZM744.066 406V399.224H745.032V406H744.066ZM746.472 404.096H747.396C747.396 404.88 747.984 405.37 748.936 405.37C749.986 405.37 750.602 404.922 750.602 404.194C750.602 403.634 750.322 403.312 749.524 403.116L748.362 402.822C747.186 402.528 746.612 401.912 746.612 400.988C746.612 399.798 747.606 399.042 749.062 399.042C750.49 399.042 751.414 399.826 751.456 401.086H750.518C750.49 400.302 749.944 399.84 749.034 399.84C748.082 399.84 747.55 400.246 747.55 400.974C747.55 401.492 747.914 401.856 748.656 402.038L749.818 402.332C750.994 402.626 751.526 403.172 751.526 404.152C751.526 405.37 750.49 406.168 748.95 406.168C747.424 406.168 746.472 405.356 746.472 404.096ZM752.64 402.626C752.64 400.498 753.942 399.042 755.916 399.042C757.484 399.042 758.632 399.952 758.898 401.352H757.932C757.68 400.414 756.868 399.896 755.93 399.896C754.558 399.896 753.592 400.946 753.592 402.612C753.592 404.222 754.488 405.3 755.86 405.3C756.868 405.3 757.68 404.74 757.946 403.872H758.926C758.604 405.258 757.4 406.168 755.86 406.168C753.942 406.168 752.64 404.754 752.64 402.626ZM760.866 397.362C760.474 397.362 760.152 397.04 760.152 396.648C760.152 396.256 760.474 395.92 760.866 395.92C761.258 395.92 761.594 396.256 761.594 396.648C761.594 397.04 761.258 397.362 760.866 397.362ZM760.39 406V399.224H761.356V406H760.39ZM764.336 406H763.37V399.224H764.21L764.35 400.4C764.798 399.532 765.694 399.042 766.674 399.042C768.536 399.042 769.306 400.148 769.306 401.856V406H768.34V402.066C768.34 400.484 767.626 399.924 766.506 399.924C765.12 399.924 764.336 400.932 764.336 402.458V406ZM770.77 402.416C770.77 400.568 771.96 399.042 773.948 399.042C775.124 399.042 776.02 399.588 776.454 400.582L776.552 399.224H777.392V405.79C777.392 407.806 776.104 409.122 774.116 409.122C772.38 409.122 771.162 408.142 770.896 406.504H771.862C772.072 407.596 772.912 408.24 774.13 408.24C775.516 408.24 776.44 407.302 776.44 405.888V404.278C775.978 405.23 775.04 405.79 773.878 405.79C771.946 405.79 770.77 404.264 770.77 402.416ZM771.736 402.402C771.736 403.788 772.59 404.922 774.018 404.922C775.488 404.922 776.356 403.858 776.356 402.402C776.356 400.96 775.516 399.896 774.032 399.896C772.576 399.896 771.736 401.03 771.736 402.402ZM789.506 406H783.5V395.976H789.492V396.9H784.508V400.512H789.03V401.422H784.508V405.076H789.506V406ZM792.351 406H791.385V395.794H792.351V406ZM794.881 397.362C794.489 397.362 794.167 397.04 794.167 396.648C794.167 396.256 794.489 395.92 794.881 395.92C795.273 395.92 795.609 396.256 795.609 396.648C795.609 397.04 795.273 397.362 794.881 397.362ZM794.405 406V399.224H795.371V406H794.405ZM798.94 406H797.988V400.036H796.63V399.224H797.988V397.082H798.94V399.224H800.298V400.036H798.94V406ZM801.958 406.154C801.482 406.154 801.076 405.762 801.076 405.3C801.076 404.824 801.482 404.418 801.958 404.418C802.434 404.418 802.84 404.824 802.84 405.3C802.84 405.762 802.434 406.154 801.958 406.154Z" fill="#666666"/>
<path d="M1084.37 376.976V386.076H1088.98V387H1083.36V376.976H1084.37ZM1089.66 383.612C1089.66 381.54 1091.12 380.042 1093.11 380.042C1095.09 380.042 1096.55 381.54 1096.55 383.612C1096.55 385.67 1095.09 387.168 1093.11 387.168C1091.12 387.168 1089.66 385.67 1089.66 383.612ZM1090.64 383.598C1090.64 385.194 1091.65 386.3 1093.11 386.3C1094.55 386.3 1095.57 385.194 1095.57 383.598C1095.57 382.03 1094.55 380.91 1093.11 380.91C1091.65 380.91 1090.64 382.03 1090.64 383.598ZM1101.64 380.14V381.008H1101.11C1099.86 381.008 1099.06 381.848 1099.06 383.136V387H1098.1V380.224H1099.01L1099.08 381.274C1099.34 380.546 1100.06 380.07 1101.01 380.07C1101.22 380.07 1101.4 380.084 1101.64 380.14ZM1105.5 387.168C1103.52 387.168 1102.19 385.74 1102.19 383.612C1102.19 381.498 1103.5 380.042 1105.43 380.042C1107.27 380.042 1108.51 381.344 1108.51 383.262V383.738H1103.12C1103.19 385.39 1104.06 386.342 1105.52 386.342C1106.62 386.342 1107.34 385.866 1107.59 384.97H1108.51C1108.15 386.398 1107.1 387.168 1105.5 387.168ZM1105.43 380.868C1104.16 380.868 1103.32 381.708 1103.15 383.038H1107.55C1107.55 381.736 1106.71 380.868 1105.43 380.868ZM1111.02 387H1110.06V380.224H1110.9L1111.01 381.19C1111.35 380.476 1112.1 380.042 1113.05 380.042C1114.12 380.042 1114.92 380.602 1115.24 381.484C1115.55 380.602 1116.37 380.042 1117.46 380.042C1118.93 380.042 1119.9 380.994 1119.9 382.562V387H1118.96V382.758C1118.96 381.596 1118.32 380.91 1117.28 380.91C1116.15 380.91 1115.48 381.764 1115.48 382.814V387H1114.52V382.744C1114.52 381.596 1113.87 380.924 1112.84 380.924C1111.71 380.924 1111.02 381.764 1111.02 382.8V387ZM1126.94 376.976V387H1125.94V376.976H1126.94ZM1129.17 389.954V380.224H1130.01L1130.11 381.596C1130.59 380.546 1131.54 380.042 1132.67 380.042C1134.63 380.042 1135.81 381.54 1135.81 383.584C1135.81 385.628 1134.67 387.168 1132.67 387.168C1131.52 387.168 1130.61 386.678 1130.14 385.698V389.954H1129.17ZM1130.15 383.612C1130.15 385.166 1131.02 386.3 1132.5 386.3C1133.97 386.3 1134.83 385.166 1134.83 383.612C1134.83 382.044 1133.97 380.924 1132.5 380.924C1131.02 380.924 1130.15 382.044 1130.15 383.612ZM1136.77 385.096H1137.7C1137.7 385.88 1138.29 386.37 1139.24 386.37C1140.29 386.37 1140.9 385.922 1140.9 385.194C1140.9 384.634 1140.62 384.312 1139.83 384.116L1138.66 383.822C1137.49 383.528 1136.91 382.912 1136.91 381.988C1136.91 380.798 1137.91 380.042 1139.36 380.042C1140.79 380.042 1141.72 380.826 1141.76 382.086H1140.82C1140.79 381.302 1140.25 380.84 1139.34 380.84C1138.38 380.84 1137.85 381.246 1137.85 381.974C1137.85 382.492 1138.22 382.856 1138.96 383.038L1140.12 383.332C1141.3 383.626 1141.83 384.172 1141.83 385.152C1141.83 386.37 1140.79 387.168 1139.25 387.168C1137.73 387.168 1136.77 386.356 1136.77 385.096ZM1148.18 380.224H1149.14V387H1148.3L1148.18 385.852C1147.8 386.636 1146.86 387.168 1145.8 387.168C1144.2 387.168 1143.33 386.076 1143.33 384.424V380.21H1144.31V384.116C1144.31 385.726 1145.03 386.3 1146.11 386.3C1147.41 386.3 1148.18 385.432 1148.18 383.822V380.224ZM1152.12 387H1151.16V380.224H1152L1152.11 381.19C1152.44 380.476 1153.2 380.042 1154.15 380.042C1155.22 380.042 1156.01 380.602 1156.34 381.484C1156.64 380.602 1157.47 380.042 1158.56 380.042C1160.03 380.042 1161 380.994 1161 382.562V387H1160.06V382.758C1160.06 381.596 1159.42 380.91 1158.38 380.91C1157.25 380.91 1156.57 381.764 1156.57 382.814V387H1155.62V382.744C1155.62 381.596 1154.96 380.924 1153.94 380.924C1152.81 380.924 1152.12 381.764 1152.12 382.8V387ZM1170.09 387H1167.03V376.976H1170.06C1173.08 376.976 1175.1 378.992 1175.1 381.988C1175.1 384.984 1173.1 387 1170.09 387ZM1170.02 377.9H1168.04V386.076H1170.04C1172.49 386.076 1174.06 384.48 1174.06 381.988C1174.06 379.482 1172.49 377.9 1170.02 377.9ZM1176.23 383.612C1176.23 381.54 1177.69 380.042 1179.68 380.042C1181.67 380.042 1183.12 381.54 1183.12 383.612C1183.12 385.67 1181.67 387.168 1179.68 387.168C1177.69 387.168 1176.23 385.67 1176.23 383.612ZM1177.21 383.598C1177.21 385.194 1178.22 386.3 1179.68 386.3C1181.12 386.3 1182.14 385.194 1182.14 383.598C1182.14 382.03 1181.12 380.91 1179.68 380.91C1178.22 380.91 1177.21 382.03 1177.21 383.598ZM1185.67 387H1184.71V376.794H1185.67V387ZM1187.25 383.612C1187.25 381.54 1188.71 380.042 1190.7 380.042C1192.68 380.042 1194.14 381.54 1194.14 383.612C1194.14 385.67 1192.68 387.168 1190.7 387.168C1188.71 387.168 1187.25 385.67 1187.25 383.612ZM1188.23 383.598C1188.23 385.194 1189.24 386.3 1190.7 386.3C1192.14 386.3 1193.16 385.194 1193.16 383.598C1193.16 382.03 1192.14 380.91 1190.7 380.91C1189.24 380.91 1188.23 382.03 1188.23 383.598ZM1199.23 380.14V381.008H1198.7C1197.45 381.008 1196.65 381.848 1196.65 383.136V387H1195.69V380.224H1196.6L1196.67 381.274C1196.93 380.546 1197.65 380.07 1198.6 380.07C1198.81 380.07 1198.99 380.084 1199.23 380.14ZM1204 379.58C1204 377.9 1205.35 376.794 1207.36 376.794C1209.17 376.794 1210.36 377.802 1210.51 379.482H1209.49C1209.38 378.348 1208.61 377.704 1207.35 377.704C1205.93 377.704 1205.01 378.432 1205.01 379.566C1205.01 380.448 1205.53 381.008 1206.58 381.274L1208.3 381.694C1209.87 382.072 1210.68 382.968 1210.68 384.326C1210.68 386.062 1209.34 387.168 1207.26 387.168C1205.32 387.168 1204 386.146 1203.88 384.508H1204.91C1204.97 385.558 1205.89 386.244 1207.26 386.244C1208.73 386.244 1209.67 385.53 1209.67 384.382C1209.67 383.486 1209.17 382.898 1208.09 382.646L1206.4 382.226C1204.83 381.848 1204 380.952 1204 379.58ZM1212.76 378.362C1212.37 378.362 1212.05 378.04 1212.05 377.648C1212.05 377.256 1212.37 376.92 1212.76 376.92C1213.15 376.92 1213.49 377.256 1213.49 377.648C1213.49 378.04 1213.15 378.362 1212.76 378.362ZM1212.28 387V380.224H1213.25V387H1212.28ZM1216.82 387H1215.87V381.036H1214.51V380.224H1215.87V378.082H1216.82V380.224H1218.18V381.036H1216.82V387ZM1223.53 387H1222.5L1226.19 376.976H1227.43L1231.16 387H1230.11L1229.13 384.34H1224.51L1223.53 387ZM1226.68 378.39L1224.81 383.458H1228.8L1226.93 378.39C1226.89 378.25 1226.82 378.082 1226.8 377.984C1226.79 378.068 1226.73 378.25 1226.68 378.39ZM1233.31 387H1232.34V380.224H1233.18L1233.29 381.19C1233.63 380.476 1234.38 380.042 1235.34 380.042C1236.4 380.042 1237.2 380.602 1237.52 381.484C1237.83 380.602 1238.65 380.042 1239.75 380.042C1241.22 380.042 1242.18 380.994 1242.18 382.562V387H1241.24V382.758C1241.24 381.596 1240.6 380.91 1239.56 380.91C1238.43 380.91 1237.76 381.764 1237.76 382.814V387H1236.81V382.744C1236.81 381.596 1236.15 380.924 1235.13 380.924C1233.99 380.924 1233.31 381.764 1233.31 382.8V387ZM1246.97 387.168C1244.98 387.168 1243.65 385.74 1243.65 383.612C1243.65 381.498 1244.97 380.042 1246.9 380.042C1248.73 380.042 1249.98 381.344 1249.98 383.262V383.738H1244.59C1244.66 385.39 1245.53 386.342 1246.98 386.342C1248.09 386.342 1248.8 385.866 1249.05 384.97H1249.98C1249.61 386.398 1248.56 387.168 1246.97 387.168ZM1246.9 380.868C1245.62 380.868 1244.78 381.708 1244.62 383.038H1249.01C1249.01 381.736 1248.17 380.868 1246.9 380.868ZM1253.01 387H1252.06V381.036H1250.7V380.224H1252.06V378.082H1253.01V380.224H1254.37V381.036H1253.01V387ZM1256.91 386.524C1256.91 387.392 1256.24 388.148 1255.37 388.274V387.756C1255.87 387.672 1256.24 387.308 1256.24 386.916C1256.15 386.972 1256.04 387.014 1255.87 387.014C1255.48 387.014 1255.14 386.734 1255.14 386.258C1255.14 385.768 1255.48 385.418 1255.97 385.418C1256.47 385.418 1256.91 385.824 1256.91 386.524ZM1091.52 406.154C1088.72 406.154 1086.81 404.068 1086.81 400.988C1086.81 397.908 1088.75 395.808 1091.57 395.808C1093.73 395.808 1095.42 397.11 1095.83 399.098H1094.75C1094.33 397.656 1093.1 396.774 1091.53 396.774C1089.33 396.774 1087.86 398.454 1087.86 400.988C1087.86 403.508 1089.33 405.188 1091.53 405.188C1093.11 405.188 1094.37 404.334 1094.81 402.99H1095.89C1095.42 404.88 1093.67 406.154 1091.52 406.154ZM1096.94 402.612C1096.94 400.54 1098.4 399.042 1100.39 399.042C1102.38 399.042 1103.83 400.54 1103.83 402.612C1103.83 404.67 1102.38 406.168 1100.39 406.168C1098.4 406.168 1096.94 404.67 1096.94 402.612ZM1097.92 402.598C1097.92 404.194 1098.93 405.3 1100.39 405.3C1101.83 405.3 1102.85 404.194 1102.85 402.598C1102.85 401.03 1101.83 399.91 1100.39 399.91C1098.93 399.91 1097.92 401.03 1097.92 402.598ZM1106.34 406H1105.38V399.224H1106.22L1106.36 400.4C1106.8 399.532 1107.7 399.042 1108.68 399.042C1110.54 399.042 1111.31 400.148 1111.31 401.856V406H1110.35V402.066C1110.35 400.484 1109.63 399.924 1108.51 399.924C1107.13 399.924 1106.34 400.932 1106.34 402.458V406ZM1112.58 404.096H1113.51C1113.51 404.88 1114.09 405.37 1115.05 405.37C1116.1 405.37 1116.71 404.922 1116.71 404.194C1116.71 403.634 1116.43 403.312 1115.63 403.116L1114.47 402.822C1113.3 402.528 1112.72 401.912 1112.72 400.988C1112.72 399.798 1113.72 399.042 1115.17 399.042C1116.6 399.042 1117.52 399.826 1117.57 401.086H1116.63C1116.6 400.302 1116.05 399.84 1115.14 399.84C1114.19 399.84 1113.66 400.246 1113.66 400.974C1113.66 401.492 1114.02 401.856 1114.77 402.038L1115.93 402.332C1117.1 402.626 1117.64 403.172 1117.64 404.152C1117.64 405.37 1116.6 406.168 1115.06 406.168C1113.53 406.168 1112.58 405.356 1112.58 404.096ZM1122.07 406.168C1120.08 406.168 1118.75 404.74 1118.75 402.612C1118.75 400.498 1120.07 399.042 1122 399.042C1123.83 399.042 1125.08 400.344 1125.08 402.262V402.738H1119.69C1119.76 404.39 1120.63 405.342 1122.08 405.342C1123.19 405.342 1123.9 404.866 1124.15 403.97H1125.08C1124.71 405.398 1123.66 406.168 1122.07 406.168ZM1122 399.868C1120.72 399.868 1119.88 400.708 1119.72 402.038H1124.11C1124.11 400.736 1123.27 399.868 1122 399.868ZM1126.15 402.626C1126.15 400.498 1127.45 399.042 1129.42 399.042C1130.99 399.042 1132.14 399.952 1132.4 401.352H1131.44C1131.19 400.414 1130.37 399.896 1129.44 399.896C1128.06 399.896 1127.1 400.946 1127.1 402.612C1127.1 404.222 1127.99 405.3 1129.37 405.3C1130.37 405.3 1131.19 404.74 1131.45 403.872H1132.43C1132.11 405.258 1130.91 406.168 1129.37 406.168C1127.45 406.168 1126.15 404.754 1126.15 402.626ZM1135.45 406H1134.5V400.036H1133.14V399.224H1134.5V397.082H1135.45V399.224H1136.81V400.036H1135.45V406ZM1140.84 406.168C1138.85 406.168 1137.52 404.74 1137.52 402.612C1137.52 400.498 1138.84 399.042 1140.77 399.042C1142.6 399.042 1143.85 400.344 1143.85 402.262V402.738H1138.46C1138.53 404.39 1139.4 405.342 1140.85 405.342C1141.96 405.342 1142.67 404.866 1142.93 403.97H1143.85C1143.49 405.398 1142.44 406.168 1140.84 406.168ZM1140.77 399.868C1139.5 399.868 1138.66 400.708 1138.49 402.038H1142.88C1142.88 400.736 1142.04 399.868 1140.77 399.868ZM1146.88 406H1145.93V400.036H1144.57V399.224H1145.93V397.082H1146.88V399.224H1148.24V400.036H1146.88V406ZM1154.26 399.224H1155.22V406H1154.38L1154.26 404.852C1153.88 405.636 1152.94 406.168 1151.88 406.168C1150.28 406.168 1149.41 405.076 1149.41 403.424V399.21H1150.39V403.116C1150.39 404.726 1151.11 405.3 1152.18 405.3C1153.49 405.3 1154.26 404.432 1154.26 402.822V399.224ZM1160.78 399.14V400.008H1160.24C1159 400.008 1158.2 400.848 1158.2 402.136V406H1157.23V399.224H1158.14L1158.21 400.274C1158.48 399.546 1159.19 399.07 1160.15 399.07C1160.36 399.07 1160.54 399.084 1160.78 399.14ZM1166.15 406H1165.13L1168.81 395.976H1170.06L1173.78 406H1172.73L1171.75 403.34H1167.13L1166.15 406ZM1169.3 397.39L1167.44 402.458H1171.43L1169.55 397.39C1169.51 397.25 1169.44 397.082 1169.43 396.984C1169.41 397.068 1169.36 397.25 1169.3 397.39ZM1177.39 406.168C1175.42 406.168 1174.26 404.656 1174.26 402.626C1174.26 400.582 1175.42 399.042 1177.44 399.042C1178.56 399.042 1179.45 399.532 1179.93 400.512V395.794H1180.89V406H1180.05L1179.96 404.614C1179.48 405.664 1178.53 406.168 1177.39 406.168ZM1177.56 405.286C1179.05 405.286 1179.91 404.166 1179.91 402.598C1179.91 401.044 1179.05 399.91 1177.56 399.91C1176.09 399.91 1175.24 401.044 1175.24 402.598C1175.24 404.166 1176.09 405.286 1177.56 405.286ZM1183.39 397.362C1182.99 397.362 1182.67 397.04 1182.67 396.648C1182.67 396.256 1182.99 395.92 1183.39 395.92C1183.78 395.92 1184.11 396.256 1184.11 396.648C1184.11 397.04 1183.78 397.362 1183.39 397.362ZM1182.91 406V399.224H1183.88V406H1182.91ZM1185.89 408.954V399.224H1186.73L1186.83 400.596C1187.3 399.546 1188.26 399.042 1189.39 399.042C1191.35 399.042 1192.53 400.54 1192.53 402.584C1192.53 404.628 1191.39 406.168 1189.39 406.168C1188.24 406.168 1187.33 405.678 1186.86 404.698V408.954H1185.89ZM1186.87 402.612C1186.87 404.166 1187.74 405.3 1189.22 405.3C1190.69 405.3 1191.55 404.166 1191.55 402.612C1191.55 401.044 1190.69 399.924 1189.22 399.924C1187.74 399.924 1186.87 401.044 1186.87 402.612ZM1194.54 397.362C1194.15 397.362 1193.83 397.04 1193.83 396.648C1193.83 396.256 1194.15 395.92 1194.54 395.92C1194.93 395.92 1195.27 396.256 1195.27 396.648C1195.27 397.04 1194.93 397.362 1194.54 397.362ZM1194.07 406V399.224H1195.03V406H1194.07ZM1196.47 404.096H1197.4C1197.4 404.88 1197.98 405.37 1198.94 405.37C1199.99 405.37 1200.6 404.922 1200.6 404.194C1200.6 403.634 1200.32 403.312 1199.52 403.116L1198.36 402.822C1197.19 402.528 1196.61 401.912 1196.61 400.988C1196.61 399.798 1197.61 399.042 1199.06 399.042C1200.49 399.042 1201.41 399.826 1201.46 401.086H1200.52C1200.49 400.302 1199.94 399.84 1199.03 399.84C1198.08 399.84 1197.55 400.246 1197.55 400.974C1197.55 401.492 1197.91 401.856 1198.66 402.038L1199.82 402.332C1200.99 402.626 1201.53 403.172 1201.53 404.152C1201.53 405.37 1200.49 406.168 1198.95 406.168C1197.42 406.168 1196.47 405.356 1196.47 404.096ZM1202.64 402.626C1202.64 400.498 1203.94 399.042 1205.92 399.042C1207.48 399.042 1208.63 399.952 1208.9 401.352H1207.93C1207.68 400.414 1206.87 399.896 1205.93 399.896C1204.56 399.896 1203.59 400.946 1203.59 402.612C1203.59 404.222 1204.49 405.3 1205.86 405.3C1206.87 405.3 1207.68 404.74 1207.95 403.872H1208.93C1208.6 405.258 1207.4 406.168 1205.86 406.168C1203.94 406.168 1202.64 404.754 1202.64 402.626ZM1210.87 397.362C1210.47 397.362 1210.15 397.04 1210.15 396.648C1210.15 396.256 1210.47 395.92 1210.87 395.92C1211.26 395.92 1211.59 396.256 1211.59 396.648C1211.59 397.04 1211.26 397.362 1210.87 397.362ZM1210.39 406V399.224H1211.36V406H1210.39ZM1214.34 406H1213.37V399.224H1214.21L1214.35 400.4C1214.8 399.532 1215.69 399.042 1216.67 399.042C1218.54 399.042 1219.31 400.148 1219.31 401.856V406H1218.34V402.066C1218.34 400.484 1217.63 399.924 1216.51 399.924C1215.12 399.924 1214.34 400.932 1214.34 402.458V406ZM1220.77 402.416C1220.77 400.568 1221.96 399.042 1223.95 399.042C1225.12 399.042 1226.02 399.588 1226.45 400.582L1226.55 399.224H1227.39V405.79C1227.39 407.806 1226.1 409.122 1224.12 409.122C1222.38 409.122 1221.16 408.142 1220.9 406.504H1221.86C1222.07 407.596 1222.91 408.24 1224.13 408.24C1225.52 408.24 1226.44 407.302 1226.44 405.888V404.278C1225.98 405.23 1225.04 405.79 1223.88 405.79C1221.95 405.79 1220.77 404.264 1220.77 402.416ZM1221.74 402.402C1221.74 403.788 1222.59 404.922 1224.02 404.922C1225.49 404.922 1226.36 403.858 1226.36 402.402C1226.36 400.96 1225.52 399.896 1224.03 399.896C1222.58 399.896 1221.74 401.03 1221.74 402.402ZM1239.51 406H1233.5V395.976H1239.49V396.9H1234.51V400.512H1239.03V401.422H1234.51V405.076H1239.51V406ZM1242.35 406H1241.38V395.794H1242.35V406ZM1244.88 397.362C1244.49 397.362 1244.17 397.04 1244.17 396.648C1244.17 396.256 1244.49 395.92 1244.88 395.92C1245.27 395.92 1245.61 396.256 1245.61 396.648C1245.61 397.04 1245.27 397.362 1244.88 397.362ZM1244.41 406V399.224H1245.37V406H1244.41ZM1248.94 406H1247.99V400.036H1246.63V399.224H1247.99V397.082H1248.94V399.224H1250.3V400.036H1248.94V406ZM1251.96 406.154C1251.48 406.154 1251.08 405.762 1251.08 405.3C1251.08 404.824 1251.48 404.418 1251.96 404.418C1252.43 404.418 1252.84 404.824 1252.84 405.3C1252.84 405.762 1252.43 406.154 1251.96 406.154Z" fill="#666666"/>
<path fill-rule="evenodd" clip-rule="evenodd" d="M270.96 243.96C271.88 243.039 273.18 242.667 274.667 242.667H277.334C278.821 242.667 280.12 243.039 281.041 243.96C281.961 244.88 282.334 246.179 282.334 247.667V250.333C282.334 251.821 281.961 253.12 281.041 254.04C280.12 254.961 278.821 255.333 277.334 255.333H274.667C273.18 255.333 271.88 254.961 270.96 254.04C270.04 253.12 269.667 251.821 269.667 250.333V247.667C269.667 246.179 270.04 244.88 270.96 243.96ZM272.374 245.374C271.961 245.787 271.667 246.487 271.667 247.667V250.333C271.667 251.512 271.961 252.213 272.374 252.626C272.787 253.039 273.488 253.333 274.667 253.333H277.334C278.513 253.333 279.214 253.039 279.627 252.626C280.04 252.213 280.334 251.512 280.334 250.333V247.667C280.334 246.487 280.04 245.787 279.627 245.374C279.214 244.961 278.513 244.667 277.334 244.667H274.667C273.488 244.667 272.787 244.961 272.374 245.374Z" fill="#A4A4A4"/>
<path fill-rule="evenodd" clip-rule="evenodd" d="M254.96 259.96C255.88 259.039 257.18 258.667 258.667 258.667H261.334C262.821 258.667 264.12 259.039 265.041 259.96C265.961 260.88 266.334 262.179 266.334 263.667V266.333C266.334 267.821 265.961 269.12 265.041 270.04C264.12 270.961 262.821 271.333 261.334 271.333H258.667C257.18 271.333 255.88 270.961 254.96 270.04C254.04 269.12 253.667 267.821 253.667 266.333V263.667C253.667 262.179 254.04 260.88 254.96 259.96ZM256.374 261.374C255.961 261.787 255.667 262.487 255.667 263.667V266.333C255.667 267.512 255.961 268.213 256.374 268.626C256.787 269.039 257.488 269.333 258.667 269.333H261.334C262.513 269.333 263.214 269.039 263.627 268.626C264.04 268.213 264.334 267.512 264.334 266.333V263.667C264.334 262.487 264.04 261.787 263.627 261.374C263.214 260.961 262.513 260.667 261.334 260.667H258.667C257.488 260.667 256.787 260.961 256.374 261.374Z" fill="#A4A4A4"/>
<path fill-rule="evenodd" clip-rule="evenodd" d="M260 244.667C257.607 244.667 255.667 246.607 255.667 249C255.667 251.393 257.607 253.333 260 253.333C262.394 253.333 264.334 251.393 264.334 249C264.334 246.607 262.394 244.667 260 244.667ZM253.667 249C253.667 245.502 256.503 242.667 260 242.667C263.498 242.667 266.334 245.502 266.334 249C266.334 252.498 263.498 255.333 260 255.333C256.503 255.333 253.667 252.498 253.667 249Z" fill="#A4A4A4"/>
<path fill-rule="evenodd" clip-rule="evenodd" d="M276 260.667C273.607 260.667 271.667 262.607 271.667 265C271.667 267.393 273.607 269.333 276 269.333C278.394 269.333 280.334 267.393 280.334 265C280.334 262.607 278.394 260.667 276 260.667ZM269.667 265C269.667 261.502 272.503 258.667 276 258.667C279.498 258.667 282.334 261.502 282.334 265C282.334 268.498 279.498 271.333 276 271.333C272.503 271.333 269.667 268.498 269.667 265Z" fill="#A4A4A4"/>
<path fill-rule="evenodd" clip-rule="evenodd" d="M706.473 245.913C707.55 243.982 709.623 242.667 712 242.667H724C724.552 242.667 725 243.114 725 243.667V257C725 259.019 723.352 260.667 721.334 260.667H720C719.448 260.667 719 260.219 719 259.667C719 259.114 719.448 258.667 720 258.667H721.334C722.248 258.667 723 257.914 723 257V244.667H712C710.377 244.667 708.957 245.564 708.22 246.887C707.951 247.369 707.342 247.542 706.86 247.273C706.378 247.005 706.204 246.395 706.473 245.913Z" fill="#A4A4A4"/>
<path fill-rule="evenodd" clip-rule="evenodd" d="M723 247.667C723 247.114 723.448 246.667 724 246.667H726.454C727.779 246.667 728.984 247.384 729.638 248.511L729.642 248.517L729.642 248.517L731.922 252.504C732.099 252.813 732.098 253.193 731.919 253.502C731.74 253.81 731.41 254 731.054 254H729.334C729.153 254 729 254.152 729 254.333V258.333C729 258.514 729.153 258.667 729.334 258.667H733.334C733.886 258.667 734.334 259.114 734.334 259.667V263.667C734.334 266.432 732.099 268.667 729.334 268.667H728C727.448 268.667 727 268.219 727 267.667C727 266.752 726.248 266 725.334 266C724.419 266 723.667 266.752 723.667 267.667C723.667 268.219 723.219 268.667 722.667 268.667H717.334C716.781 268.667 716.334 268.219 716.334 267.667C716.334 266.752 715.581 266 714.667 266C713.753 266 713 266.752 713 267.667C713 268.219 712.553 268.667 712 268.667H710.667C707.901 268.667 705.667 266.432 705.667 263.667C705.667 263.114 706.115 262.667 706.667 262.667C707.219 262.667 707.667 263.114 707.667 263.667C707.667 265.328 709.006 266.667 710.667 266.667H711.139C711.577 265.131 712.994 264 714.667 264C716.34 264 717.757 265.131 718.195 266.667H721.806C722.243 265.131 723.661 264 725.334 264C727.006 264 728.424 265.131 728.861 266.667H729.334C730.995 266.667 732.334 265.328 732.334 263.667V260.667H729.334C728.048 260.667 727 259.619 727 258.333V254.333C727 253.049 728.046 252.002 729.33 252L727.909 249.515C727.908 249.515 727.908 249.514 727.907 249.513C727.602 248.988 727.048 248.667 726.454 248.667H725V257C725 259.019 723.353 260.667 721.334 260.667H720C719.448 260.667 719 260.219 719 259.667C719 259.114 719.448 258.667 720 258.667H721.334C722.248 258.667 723 257.914 723 257V247.667Z" fill="#A4A4A4"/>
<path fill-rule="evenodd" clip-rule="evenodd" d="M714.667 266C713.746 266 713 266.746 713 267.667C713 268.587 713.746 269.333 714.667 269.333C715.587 269.333 716.333 268.587 716.333 267.667C716.333 266.746 715.587 266 714.667 266ZM711 267.667C711 265.642 712.642 264 714.667 264C716.692 264 718.333 265.642 718.333 267.667C718.333 269.692 716.692 271.333 714.667 271.333C712.642 271.333 711 269.692 711 267.667Z" fill="#A4A4A4"/>
<path fill-rule="evenodd" clip-rule="evenodd" d="M725.334 266C724.413 266 723.667 266.746 723.667 267.667C723.667 268.587 724.413 269.333 725.334 269.333C726.254 269.333 727 268.587 727 267.667C727 266.746 726.254 266 725.334 266ZM721.667 267.667C721.667 265.642 723.309 264 725.334 264C727.359 264 729 265.642 729 267.667C729 269.692 727.359 271.333 725.334 271.333C723.309 271.333 721.667 269.692 721.667 267.667Z" fill="#A4A4A4"/>
<path fill-rule="evenodd" clip-rule="evenodd" d="M729.333 254C729.152 254 729 254.152 729 254.333V258.333C729 258.514 729.152 258.667 729.333 258.667H732.333V257.265L730.472 254H729.333ZM727 254.333C727 253.048 728.048 252 729.333 252H731.053C731.413 252 731.744 252.193 731.922 252.505L734.202 256.505C734.288 256.656 734.333 256.826 734.333 257V259.667C734.333 260.219 733.886 260.667 733.333 260.667H729.333C728.048 260.667 727 259.619 727 258.333V254.333Z" fill="#A4A4A4"/>
<path fill-rule="evenodd" clip-rule="evenodd" d="M705.667 251.667C705.667 251.114 706.115 250.667 706.667 250.667H714.667C715.219 250.667 715.667 251.114 715.667 251.667C715.667 252.219 715.219 252.667 714.667 252.667H706.667C706.115 252.667 705.667 252.219 705.667 251.667Z" fill="#A4A4A4"/>
<path fill-rule="evenodd" clip-rule="evenodd" d="M705.667 255.667C705.667 255.114 706.115 254.667 706.667 254.667H712C712.553 254.667 713 255.114 713 255.667C713 256.219 712.553 256.667 712 256.667H706.667C706.115 256.667 705.667 256.219 705.667 255.667Z" fill="#A4A4A4"/>
<path fill-rule="evenodd" clip-rule="evenodd" d="M705.667 259.667C705.667 259.114 706.115 258.667 706.667 258.667H709.334C709.886 258.667 710.334 259.114 710.334 259.667C710.334 260.219 709.886 260.667 709.334 260.667H706.667C706.115 260.667 705.667 260.219 705.667 259.667Z" fill="#A4A4A4"/>
<path fill-rule="evenodd" clip-rule="evenodd" d="M1164.35 252.333C1162.14 252.333 1160.33 254.139 1160.33 256.347V260.448C1161.06 260.159 1161.84 260 1162.67 260C1166.17 260 1169 262.834 1169 266.333C1169 267.41 1168.73 268.438 1168.24 269.333H1179.65C1181.86 269.333 1183.67 267.528 1183.67 265.32V264.733H1182.13C1180.25 264.733 1178.43 263.359 1178.26 261.329C1178.15 260.179 1178.59 259.105 1179.35 258.36C1180.03 257.664 1180.96 257.267 1181.97 257.267H1183.67V256.347C1183.67 254.139 1181.86 252.333 1179.65 252.333H1164.35ZM1158.33 256.347C1158.33 253.034 1161.03 250.333 1164.35 250.333H1179.65C1182.97 250.333 1185.67 253.034 1185.67 256.347V258.267C1185.67 258.819 1185.22 259.267 1184.67 259.267H1181.97C1181.49 259.267 1181.07 259.452 1180.77 259.764L1180.75 259.782C1180.4 260.129 1180.2 260.622 1180.25 261.145L1180.25 261.157L1180.25 261.157C1180.32 262.004 1181.13 262.733 1182.13 262.733H1184.67C1185.22 262.733 1185.67 263.181 1185.67 263.733V265.32C1185.67 268.632 1182.97 271.333 1179.65 271.333H1166.17C1165.75 271.333 1165.38 271.07 1165.23 270.675C1165.09 270.28 1165.21 269.837 1165.53 269.567C1165.85 269.296 1166.14 268.958 1166.36 268.576L1166.38 268.555C1166.77 267.911 1167 267.146 1167 266.333C1167 263.939 1165.06 262 1162.67 262C1161.65 262 1160.71 262.356 1159.96 262.955C1159.66 263.195 1159.25 263.241 1158.9 263.074C1158.55 262.908 1158.33 262.557 1158.33 262.173V256.347Z" fill="#A4A4A4"/>
<path fill-rule="evenodd" clip-rule="evenodd" d="M1174.8 246.267C1174.8 245.19 1173.72 244.451 1172.73 244.828L1162.14 248.829C1161.05 249.241 1160.33 250.281 1160.33 251.453V257.547C1160.33 258.099 1159.89 258.547 1159.33 258.547C1158.78 258.547 1158.33 258.099 1158.33 257.547V251.453C1158.33 249.453 1159.56 247.666 1161.43 246.958L1172.02 242.958C1174.33 242.083 1176.8 243.797 1176.8 246.267V251.333C1176.8 251.886 1176.35 252.333 1175.8 252.333C1175.25 252.333 1174.8 251.886 1174.8 251.333V246.267Z" fill="#A4A4A4"/>
<path fill-rule="evenodd" clip-rule="evenodd" d="M1181.97 259.267C1181.49 259.267 1181.07 259.453 1180.77 259.765L1180.75 259.783C1180.4 260.129 1180.2 260.622 1180.25 261.145L1180.25 261.157L1180.25 261.157C1180.32 262.004 1181.13 262.734 1182.13 262.734H1184.72C1184.94 262.72 1185.08 262.551 1185.08 262.374V259.627C1185.08 259.449 1184.94 259.281 1184.72 259.267H1181.97ZM1179.34 258.36C1180.03 257.664 1180.96 257.267 1181.97 257.267H1184.74C1184.76 257.267 1184.77 257.267 1184.78 257.268C1186.05 257.313 1187.08 258.341 1187.08 259.627V262.374C1187.08 263.659 1186.05 264.688 1184.78 264.733C1184.77 264.733 1184.76 264.734 1184.74 264.734H1182.13C1180.25 264.734 1178.43 263.359 1178.26 261.329C1178.15 260.18 1178.59 259.106 1179.34 258.36Z" fill="#A4A4A4"/>
<path fill-rule="evenodd" clip-rule="evenodd" d="M1164.33 257C1164.33 256.448 1164.78 256 1165.33 256H1174.67C1175.22 256 1175.67 256.448 1175.67 257C1175.67 257.552 1175.22 258 1174.67 258H1165.33C1164.78 258 1164.33 257.552 1164.33 257Z" fill="#A4A4A4"/>
<path fill-rule="evenodd" clip-rule="evenodd" d="M1162.67 262C1161.65 262 1160.71 262.356 1159.96 262.955L1159.95 262.957L1159.95 262.957C1158.96 263.745 1158.33 264.966 1158.33 266.333C1158.33 267.146 1158.56 267.911 1158.96 268.555L1158.97 268.569L1158.97 268.569C1159.71 269.824 1161.09 270.667 1162.67 270.667C1163.76 270.667 1164.75 270.267 1165.5 269.59C1165.51 269.582 1165.52 269.575 1165.53 269.567C1165.85 269.295 1166.14 268.958 1166.36 268.576L1166.38 268.555C1166.77 267.911 1167 267.146 1167 266.333C1167 263.939 1165.06 262 1162.67 262ZM1158.71 261.391C1159.8 260.524 1161.18 260 1162.67 260C1166.17 260 1169 262.834 1169 266.333C1169 267.517 1168.67 268.641 1168.08 269.594C1167.75 270.163 1167.32 270.671 1166.83 271.088C1165.72 272.085 1164.26 272.667 1162.67 272.667C1160.36 272.667 1158.35 271.433 1157.25 269.598C1156.66 268.644 1156.33 267.518 1156.33 266.333C1156.33 264.341 1157.25 262.549 1158.71 261.391Z" fill="#A4A4A4"/>
<path fill-rule="evenodd" clip-rule="evenodd" d="M1165.48 264.347C1165.86 264.752 1165.83 265.385 1165.43 265.76L1162.59 268.387C1162.19 268.751 1161.58 268.74 1161.2 268.36L1159.88 267.04C1159.49 266.649 1159.49 266.016 1159.88 265.626C1160.27 265.235 1160.9 265.235 1161.29 265.626L1161.93 266.265L1164.07 264.292C1164.47 263.917 1165.11 263.942 1165.48 264.347Z" fill="#A4A4A4"/>
</svg>
